<svg width="101" height="101" viewBox="0 0 101 101" fill="none" xmlns="http://www.w3.org/2000/svg">
<rect x="2.32031" y="2" width="96.5386" height="96.5386" rx="6.04309" stroke="black" stroke-width="4"/>
<path d="M12.2998 6.29395C15.6248 6.29397 18.3203 8.98949 18.3203 12.3145C18.3203 15.6394 15.6247 18.3349 12.2998 18.335C8.97484 18.335 6.27932 15.6394 6.2793 12.3145C6.2793 8.98947 8.97482 6.29395 12.2998 6.29395Z" stroke="#E6E6E6" stroke-width="0.523515"/>
<ellipse cx="12.2998" cy="27.5595" rx="6.28218" ry="6.28218" fill="#00C7BE"/>
<path d="M12.2998 36.7852C15.6248 36.7852 18.3203 39.4807 18.3203 42.8057C18.3203 46.1306 15.6247 48.8261 12.2998 48.8262C8.97484 48.8262 6.27932 46.1306 6.2793 42.8057C6.2793 39.4807 8.97482 36.7852 12.2998 36.7852Z" stroke="#E6E6E6" stroke-width="0.523515"/>
<path d="M12.2998 52.0303C15.6248 52.0303 18.3203 54.7258 18.3203 58.0508C18.3203 61.3757 15.6247 64.0713 12.2998 64.0713C8.97484 64.0713 6.27932 61.3757 6.2793 58.0508C6.2793 54.7258 8.97482 52.0303 12.2998 52.0303Z" stroke="#E6E6E6" stroke-width="0.523515"/>
<path d="M12.2998 67.2754C15.6248 67.2754 18.3203 69.9709 18.3203 73.2959C18.3203 76.6208 15.6247 79.3164 12.2998 79.3164C8.97484 79.3164 6.27932 76.6209 6.2793 73.2959C6.2793 69.9709 8.97482 67.2754 12.2998 67.2754Z" stroke="#E6E6E6" stroke-width="0.523515"/>
<path d="M12.2998 82.5215C15.6248 82.5215 18.3203 85.217 18.3203 88.542C18.3203 91.8669 15.6247 94.5625 12.2998 94.5625C8.97484 94.5625 6.27932 91.867 6.2793 88.542C6.2793 85.217 8.97482 82.5215 12.2998 82.5215Z" stroke="#E6E6E6" stroke-width="0.523515"/>
<ellipse cx="27.5449" cy="12.3144" rx="6.28218" ry="6.28218" fill="#00C7BE"/>
<path d="M27.5449 21.5391C30.8699 21.5391 33.5654 24.2346 33.5654 27.5596C33.5654 30.8845 30.8699 33.5801 27.5449 33.5801C24.22 33.5801 21.5244 30.8845 21.5244 27.5596C21.5244 24.2346 24.2199 21.5391 27.5449 21.5391Z" stroke="#E6E6E6" stroke-width="0.523515"/>
<ellipse cx="27.5449" cy="42.8056" rx="6.28218" ry="6.28218" fill="#00C7BE"/>
<path d="M27.5449 52.0303C30.8699 52.0303 33.5654 54.7258 33.5654 58.0508C33.5654 61.3757 30.8699 64.0713 27.5449 64.0713C24.22 64.0713 21.5244 61.3757 21.5244 58.0508C21.5244 54.7258 24.2199 52.0303 27.5449 52.0303Z" stroke="#E6E6E6" stroke-width="0.523515"/>
<path d="M27.5449 67.2754C30.8699 67.2754 33.5654 69.9709 33.5654 73.2959C33.5654 76.6208 30.8699 79.3164 27.5449 79.3164C24.22 79.3164 21.5244 76.6209 21.5244 73.2959C21.5244 69.9709 24.2199 67.2754 27.5449 67.2754Z" stroke="#E6E6E6" stroke-width="0.523515"/>
<path d="M27.5449 82.5215C30.8699 82.5215 33.5654 85.217 33.5654 88.542C33.5654 91.8669 30.8699 94.5625 27.5449 94.5625C24.22 94.5625 21.5244 91.867 21.5244 88.542C21.5244 85.217 24.2199 82.5215 27.5449 82.5215Z" stroke="#E6E6E6" stroke-width="0.523515"/>
<path d="M42.7905 6.29395C46.1155 6.29397 48.811 8.98949 48.811 12.3145C48.811 15.6394 46.1155 18.3349 42.7905 18.335C39.4656 18.335 36.77 15.6394 36.77 12.3145C36.77 8.98947 39.4655 6.29395 42.7905 6.29395Z" stroke="#E6E6E6" stroke-width="0.523515"/>
<ellipse cx="42.7905" cy="27.5595" rx="6.28218" ry="6.28218" fill="#00C7BE"/>
<path d="M42.7905 36.7852C46.1155 36.7852 48.811 39.4807 48.811 42.8057C48.811 46.1306 46.1155 48.8261 42.7905 48.8262C39.4656 48.8262 36.77 46.1306 36.77 42.8057C36.77 39.4807 39.4655 36.7852 42.7905 36.7852Z" stroke="#E6E6E6" stroke-width="0.523515"/>
<ellipse cx="42.7905" cy="58.0507" rx="6.28218" ry="6.28218" fill="#00C7BE"/>
<path d="M42.7905 67.2754C46.1155 67.2754 48.811 69.9709 48.811 73.2959C48.811 76.6208 46.1155 79.3164 42.7905 79.3164C39.4656 79.3164 36.77 76.6209 36.77 73.2959C36.77 69.9709 39.4655 67.2754 42.7905 67.2754Z" stroke="#E6E6E6" stroke-width="0.523515"/>
<path d="M42.7905 82.5215C46.1155 82.5215 48.811 85.217 48.811 88.542C48.811 91.8669 46.1155 94.5625 42.7905 94.5625C39.4656 94.5625 36.77 91.867 36.77 88.542C36.77 85.217 39.4655 82.5215 42.7905 82.5215Z" stroke="#E6E6E6" stroke-width="0.523515"/>
<path d="M58.0356 6.29395C61.3606 6.29397 64.0562 8.98949 64.0562 12.3145C64.0561 15.6394 61.3606 18.3349 58.0356 18.335C54.7107 18.335 52.0152 15.6394 52.0151 12.3145C52.0151 8.98947 54.7107 6.29395 58.0356 6.29395Z" stroke="#E6E6E6" stroke-width="0.523515"/>
<path d="M58.0356 21.5391C61.3606 21.5391 64.0562 24.2346 64.0562 27.5596C64.0561 30.8845 61.3606 33.5801 58.0356 33.5801C54.7107 33.5801 52.0152 30.8845 52.0151 27.5596C52.0151 24.2346 54.7107 21.5391 58.0356 21.5391Z" stroke="#E6E6E6" stroke-width="0.523515"/>
<path d="M58.0356 36.7852C61.3606 36.7852 64.0562 39.4807 64.0562 42.8057C64.0561 46.1306 61.3606 48.8261 58.0356 48.8262C54.7107 48.8262 52.0152 46.1306 52.0151 42.8057C52.0151 39.4807 54.7107 36.7852 58.0356 36.7852Z" stroke="#E6E6E6" stroke-width="0.523515"/>
<path d="M58.0356 52.0303C61.3606 52.0303 64.0562 54.7258 64.0562 58.0508C64.0561 61.3757 61.3606 64.0713 58.0356 64.0713C54.7107 64.0713 52.0152 61.3757 52.0151 58.0508C52.0151 54.7258 54.7107 52.0303 58.0356 52.0303Z" stroke="#E6E6E6" stroke-width="0.523515"/>
<path d="M58.0356 67.2754C61.3606 67.2754 64.0562 69.9709 64.0562 73.2959C64.0561 76.6208 61.3606 79.3164 58.0356 79.3164C54.7107 79.3164 52.0152 76.6209 52.0151 73.2959C52.0151 69.9709 54.7107 67.2754 58.0356 67.2754Z" stroke="#E6E6E6" stroke-width="0.523515"/>
<path d="M58.0356 82.5215C61.3606 82.5215 64.0562 85.217 64.0562 88.542C64.0561 91.8669 61.3606 94.5625 58.0356 94.5625C54.7107 94.5625 52.0152 91.867 52.0151 88.542C52.0151 85.217 54.7107 82.5215 58.0356 82.5215Z" stroke="#E6E6E6" stroke-width="0.523515"/>
<path d="M73.2812 6.29395C76.6062 6.29397 79.3018 8.98949 79.3018 12.3145C79.3017 15.6394 76.6062 18.3349 73.2812 18.335C69.9563 18.335 67.2608 15.6394 67.2607 12.3145C67.2607 8.98947 69.9563 6.29395 73.2812 6.29395Z" stroke="#E6E6E6" stroke-width="0.523515"/>
<path d="M73.2812 21.5391C76.6062 21.5391 79.3018 24.2346 79.3018 27.5596C79.3017 30.8845 76.6062 33.5801 73.2812 33.5801C69.9563 33.5801 67.2608 30.8845 67.2607 27.5596C67.2607 24.2346 69.9563 21.5391 73.2812 21.5391Z" stroke="#E6E6E6" stroke-width="0.523515"/>
<path d="M73.2812 36.7852C76.6062 36.7852 79.3018 39.4807 79.3018 42.8057C79.3017 46.1306 76.6062 48.8261 73.2812 48.8262C69.9563 48.8262 67.2608 46.1306 67.2607 42.8057C67.2607 39.4807 69.9563 36.7852 73.2812 36.7852Z" stroke="#E6E6E6" stroke-width="0.523515"/>
<path d="M73.2812 52.0303C76.6062 52.0303 79.3018 54.7258 79.3018 58.0508C79.3017 61.3757 76.6062 64.0713 73.2812 64.0713C69.9563 64.0713 67.2608 61.3757 67.2607 58.0508C67.2607 54.7258 69.9563 52.0303 73.2812 52.0303Z" stroke="#E6E6E6" stroke-width="0.523515"/>
<path d="M73.2812 67.2754C76.6062 67.2754 79.3018 69.9709 79.3018 73.2959C79.3017 76.6208 76.6062 79.3164 73.2812 79.3164C69.9563 79.3164 67.2608 76.6209 67.2607 73.2959C67.2607 69.9709 69.9563 67.2754 73.2812 67.2754Z" stroke="#E6E6E6" stroke-width="0.523515"/>
<path d="M73.2812 82.5215C76.6062 82.5215 79.3018 85.217 79.3018 88.542C79.3017 91.8669 76.6062 94.5625 73.2812 94.5625C69.9563 94.5625 67.2608 91.867 67.2607 88.542C67.2607 85.217 69.9563 82.5215 73.2812 82.5215Z" stroke="#E6E6E6" stroke-width="0.523515"/>
<path d="M88.5269 6.29395C91.8518 6.29397 94.5474 8.98949 94.5474 12.3145C94.5473 15.6394 91.8518 18.3349 88.5269 18.335C85.2019 18.335 82.5064 15.6394 82.5063 12.3145C82.5063 8.98947 85.2019 6.29395 88.5269 6.29395Z" stroke="#E6E6E6" stroke-width="0.523515"/>
<path d="M88.5269 21.5391C91.8518 21.5391 94.5474 24.2346 94.5474 27.5596C94.5473 30.8845 91.8518 33.5801 88.5269 33.5801C85.2019 33.5801 82.5064 30.8845 82.5063 27.5596C82.5063 24.2346 85.2019 21.5391 88.5269 21.5391Z" stroke="#E6E6E6" stroke-width="0.523515"/>
<path d="M88.5269 36.7852C91.8518 36.7852 94.5474 39.4807 94.5474 42.8057C94.5473 46.1306 91.8518 48.8261 88.5269 48.8262C85.2019 48.8262 82.5064 46.1306 82.5063 42.8057C82.5063 39.4807 85.2019 36.7852 88.5269 36.7852Z" stroke="#E6E6E6" stroke-width="0.523515"/>
<path d="M88.5269 52.0303C91.8518 52.0303 94.5474 54.7258 94.5474 58.0508C94.5473 61.3757 91.8518 64.0713 88.5269 64.0713C85.2019 64.0713 82.5064 61.3757 82.5063 58.0508C82.5063 54.7258 85.2019 52.0303 88.5269 52.0303Z" stroke="#E6E6E6" stroke-width="0.523515"/>
<path d="M88.5269 67.2754C91.8518 67.2754 94.5474 69.9709 94.5474 73.2959C94.5473 76.6208 91.8518 79.3164 88.5269 79.3164C85.2019 79.3164 82.5064 76.6209 82.5063 73.2959C82.5063 69.9709 85.2019 67.2754 88.5269 67.2754Z" stroke="#E6E6E6" stroke-width="0.523515"/>
<path d="M88.5269 82.5215C91.8518 82.5215 94.5474 85.217 94.5474 88.542C94.5473 91.8669 91.8518 94.5625 88.5269 94.5625C85.2019 94.5625 82.5064 91.867 82.5063 88.542C82.5063 85.217 85.2019 82.5215 88.5269 82.5215Z" stroke="#E6E6E6" stroke-width="0.523515"/>
</svg>
