<svg width="102" height="101" viewBox="0 0 102 101" fill="none" xmlns="http://www.w3.org/2000/svg">
<rect x="2.78174" y="2" width="96.5386" height="96.5386" rx="6.04309" stroke="black" stroke-width="4"/>
<path d="M12.7612 6.29395C16.0862 6.29397 18.7817 8.98949 18.7817 12.3145C18.7817 15.6394 16.0862 18.3349 12.7612 18.335C9.43626 18.335 6.74075 15.6394 6.74072 12.3145C6.74072 8.98947 9.43625 6.29395 12.7612 6.29395Z" stroke="#E6E6E6" stroke-width="0.523515"/>
<path d="M12.7612 21.5391C16.0862 21.5391 18.7817 24.2346 18.7817 27.5596C18.7817 30.8845 16.0862 33.5801 12.7612 33.5801C9.43626 33.5801 6.74075 30.8845 6.74072 27.5596C6.74072 24.2346 9.43625 21.5391 12.7612 21.5391Z" stroke="#E6E6E6" stroke-width="0.523515"/>
<path d="M12.7612 36.7852C16.0862 36.7852 18.7817 39.4807 18.7817 42.8057C18.7817 46.1306 16.0862 48.8261 12.7612 48.8262C9.43626 48.8262 6.74075 46.1306 6.74072 42.8057C6.74072 39.4807 9.43625 36.7852 12.7612 36.7852Z" stroke="#E6E6E6" stroke-width="0.523515"/>
<path d="M12.7612 52.0303C16.0862 52.0303 18.7817 54.7258 18.7817 58.0508C18.7817 61.3757 16.0862 64.0713 12.7612 64.0713C9.43626 64.0713 6.74075 61.3757 6.74072 58.0508C6.74072 54.7258 9.43625 52.0303 12.7612 52.0303Z" stroke="#E6E6E6" stroke-width="0.523515"/>
<path d="M12.7612 67.2754C16.0862 67.2754 18.7817 69.9709 18.7817 73.2959C18.7817 76.6208 16.0862 79.3164 12.7612 79.3164C9.43626 79.3164 6.74075 76.6209 6.74072 73.2959C6.74072 69.9709 9.43625 67.2754 12.7612 67.2754Z" stroke="#E6E6E6" stroke-width="0.523515"/>
<path d="M12.7612 82.5215C16.0862 82.5215 18.7817 85.217 18.7817 88.542C18.7817 91.8669 16.0862 94.5625 12.7612 94.5625C9.43626 94.5625 6.74075 91.867 6.74072 88.542C6.74072 85.217 9.43625 82.5215 12.7612 82.5215Z" stroke="#E6E6E6" stroke-width="0.523515"/>
<path d="M28.0063 6.29395C31.3313 6.29397 34.0269 8.98949 34.0269 12.3145C34.0268 15.6394 31.3313 18.3349 28.0063 18.335C24.6814 18.335 21.9859 15.6394 21.9858 12.3145C21.9858 8.98947 24.6814 6.29395 28.0063 6.29395Z" stroke="#E6E6E6" stroke-width="0.523515"/>
<path d="M28.0063 21.5391C31.3313 21.5391 34.0269 24.2346 34.0269 27.5596C34.0268 30.8845 31.3313 33.5801 28.0063 33.5801C24.6814 33.5801 21.9859 30.8845 21.9858 27.5596C21.9858 24.2346 24.6814 21.5391 28.0063 21.5391Z" stroke="#E6E6E6" stroke-width="0.523515"/>
<path d="M28.0063 36.7852C31.3313 36.7852 34.0269 39.4807 34.0269 42.8057C34.0268 46.1306 31.3313 48.8261 28.0063 48.8262C24.6814 48.8262 21.9859 46.1306 21.9858 42.8057C21.9858 39.4807 24.6814 36.7852 28.0063 36.7852Z" stroke="#E6E6E6" stroke-width="0.523515"/>
<path d="M28.0063 52.0303C31.3313 52.0303 34.0269 54.7258 34.0269 58.0508C34.0268 61.3757 31.3313 64.0713 28.0063 64.0713C24.6814 64.0713 21.9859 61.3757 21.9858 58.0508C21.9858 54.7258 24.6814 52.0303 28.0063 52.0303Z" stroke="#E6E6E6" stroke-width="0.523515"/>
<path d="M28.0063 67.2754C31.3313 67.2754 34.0269 69.9709 34.0269 73.2959C34.0268 76.6208 31.3313 79.3164 28.0063 79.3164C24.6814 79.3164 21.9859 76.6209 21.9858 73.2959C21.9858 69.9709 24.6814 67.2754 28.0063 67.2754Z" stroke="#E6E6E6" stroke-width="0.523515"/>
<path d="M28.0063 82.5215C31.3313 82.5215 34.0269 85.217 34.0269 88.542C34.0268 91.8669 31.3313 94.5625 28.0063 94.5625C24.6814 94.5625 21.9859 91.867 21.9858 88.542C21.9858 85.217 24.6814 82.5215 28.0063 82.5215Z" stroke="#E6E6E6" stroke-width="0.523515"/>
<path d="M43.252 6.29395C46.5769 6.29397 49.2725 8.98949 49.2725 12.3145C49.2724 15.6394 46.5769 18.3349 43.252 18.335C39.927 18.335 37.2315 15.6394 37.2314 12.3145C37.2314 8.98947 39.927 6.29395 43.252 6.29395Z" stroke="#E6E6E6" stroke-width="0.523515"/>
<path d="M43.252 21.5391C46.5769 21.5391 49.2725 24.2346 49.2725 27.5596C49.2724 30.8845 46.5769 33.5801 43.252 33.5801C39.927 33.5801 37.2315 30.8845 37.2314 27.5596C37.2314 24.2346 39.927 21.5391 43.252 21.5391Z" stroke="#E6E6E6" stroke-width="0.523515"/>
<path d="M43.252 36.7852C46.5769 36.7852 49.2725 39.4807 49.2725 42.8057C49.2724 46.1306 46.5769 48.8261 43.252 48.8262C39.927 48.8262 37.2315 46.1306 37.2314 42.8057C37.2314 39.4807 39.927 36.7852 43.252 36.7852Z" stroke="#E6E6E6" stroke-width="0.523515"/>
<path d="M43.252 52.0303C46.5769 52.0303 49.2725 54.7258 49.2725 58.0508C49.2724 61.3757 46.5769 64.0713 43.252 64.0713C39.927 64.0713 37.2315 61.3757 37.2314 58.0508C37.2314 54.7258 39.927 52.0303 43.252 52.0303Z" stroke="#E6E6E6" stroke-width="0.523515"/>
<path d="M43.252 67.2754C46.5769 67.2754 49.2725 69.9709 49.2725 73.2959C49.2724 76.6208 46.5769 79.3164 43.252 79.3164C39.927 79.3164 37.2315 76.6209 37.2314 73.2959C37.2314 69.9709 39.927 67.2754 43.252 67.2754Z" stroke="#E6E6E6" stroke-width="0.523515"/>
<path d="M43.252 82.5215C46.5769 82.5215 49.2725 85.217 49.2725 88.542C49.2724 91.8669 46.5769 94.5625 43.252 94.5625C39.927 94.5625 37.2315 91.867 37.2314 88.542C37.2314 85.217 39.927 82.5215 43.252 82.5215Z" stroke="#E6E6E6" stroke-width="0.523515"/>
<path d="M58.4971 6.29395C61.822 6.29397 64.5176 8.98949 64.5176 12.3145C64.5176 15.6394 61.822 18.3349 58.4971 18.335C55.1721 18.335 52.4766 15.6394 52.4766 12.3145C52.4766 8.98947 55.1721 6.29395 58.4971 6.29395Z" stroke="#E6E6E6" stroke-width="0.523515"/>
<ellipse cx="58.497" cy="27.5595" rx="6.28218" ry="6.28218" fill="#00C7BE"/>
<path d="M58.4971 36.7852C61.822 36.7852 64.5176 39.4807 64.5176 42.8057C64.5176 46.1306 61.822 48.8261 58.4971 48.8262C55.1721 48.8262 52.4766 46.1306 52.4766 42.8057C52.4766 39.4807 55.1721 36.7852 58.4971 36.7852Z" stroke="#E6E6E6" stroke-width="0.523515"/>
<path d="M58.4971 52.0303C61.822 52.0303 64.5176 54.7258 64.5176 58.0508C64.5176 61.3757 61.822 64.0713 58.4971 64.0713C55.1721 64.0713 52.4766 61.3757 52.4766 58.0508C52.4766 54.7258 55.1721 52.0303 58.4971 52.0303Z" stroke="#E6E6E6" stroke-width="0.523515"/>
<path d="M58.4971 67.2754C61.822 67.2754 64.5176 69.9709 64.5176 73.2959C64.5176 76.6208 61.822 79.3164 58.4971 79.3164C55.1721 79.3164 52.4766 76.6209 52.4766 73.2959C52.4766 69.9709 55.1721 67.2754 58.4971 67.2754Z" stroke="#E6E6E6" stroke-width="0.523515"/>
<ellipse cx="58.497" cy="88.5419" rx="6.28218" ry="6.28218" fill="#00C7BE"/>
<path d="M73.7427 6.29395C77.0676 6.29397 79.7632 8.98949 79.7632 12.3145C79.7632 15.6394 77.0676 18.3349 73.7427 18.335C70.4177 18.335 67.7222 15.6394 67.7222 12.3145C67.7222 8.98947 70.4177 6.29395 73.7427 6.29395Z" stroke="#E6E6E6" stroke-width="0.523515"/>
<path d="M73.7427 21.5391C77.0676 21.5391 79.7632 24.2346 79.7632 27.5596C79.7632 30.8845 77.0676 33.5801 73.7427 33.5801C70.4177 33.5801 67.7222 30.8845 67.7222 27.5596C67.7222 24.2346 70.4177 21.5391 73.7427 21.5391Z" stroke="#E6E6E6" stroke-width="0.523515"/>
<ellipse cx="73.7426" cy="42.8056" rx="6.28218" ry="6.28218" fill="#00C7BE"/>
<path d="M73.7427 52.0303C77.0676 52.0303 79.7632 54.7258 79.7632 58.0508C79.7632 61.3757 77.0676 64.0713 73.7427 64.0713C70.4177 64.0713 67.7222 61.3757 67.7222 58.0508C67.7222 54.7258 70.4177 52.0303 73.7427 52.0303Z" stroke="#E6E6E6" stroke-width="0.523515"/>
<ellipse cx="73.7426" cy="73.2958" rx="6.28218" ry="6.28218" fill="#00C7BE"/>
<path d="M73.7427 82.5215C77.0676 82.5215 79.7632 85.217 79.7632 88.542C79.7632 91.8669 77.0676 94.5625 73.7427 94.5625C70.4177 94.5625 67.7222 91.867 67.7222 88.542C67.7222 85.217 70.4177 82.5215 73.7427 82.5215Z" stroke="#E6E6E6" stroke-width="0.523515"/>
<path d="M88.9883 6.29395C92.3132 6.29397 95.0088 8.98949 95.0088 12.3145C95.0088 15.6394 92.3132 18.3349 88.9883 18.335C85.6633 18.335 82.9678 15.6394 82.9678 12.3145C82.9678 8.98947 85.6633 6.29395 88.9883 6.29395Z" stroke="#E6E6E6" stroke-width="0.523515"/>
<path d="M88.9883 21.5391C92.3132 21.5391 95.0088 24.2346 95.0088 27.5596C95.0088 30.8845 92.3132 33.5801 88.9883 33.5801C85.6633 33.5801 82.9678 30.8845 82.9678 27.5596C82.9678 24.2346 85.6633 21.5391 88.9883 21.5391Z" stroke="#E6E6E6" stroke-width="0.523515"/>
<path d="M88.9883 36.7852C92.3132 36.7852 95.0088 39.4807 95.0088 42.8057C95.0088 46.1306 92.3132 48.8261 88.9883 48.8262C85.6633 48.8262 82.9678 46.1306 82.9678 42.8057C82.9678 39.4807 85.6633 36.7852 88.9883 36.7852Z" stroke="#E6E6E6" stroke-width="0.523515"/>
<ellipse cx="88.9882" cy="58.0507" rx="6.28218" ry="6.28218" fill="#00C7BE"/>
<path d="M88.9883 67.2754C92.3132 67.2754 95.0088 69.9709 95.0088 73.2959C95.0088 76.6208 92.3132 79.3164 88.9883 79.3164C85.6633 79.3164 82.9678 76.6209 82.9678 73.2959C82.9678 69.9709 85.6633 67.2754 88.9883 67.2754Z" stroke="#E6E6E6" stroke-width="0.523515"/>
<path d="M88.9883 82.5215C92.3132 82.5215 95.0088 85.217 95.0088 88.542C95.0088 91.8669 92.3132 94.5625 88.9883 94.5625C85.6633 94.5625 82.9678 91.867 82.9678 88.542C82.9678 85.217 85.6633 82.5215 88.9883 82.5215Z" stroke="#E6E6E6" stroke-width="0.523515"/>
</svg>
