<svg width="102" height="101" viewBox="0 0 102 101" fill="none" xmlns="http://www.w3.org/2000/svg">
<rect x="2.85889" y="2" width="96.5386" height="96.5386" rx="6.04309" stroke="black" stroke-width="4"/>
<path d="M12.8384 6.29395C16.1633 6.29397 18.8589 8.98949 18.8589 12.3145C18.8589 15.6394 16.1633 18.3349 12.8384 18.335C9.51341 18.335 6.8179 15.6394 6.81787 12.3145C6.81787 8.98947 9.51339 6.29395 12.8384 6.29395Z" stroke="#E6E6E6" stroke-width="0.523515"/>
<path d="M12.8384 21.5391C16.1633 21.5391 18.8589 24.2346 18.8589 27.5596C18.8589 30.8845 16.1633 33.5801 12.8384 33.5801C9.51341 33.5801 6.8179 30.8845 6.81787 27.5596C6.81787 24.2346 9.51339 21.5391 12.8384 21.5391Z" stroke="#E6E6E6" stroke-width="0.523515"/>
<path d="M12.8384 36.7852C16.1633 36.7852 18.8589 39.4807 18.8589 42.8057C18.8589 46.1306 16.1633 48.8261 12.8384 48.8262C9.51341 48.8262 6.8179 46.1306 6.81787 42.8057C6.81787 39.4807 9.51339 36.7852 12.8384 36.7852Z" stroke="#E6E6E6" stroke-width="0.523515"/>
<ellipse cx="12.8383" cy="58.0507" rx="6.28218" ry="6.28218" fill="#00C7BE"/>
<path d="M12.8384 67.2754C16.1633 67.2754 18.8589 69.9709 18.8589 73.2959C18.8589 76.6208 16.1633 79.3164 12.8384 79.3164C9.51341 79.3164 6.8179 76.6209 6.81787 73.2959C6.81787 69.9709 9.51339 67.2754 12.8384 67.2754Z" stroke="#E6E6E6" stroke-width="0.523515"/>
<path d="M12.8384 82.5215C16.1633 82.5215 18.8589 85.217 18.8589 88.542C18.8589 91.8669 16.1633 94.5625 12.8384 94.5625C9.51341 94.5625 6.8179 91.867 6.81787 88.542C6.81787 85.217 9.51339 82.5215 12.8384 82.5215Z" stroke="#E6E6E6" stroke-width="0.523515"/>
<path d="M28.0835 6.29395C31.4085 6.29397 34.104 8.98949 34.104 12.3145C34.104 15.6394 31.4084 18.3349 28.0835 18.335C24.7585 18.335 22.063 15.6394 22.063 12.3145C22.063 8.98947 24.7585 6.29395 28.0835 6.29395Z" stroke="#E6E6E6" stroke-width="0.523515"/>
<path d="M28.0835 21.5391C31.4085 21.5391 34.104 24.2346 34.104 27.5596C34.104 30.8845 31.4084 33.5801 28.0835 33.5801C24.7585 33.5801 22.063 30.8845 22.063 27.5596C22.063 24.2346 24.7585 21.5391 28.0835 21.5391Z" stroke="#E6E6E6" stroke-width="0.523515"/>
<ellipse cx="28.0834" cy="42.8056" rx="6.28218" ry="6.28218" fill="#00C7BE"/>
<path d="M28.0835 52.0303C31.4085 52.0303 34.104 54.7258 34.104 58.0508C34.104 61.3757 31.4084 64.0713 28.0835 64.0713C24.7585 64.0713 22.063 61.3757 22.063 58.0508C22.063 54.7258 24.7585 52.0303 28.0835 52.0303Z" stroke="#E6E6E6" stroke-width="0.523515"/>
<ellipse cx="28.0834" cy="73.2958" rx="6.28218" ry="6.28218" fill="#00C7BE"/>
<path d="M28.0835 82.5215C31.4085 82.5215 34.104 85.217 34.104 88.542C34.104 91.8669 31.4084 94.5625 28.0835 94.5625C24.7585 94.5625 22.063 91.867 22.063 88.542C22.063 85.217 24.7585 82.5215 28.0835 82.5215Z" stroke="#E6E6E6" stroke-width="0.523515"/>
<path d="M43.3291 6.29395C46.6541 6.29397 49.3496 8.98949 49.3496 12.3145C49.3496 15.6394 46.654 18.3349 43.3291 18.335C40.0041 18.335 37.3086 15.6394 37.3086 12.3145C37.3086 8.98947 40.0041 6.29395 43.3291 6.29395Z" stroke="#E6E6E6" stroke-width="0.523515"/>
<path d="M43.3291 21.5391C46.6541 21.5391 49.3496 24.2346 49.3496 27.5596C49.3496 30.8845 46.654 33.5801 43.3291 33.5801C40.0041 33.5801 37.3086 30.8845 37.3086 27.5596C37.3086 24.2346 40.0041 21.5391 43.3291 21.5391Z" stroke="#E6E6E6" stroke-width="0.523515"/>
<path d="M43.3291 36.7852C46.6541 36.7852 49.3496 39.4807 49.3496 42.8057C49.3496 46.1306 46.654 48.8261 43.3291 48.8262C40.0041 48.8262 37.3086 46.1306 37.3086 42.8057C37.3086 39.4807 40.0041 36.7852 43.3291 36.7852Z" stroke="#E6E6E6" stroke-width="0.523515"/>
<path d="M43.3291 52.0303C46.6541 52.0303 49.3496 54.7258 49.3496 58.0508C49.3496 61.3757 46.654 64.0713 43.3291 64.0713C40.0041 64.0713 37.3086 61.3757 37.3086 58.0508C37.3086 54.7258 40.0041 52.0303 43.3291 52.0303Z" stroke="#E6E6E6" stroke-width="0.523515"/>
<path d="M43.3291 67.2754C46.6541 67.2754 49.3496 69.9709 49.3496 73.2959C49.3496 76.6208 46.654 79.3164 43.3291 79.3164C40.0041 79.3164 37.3086 76.6209 37.3086 73.2959C37.3086 69.9709 40.0041 67.2754 43.3291 67.2754Z" stroke="#E6E6E6" stroke-width="0.523515"/>
<ellipse cx="43.329" cy="88.5419" rx="6.28218" ry="6.28218" fill="#00C7BE"/>
<path d="M58.5742 6.29395C61.8992 6.29397 64.5947 8.98949 64.5947 12.3145C64.5947 15.6394 61.8992 18.3349 58.5742 18.335C55.2493 18.335 52.5537 15.6394 52.5537 12.3145C52.5537 8.98947 55.2492 6.29395 58.5742 6.29395Z" stroke="#E6E6E6" stroke-width="0.523515"/>
<path d="M58.5742 21.5391C61.8992 21.5391 64.5947 24.2346 64.5947 27.5596C64.5947 30.8845 61.8992 33.5801 58.5742 33.5801C55.2493 33.5801 52.5537 30.8845 52.5537 27.5596C52.5537 24.2346 55.2492 21.5391 58.5742 21.5391Z" stroke="#E6E6E6" stroke-width="0.523515"/>
<path d="M58.5742 36.7852C61.8992 36.7852 64.5947 39.4807 64.5947 42.8057C64.5947 46.1306 61.8992 48.8261 58.5742 48.8262C55.2493 48.8262 52.5537 46.1306 52.5537 42.8057C52.5537 39.4807 55.2492 36.7852 58.5742 36.7852Z" stroke="#E6E6E6" stroke-width="0.523515"/>
<path d="M58.5742 52.0303C61.8992 52.0303 64.5947 54.7258 64.5947 58.0508C64.5947 61.3757 61.8992 64.0713 58.5742 64.0713C55.2493 64.0713 52.5537 61.3757 52.5537 58.0508C52.5537 54.7258 55.2492 52.0303 58.5742 52.0303Z" stroke="#E6E6E6" stroke-width="0.523515"/>
<ellipse cx="58.5742" cy="73.2958" rx="6.28218" ry="6.28218" fill="#00C7BE"/>
<path d="M58.5742 82.5215C61.8992 82.5215 64.5947 85.217 64.5947 88.542C64.5947 91.8669 61.8992 94.5625 58.5742 94.5625C55.2493 94.5625 52.5537 91.867 52.5537 88.542C52.5537 85.217 55.2492 82.5215 58.5742 82.5215Z" stroke="#E6E6E6" stroke-width="0.523515"/>
<path d="M73.8198 6.29395C77.1448 6.29397 79.8403 8.98949 79.8403 12.3145C79.8403 15.6394 77.1448 18.3349 73.8198 18.335C70.4949 18.335 67.7993 15.6394 67.7993 12.3145C67.7993 8.98947 70.4948 6.29395 73.8198 6.29395Z" stroke="#E6E6E6" stroke-width="0.523515"/>
<path d="M73.8198 21.5391C77.1448 21.5391 79.8403 24.2346 79.8403 27.5596C79.8403 30.8845 77.1448 33.5801 73.8198 33.5801C70.4949 33.5801 67.7993 30.8845 67.7993 27.5596C67.7993 24.2346 70.4948 21.5391 73.8198 21.5391Z" stroke="#E6E6E6" stroke-width="0.523515"/>
<path d="M73.8198 36.7852C77.1448 36.7852 79.8403 39.4807 79.8403 42.8057C79.8403 46.1306 77.1448 48.8261 73.8198 48.8262C70.4949 48.8262 67.7993 46.1306 67.7993 42.8057C67.7993 39.4807 70.4948 36.7852 73.8198 36.7852Z" stroke="#E6E6E6" stroke-width="0.523515"/>
<path d="M73.8198 52.0303C77.1448 52.0303 79.8403 54.7258 79.8403 58.0508C79.8403 61.3757 77.1448 64.0713 73.8198 64.0713C70.4949 64.0713 67.7993 61.3757 67.7993 58.0508C67.7993 54.7258 70.4948 52.0303 73.8198 52.0303Z" stroke="#E6E6E6" stroke-width="0.523515"/>
<path d="M73.8198 67.2754C77.1448 67.2754 79.8403 69.9709 79.8403 73.2959C79.8403 76.6208 77.1448 79.3164 73.8198 79.3164C70.4949 79.3164 67.7993 76.6209 67.7993 73.2959C67.7993 69.9709 70.4948 67.2754 73.8198 67.2754Z" stroke="#E6E6E6" stroke-width="0.523515"/>
<path d="M73.8198 82.5215C77.1448 82.5215 79.8403 85.217 79.8403 88.542C79.8403 91.8669 77.1448 94.5625 73.8198 94.5625C70.4949 94.5625 67.7993 91.867 67.7993 88.542C67.7993 85.217 70.4948 82.5215 73.8198 82.5215Z" stroke="#E6E6E6" stroke-width="0.523515"/>
<path d="M89.0654 6.29395C92.3904 6.29397 95.0859 8.98949 95.0859 12.3145C95.0859 15.6394 92.3904 18.3349 89.0654 18.335C85.7405 18.335 83.0449 15.6394 83.0449 12.3145C83.0449 8.98947 85.7404 6.29395 89.0654 6.29395Z" stroke="#E6E6E6" stroke-width="0.523515"/>
<path d="M89.0654 21.5391C92.3904 21.5391 95.0859 24.2346 95.0859 27.5596C95.0859 30.8845 92.3904 33.5801 89.0654 33.5801C85.7405 33.5801 83.0449 30.8845 83.0449 27.5596C83.0449 24.2346 85.7404 21.5391 89.0654 21.5391Z" stroke="#E6E6E6" stroke-width="0.523515"/>
<path d="M89.0654 36.7852C92.3904 36.7852 95.0859 39.4807 95.0859 42.8057C95.0859 46.1306 92.3904 48.8261 89.0654 48.8262C85.7405 48.8262 83.0449 46.1306 83.0449 42.8057C83.0449 39.4807 85.7404 36.7852 89.0654 36.7852Z" stroke="#E6E6E6" stroke-width="0.523515"/>
<path d="M89.0654 52.0303C92.3904 52.0303 95.0859 54.7258 95.0859 58.0508C95.0859 61.3757 92.3904 64.0713 89.0654 64.0713C85.7405 64.0713 83.0449 61.3757 83.0449 58.0508C83.0449 54.7258 85.7404 52.0303 89.0654 52.0303Z" stroke="#E6E6E6" stroke-width="0.523515"/>
<path d="M89.0654 67.2754C92.3904 67.2754 95.0859 69.9709 95.0859 73.2959C95.0859 76.6208 92.3904 79.3164 89.0654 79.3164C85.7405 79.3164 83.0449 76.6209 83.0449 73.2959C83.0449 69.9709 85.7404 67.2754 89.0654 67.2754Z" stroke="#E6E6E6" stroke-width="0.523515"/>
<path d="M89.0654 82.5215C92.3904 82.5215 95.0859 85.217 95.0859 88.542C95.0859 91.8669 92.3904 94.5625 89.0654 94.5625C85.7405 94.5625 83.0449 91.867 83.0449 88.542C83.0449 85.217 85.7404 82.5215 89.0654 82.5215Z" stroke="#E6E6E6" stroke-width="0.523515"/>
</svg>
