<svg width="51" height="50" viewBox="0 0 51 50" fill="none" xmlns="http://www.w3.org/2000/svg">
<path d="M17.6797 19.4334C16.7891 18.828 16.168 17.9412 15.9375 16.9022C15.4023 14.5467 17.0351 12.158 19.582 11.5761C20.207 11.4375 20.8437 11.4238 21.4551 11.5195C22.1582 10.293 23.4902 9.50586 24.9629 9.50586C25.8887 9.50586 26.7676 9.8164 27.4726 10.3731C28.1601 9.83791 29.0156 9.50586 29.959 9.50586C31.7246 9.50586 33.2617 10.6406 33.7969 12.2383C36.2305 12.2519 38.2051 14.2363 38.2051 16.6758C38.2051 18.7129 36.793 20.4609 34.8789 20.957C34.6582 22.9062 32.8574 24.4297 30.6738 24.4297C30.6562 24.4297 29.416 24.3945 28.4062 23.8867C28.1328 24.3867 27.7168 24.8125 27.1738 25.0996C25.9277 25.7578 25.2363 26.5977 25.123 27.6016C25.0781 27.9961 24.7441 28.2949 24.3476 28.2949H21.7011C21.3339 28.2949 21.0156 28.0391 20.9375 27.6816L20.209 24.3574C18.5801 24.0566 17.3437 22.625 17.3437 20.9102C17.3437 20.3809 17.4687 19.8846 17.6797 19.4334ZM20.8086 22.8533C20.8535 22.8513 20.9004 22.8533 20.9472 22.8592C21.2754 22.9002 21.5429 23.1443 21.6132 23.4666L22.3281 26.7342H23.7089C24.0683 25.5135 25.0019 24.4803 26.4433 23.7186C27.1074 23.369 27.2617 22.7283 27.1836 22.2479C27.1484 22.033 26.9707 21.3201 26.1191 21.1776C25.6348 21.0955 25.0683 21.1522 24.4336 21.3397C24.0195 21.4647 23.584 21.2283 23.4609 20.8143C23.3379 20.4002 23.5723 19.9666 23.9863 19.8416C24.8516 19.5838 25.6562 19.5135 26.3769 19.6346C27.6054 19.8416 28.5273 20.7693 28.7265 21.9979C28.7383 22.0721 28.7383 22.1424 28.7441 22.2166C28.9765 22.5682 30.0683 22.869 30.6719 22.869C32.1426 22.869 33.3379 21.8319 33.3379 20.5545C33.3379 20.5487 33.3359 20.5428 33.3359 20.535C33.3203 20.4823 33.2969 20.4315 33.291 20.3729C33.2871 20.3358 33.3027 20.3006 33.3047 20.2635C33.1387 19.1249 32.0293 18.2381 30.6738 18.2381L30.5273 18.242C30.0957 18.2694 29.7304 17.9315 29.709 17.5018C29.6875 17.0701 30.0195 16.7049 30.4492 16.6834C30.5235 16.6795 30.5996 16.6776 30.6738 16.6776C32.5566 16.6776 34.1562 17.8143 34.7012 19.3768C35.8281 18.9861 36.6426 17.9158 36.6426 16.6756C36.6426 15.0897 35.3555 13.7987 33.7734 13.7987C33.2695 13.7987 32.8027 13.9198 32.3848 14.158C32.0098 14.3729 31.5332 14.242 31.3184 13.867C31.1036 13.492 31.2344 13.0155 31.6094 12.8006C31.8047 12.6893 32.0118 12.5995 32.2227 12.5194C31.8379 11.66 30.963 11.0643 29.9591 11.0643C28.5958 11.0643 27.4845 12.1463 27.4845 13.4783C27.4845 13.576 27.4903 13.6717 27.502 13.7654C27.5548 14.1932 27.2501 14.5838 26.8204 14.6346C26.7891 14.6385 26.7559 14.6404 26.7247 14.6404C26.336 14.6404 25.9981 14.3494 25.9512 13.9529C25.9317 13.7967 25.9219 13.6365 25.9219 13.4764C25.9219 12.7752 26.1231 12.1248 26.4493 11.5506C26.0274 11.2381 25.5098 11.0623 24.9649 11.0623C24.1719 11.0623 23.4453 11.4295 22.9883 12.0213C23.1348 12.0994 23.2774 12.1854 23.4141 12.2811C23.7696 12.5252 23.8614 13.0115 23.6172 13.367C23.3731 13.7225 22.8868 13.8143 22.5313 13.5701C21.7949 13.0662 20.8457 12.8943 19.9297 13.0975C18.2266 13.4862 17.1211 15.035 17.4649 16.5565C17.6153 17.2342 18.0469 17.8045 18.6563 18.1893C19.2598 17.6991 20.0176 17.3924 20.8516 17.3924C21.1114 17.3924 21.3594 17.4217 21.6094 17.4822C22.0293 17.5838 22.2871 18.0057 22.1855 18.4236C22.084 18.8436 21.6621 19.1014 21.2441 18.9998C21.1133 18.9685 20.9902 18.9549 20.8516 18.9549C19.7793 18.9549 18.9082 19.8299 18.9082 20.906C18.9063 21.9685 19.7558 22.8319 20.8086 22.8533Z" fill="black"/>
<path d="M26.8681 5.67773C18.8796 5.67773 12.3796 12.1757 12.3796 20.1642V24.4474L9.76628 28.7013C9.63932 28.9064 9.61589 29.1584 9.69987 29.3849C9.78386 29.6096 9.96745 29.7834 10.1979 29.8556L13.9089 31.0197V35.3224C13.9089 37.0177 15.2878 38.3966 16.9831 38.3966H19.5553V43.5391C19.5553 43.9708 19.9049 44.3204 20.3366 44.3204C20.7682 44.3204 21.1178 43.9708 21.1178 43.5391V38.3966H23.1276C24.4459 38.3966 25.692 37.756 26.4577 36.6798L27.5553 35.1388C27.8053 34.7873 27.7233 34.299 27.3717 34.049C27.0202 33.799 26.5319 33.881 26.2819 34.2326L25.1842 35.7736C24.7096 36.4376 23.9401 36.8341 23.1256 36.8341H16.9811C16.1471 36.8341 15.4694 36.1564 15.4694 35.3224V30.4455C15.4694 30.1037 15.2487 29.8029 14.9225 29.6994L11.6217 28.6642L13.8268 25.0763C13.903 24.9533 13.9421 24.8127 13.9421 24.6681V20.1642C13.9421 13.0372 19.7411 7.24023 26.8681 7.24023C33.9951 7.24023 39.7921 13.0392 39.7921 20.1642C39.7921 23.2287 39.003 26.2617 37.5089 28.9357C36.2179 31.2482 35.5343 33.8693 35.5343 36.5177V43.5392C35.5343 43.9709 35.8839 44.3205 36.3155 44.3205C36.7472 44.3205 37.0968 43.9709 37.0968 43.5392V36.5177C37.0968 34.1349 37.7101 31.7775 38.8722 29.6952C40.4952 26.789 41.3526 23.4922 41.3526 20.1622C41.3546 12.1757 34.8566 5.67773 26.8681 5.67773Z" fill="black"/>
</svg>
