<svg width="51" height="50" viewBox="0 0 51 50" fill="none" xmlns="http://www.w3.org/2000/svg">
<path d="M14.6792 19.4334C13.7886 18.828 13.1675 17.9412 12.937 16.9022C12.4018 14.5467 14.0346 12.158 16.5815 11.5761C17.2065 11.4375 17.8432 11.4238 18.4546 11.5195C19.1577 10.293 20.4897 9.50586 21.9624 9.50586C22.8882 9.50586 23.7671 9.8164 24.4721 10.3731C25.1596 9.83791 26.0151 9.50586 26.9585 9.50586C28.7241 9.50586 30.2612 10.6406 30.7964 12.2383C33.23 12.2519 35.2046 14.2363 35.2046 16.6758C35.2046 18.7129 33.7925 20.4609 31.8784 20.957C31.6577 22.9062 29.8569 24.4297 27.6733 24.4297C27.6558 24.4297 26.4155 24.3945 25.4057 23.8867C25.1323 24.3867 24.7163 24.8125 24.1733 25.0996C22.9272 25.7578 22.2358 26.5977 22.1225 27.6016C22.0776 27.9961 21.7436 28.2949 21.3471 28.2949H18.7006C18.3335 28.2949 18.0151 28.0391 17.937 27.6816L17.2085 24.3574C15.5796 24.0566 14.3432 22.625 14.3432 20.9102C14.3432 20.3809 14.4682 19.8846 14.6792 19.4334ZM17.8081 22.8533C17.853 22.8513 17.8999 22.8533 17.9468 22.8592C18.2749 22.9002 18.5425 23.1443 18.6128 23.4666L19.3276 26.7342H20.7085C21.0678 25.5135 22.0014 24.4803 23.4429 23.7186C24.1069 23.369 24.2612 22.7283 24.1831 22.2479C24.148 22.033 23.9702 21.3201 23.1187 21.1776C22.6343 21.0955 22.0679 21.1522 21.4331 21.3397C21.019 21.4647 20.5835 21.2283 20.4605 20.8143C20.3374 20.4002 20.5718 19.9666 20.9859 19.8416C21.8511 19.5838 22.6558 19.5135 23.3765 19.6346C24.605 19.8416 25.5269 20.7693 25.7261 21.9979C25.7378 22.0721 25.7378 22.1424 25.7436 22.2166C25.9761 22.5682 27.0678 22.869 27.6714 22.869C29.1421 22.869 30.3374 21.8319 30.3374 20.5545C30.3374 20.5487 30.3354 20.5428 30.3354 20.535C30.3198 20.4823 30.2964 20.4315 30.2905 20.3729C30.2866 20.3358 30.3022 20.3006 30.3042 20.2635C30.1382 19.1249 29.0288 18.2381 27.6733 18.2381L27.5268 18.242C27.0952 18.2694 26.7299 17.9315 26.7085 17.5018C26.687 17.0701 27.019 16.7049 27.4487 16.6834C27.523 16.6795 27.5991 16.6776 27.6734 16.6776C29.5562 16.6776 31.1558 17.8143 31.7007 19.3768C32.8277 18.9861 33.6421 17.9158 33.6421 16.6756C33.6421 15.0897 32.355 13.7987 30.773 13.7987C30.2691 13.7987 29.8023 13.9198 29.3843 14.158C29.0093 14.3729 28.5328 14.242 28.3179 13.867C28.1031 13.492 28.2339 13.0155 28.6089 12.8006C28.8042 12.6893 29.0113 12.5995 29.2222 12.5194C28.8375 11.66 27.9625 11.0643 26.9586 11.0643C25.5953 11.0643 24.484 12.1463 24.484 13.4783C24.484 13.576 24.4898 13.6717 24.5016 13.7654C24.5543 14.1932 24.2496 14.5838 23.8199 14.6346C23.7887 14.6385 23.7554 14.6404 23.7242 14.6404C23.3355 14.6404 22.9976 14.3494 22.9507 13.9529C22.9312 13.7967 22.9214 13.6365 22.9214 13.4764C22.9214 12.7752 23.1226 12.1248 23.4488 11.5506C23.0269 11.2381 22.5093 11.0623 21.9644 11.0623C21.1714 11.0623 20.4448 11.4295 19.9878 12.0213C20.1343 12.0994 20.2769 12.1854 20.4136 12.2811C20.7691 12.5252 20.8609 13.0115 20.6168 13.367C20.3726 13.7225 19.8863 13.8143 19.5308 13.5701C18.7945 13.0662 17.8453 12.8943 16.9293 13.0975C15.2262 13.4862 14.1207 15.035 14.4644 16.5565C14.6148 17.2342 15.0465 17.8045 15.6558 18.1893C16.2593 17.6991 17.0172 17.3924 17.8511 17.3924C18.1109 17.3924 18.3589 17.4217 18.6089 17.4822C19.0288 17.5838 19.2867 18.0057 19.1851 18.4236C19.0835 18.8436 18.6616 19.1014 18.2437 18.9998C18.1128 18.9685 17.9898 18.9549 17.8511 18.9549C16.7788 18.9549 15.9077 19.8299 15.9077 20.906C15.9058 21.9685 16.7553 22.8319 17.8081 22.8533Z" fill="black"/>
<path d="M24.1348 5.67774C32.1234 5.67774 38.6234 12.1757 38.6234 20.1642V24.4474L41.2367 28.7013C41.3636 28.9064 41.387 29.1584 41.3031 29.3849C41.2191 29.6096 41.0355 29.7834 40.805 29.8556L37.0941 31.0197V35.3224C37.0941 37.0177 35.7152 38.3966 34.0199 38.3966H31.4476V43.5391C31.4476 43.9708 31.098 44.3204 30.6664 44.3204C30.2347 44.3204 29.8851 43.9708 29.8851 43.5391V38.3966H27.8754C26.557 38.3966 25.3109 37.756 24.5453 36.6798L23.4476 35.1388C23.1976 34.7873 23.2796 34.299 23.6312 34.049C23.9828 33.799 24.4711 33.881 24.7211 34.2326L25.8187 35.7736C26.2933 36.4376 27.0629 36.8341 27.8773 36.8341H34.0218C34.8558 36.8341 35.5335 36.1564 35.5335 35.3224V30.4455C35.5335 30.1037 35.7542 29.8029 36.0804 29.6994L39.3812 28.6642L37.1761 25.0763C37.0999 24.9533 37.0609 24.8127 37.0609 24.6681V20.1642C37.0609 13.0372 31.2619 7.24023 24.1349 7.24023C17.0079 7.24023 11.2109 13.0392 11.2109 20.1642C11.2109 23.2287 11.9999 26.2617 13.4941 28.9357C14.7851 31.2482 15.4687 33.8693 15.4687 36.5177V43.5392C15.4687 43.9709 15.1191 44.3205 14.6874 44.3205C14.2558 44.3205 13.9062 43.9709 13.9062 43.5392V36.5177C13.9062 34.1349 13.2929 31.7775 12.1308 29.6952C10.5077 26.789 9.65032 23.4922 9.65032 20.1622C9.64837 12.1757 16.1463 5.67774 24.1348 5.67774Z" fill="black"/>
</svg>
