<svg width="31" height="31" viewBox="0 0 31 31" fill="none" xmlns="http://www.w3.org/2000/svg">
<path d="M15.0386 0.539062C6.75032 0.539062 0.0385742 7.25081 0.0385742 15.5391C0.0385742 23.8273 6.75032 30.5391 15.0386 30.5391C23.3268 30.5391 30.0386 23.8273 30.0386 15.5391C30.0386 7.25081 23.3268 0.539062 15.0386 0.539062ZM23.6253 12.2023L14.2886 21.5391C13.9517 21.876 13.4639 22.1016 12.9761 22.1016C12.4883 22.1016 12.0005 21.876 11.6636 21.5391L6.45182 16.3273C5.70182 15.5773 5.70182 14.4142 6.45182 13.6642C7.20182 12.9142 8.36493 12.9142 9.11493 13.6642L12.9778 17.5271L20.9642 9.53921C21.7142 8.78921 22.8773 8.78921 23.6273 9.53921C24.3758 10.2892 24.3758 11.4889 23.6258 12.2023H23.6253Z" fill="#00C7BE"/>
</svg>
