<svg width="37" height="41" viewBox="0 0 37 41" fill="none" xmlns="http://www.w3.org/2000/svg">
<path d="M1.26089 24.9191L3.55674 19.8756V16.0469C3.55674 7.63506 10.3998 0.791992 18.8116 0.791992H21.2255C29.3036 0.791992 35.8765 7.36484 35.8765 15.4429C35.8765 20.6778 33.0657 25.5278 28.5319 28.1419L28.5576 40.2063L27.6338 40.208L27.6269 36.6582H24.2567C24.06 37.2826 23.4749 37.7376 22.7855 37.7376C21.9352 37.7376 21.2441 37.0465 21.2441 36.1962C21.2441 35.346 21.9352 34.6549 22.7855 34.6549C23.4749 34.6549 24.06 35.1099 24.2567 35.7343H27.6252L27.6184 32.6464H24.2567C24.06 33.2725 23.4749 33.7259 22.7854 33.7259C21.9352 33.7259 21.2441 33.0347 21.2441 32.1845C21.2441 31.3342 21.9352 30.6431 22.7854 30.6431C23.4749 30.6431 24.06 31.0982 24.2567 31.7226H27.6167L27.6098 28.2822H20.486C18.7342 28.2822 17.1569 29.3223 16.4674 30.9322L15.0646 34.2083C14.8217 34.7729 14.4658 35.2656 14.0279 35.6608V40.2063H13.1041V36.2904C12.5361 36.5761 11.8997 36.7351 11.2359 36.7351H6.53489C4.89256 36.7351 3.55644 35.399 3.55644 33.7584C3.55644 33.2058 3.55815 30.638 3.55815 27.0778L2.65145 27.0761C2.12967 27.0761 1.65063 26.8144 1.36837 26.3747C1.08609 25.9367 1.04533 25.393 1.26089 24.9191ZM22.7856 35.5789C22.4451 35.5789 22.168 35.8561 22.168 36.1965C22.168 36.537 22.4451 36.8142 22.7856 36.8142C23.126 36.8142 23.4032 36.537 23.4032 36.1965C23.4032 35.8561 23.126 35.5789 22.7856 35.5789ZM22.7856 31.5672C22.4451 31.5672 22.168 31.8443 22.168 32.1848C22.168 32.5252 22.4451 32.8024 22.7856 32.8024C23.126 32.8024 23.4032 32.5252 23.4032 32.1848C23.4032 31.8443 23.126 31.5672 22.7856 31.5672ZM2.14337 25.8772C2.25628 26.0535 2.44104 26.1544 2.64973 26.1544L4.48026 26.1561V26.618V29.5674H6.08839V30.4912H4.48026C4.48026 32.2276 4.48026 33.4063 4.47855 33.7605C4.47855 34.893 5.40066 35.8134 6.53317 35.8134H11.2342C12.5327 35.8134 13.7028 35.0418 14.2144 33.8477L15.6172 30.5716C16.452 28.6213 18.3629 27.3605 20.4842 27.3605H28.0424C32.3074 24.9141 34.9521 20.3602 34.9521 15.4433C34.9521 7.87493 28.7935 1.71596 21.2248 1.71596H18.8109C10.9088 1.71596 4.47964 8.14515 4.47964 16.0472V20.076L2.10167 25.3026C2.01442 25.4908 2.02982 25.7012 2.14273 25.8774L2.14337 25.8772ZM15.773 3.93652C16.7618 3.68845 17.7831 3.56357 18.8113 3.56357V2.63975C17.7079 2.63975 16.6096 2.7749 15.5489 3.04178L15.773 3.93652ZM29.3225 24.1337L29.9538 24.8095C32.5439 22.3905 34.0288 18.9777 34.0288 15.4429H33.105C33.105 18.7225 31.7261 21.8892 29.3225 24.1337ZM7.31169 9.1609L8.10378 9.63647C9.56134 7.21059 11.8196 5.33049 14.4612 4.34509L14.1378 3.47942C11.3013 4.5384 8.87695 6.55523 7.31169 9.1609ZM11.1027 17.5298H7.40064V20.0326L10.1054 18.4553L10.0968 18.4536H11.1045L11.1027 17.5298ZM22.7721 7.6552C26.8129 7.6552 30.0991 10.9416 30.0991 14.9822C30.0991 19.0231 26.8127 22.3092 22.7721 22.3092C18.7312 22.3092 15.4451 19.0228 15.4451 14.9822C15.4451 10.9414 18.7332 7.6552 22.7721 7.6552ZM23.2476 8.59782V11.3966C24.866 11.6105 26.1508 12.8987 26.3578 14.5188H29.1566C28.9308 11.3607 26.4039 8.83081 23.2476 8.59782ZM23.2476 21.3651C26.404 21.1325 28.931 18.6022 29.1566 15.4426H26.3577C26.1507 17.0627 24.866 18.3509 23.2476 18.5648L23.2493 21.3653L23.2476 21.3651ZM25.4648 14.9806C25.4648 13.4957 24.257 12.2879 22.7721 12.2879C21.2871 12.2879 20.0793 13.4957 20.0793 14.9806C20.0793 16.4655 21.2871 17.6733 22.7721 17.6733C24.257 17.675 25.4648 16.4655 25.4648 14.9806ZM22.3238 21.3669V18.5681C20.6917 18.3645 19.395 17.0728 19.1863 15.4425H16.3875C16.615 18.6109 19.1536 21.1461 22.3238 21.3669ZM19.1863 14.5185C19.395 12.8882 20.6917 11.5948 22.3238 11.393V8.59589C19.1538 8.81658 16.6151 11.3519 16.3873 14.5201L19.1863 14.5185Z" fill="black" stroke="black" stroke-width="0.5"/>
</svg>
