<svg width="102" height="101" viewBox="0 0 102 101" fill="none" xmlns="http://www.w3.org/2000/svg">
<rect x="2.94873" y="2" width="96.5386" height="96.5386" rx="6.04309" stroke="black" stroke-width="4"/>
<path d="M12.9282 6.29395C16.2532 6.29397 18.9487 8.98949 18.9487 12.3145C18.9487 15.6394 16.2532 18.3349 12.9282 18.335C9.60325 18.335 6.90774 15.6394 6.90771 12.3145C6.90771 8.98947 9.60324 6.29395 12.9282 6.29395Z" stroke="#E6E6E6" stroke-width="0.523515"/>
<path d="M12.9282 21.5391C16.2532 21.5391 18.9487 24.2346 18.9487 27.5596C18.9487 30.8845 16.2532 33.5801 12.9282 33.5801C9.60325 33.5801 6.90774 30.8845 6.90771 27.5596C6.90771 24.2346 9.60324 21.5391 12.9282 21.5391Z" stroke="#E6E6E6" stroke-width="0.523515"/>
<path d="M12.9282 36.7852C16.2532 36.7852 18.9487 39.4807 18.9487 42.8057C18.9487 46.1306 16.2532 48.8261 12.9282 48.8262C9.60325 48.8262 6.90774 46.1306 6.90771 42.8057C6.90771 39.4807 9.60324 36.7852 12.9282 36.7852Z" stroke="#E6E6E6" stroke-width="0.523515"/>
<ellipse cx="12.9282" cy="58.0507" rx="6.28218" ry="6.28218" fill="#00C7BE"/>
<path d="M12.9282 67.2754C16.2532 67.2754 18.9487 69.9709 18.9487 73.2959C18.9487 76.6208 16.2532 79.3164 12.9282 79.3164C9.60325 79.3164 6.90774 76.6209 6.90771 73.2959C6.90771 69.9709 9.60324 67.2754 12.9282 67.2754Z" stroke="#E6E6E6" stroke-width="0.523515"/>
<path d="M12.9282 82.5215C16.2532 82.5215 18.9487 85.217 18.9487 88.542C18.9487 91.8669 16.2532 94.5625 12.9282 94.5625C9.60325 94.5625 6.90774 91.867 6.90771 88.542C6.90771 85.217 9.60324 82.5215 12.9282 82.5215Z" stroke="#E6E6E6" stroke-width="0.523515"/>
<path d="M28.1733 6.29395C31.4983 6.29397 34.1938 8.98949 34.1938 12.3145C34.1938 15.6394 31.4983 18.3349 28.1733 18.335C24.8484 18.335 22.1529 15.6394 22.1528 12.3145C22.1528 8.98947 24.8484 6.29395 28.1733 6.29395Z" stroke="#E6E6E6" stroke-width="0.523515"/>
<path d="M28.1733 21.5391C31.4983 21.5391 34.1938 24.2346 34.1938 27.5596C34.1938 30.8845 31.4983 33.5801 28.1733 33.5801C24.8484 33.5801 22.1529 30.8845 22.1528 27.5596C22.1528 24.2346 24.8484 21.5391 28.1733 21.5391Z" stroke="#E6E6E6" stroke-width="0.523515"/>
<ellipse cx="28.1733" cy="42.8056" rx="6.28218" ry="6.28218" fill="#00C7BE"/>
<path d="M28.1733 52.0303C31.4983 52.0303 34.1938 54.7258 34.1938 58.0508C34.1938 61.3757 31.4983 64.0713 28.1733 64.0713C24.8484 64.0713 22.1529 61.3757 22.1528 58.0508C22.1528 54.7258 24.8484 52.0303 28.1733 52.0303Z" stroke="#E6E6E6" stroke-width="0.523515"/>
<path d="M28.1733 67.2754C31.4983 67.2754 34.1938 69.9709 34.1938 73.2959C34.1938 76.6208 31.4983 79.3164 28.1733 79.3164C24.8484 79.3164 22.1529 76.6209 22.1528 73.2959C22.1528 69.9709 24.8484 67.2754 28.1733 67.2754Z" stroke="#E6E6E6" stroke-width="0.523515"/>
<path d="M28.1733 82.5215C31.4983 82.5215 34.1938 85.217 34.1938 88.542C34.1938 91.8669 31.4983 94.5625 28.1733 94.5625C24.8484 94.5625 22.1529 91.867 22.1528 88.542C22.1528 85.217 24.8484 82.5215 28.1733 82.5215Z" stroke="#E6E6E6" stroke-width="0.523515"/>
<path d="M43.4189 6.29395C46.7439 6.29397 49.4395 8.98949 49.4395 12.3145C49.4394 15.6394 46.7439 18.3349 43.4189 18.335C40.094 18.335 37.3985 15.6394 37.3984 12.3145C37.3984 8.98947 40.094 6.29395 43.4189 6.29395Z" stroke="#E6E6E6" stroke-width="0.523515"/>
<path d="M43.4189 21.5391C46.7439 21.5391 49.4395 24.2346 49.4395 27.5596C49.4394 30.8845 46.7439 33.5801 43.4189 33.5801C40.094 33.5801 37.3985 30.8845 37.3984 27.5596C37.3984 24.2346 40.094 21.5391 43.4189 21.5391Z" stroke="#E6E6E6" stroke-width="0.523515"/>
<path d="M43.4189 36.7852C46.7439 36.7852 49.4395 39.4807 49.4395 42.8057C49.4394 46.1306 46.7439 48.8261 43.4189 48.8262C40.094 48.8262 37.3985 46.1306 37.3984 42.8057C37.3984 39.4807 40.094 36.7852 43.4189 36.7852Z" stroke="#E6E6E6" stroke-width="0.523515"/>
<path d="M43.4189 52.0303C46.7439 52.0303 49.4395 54.7258 49.4395 58.0508C49.4394 61.3757 46.7439 64.0713 43.4189 64.0713C40.094 64.0713 37.3985 61.3757 37.3984 58.0508C37.3984 54.7258 40.094 52.0303 43.4189 52.0303Z" stroke="#E6E6E6" stroke-width="0.523515"/>
<path d="M43.4189 67.2754C46.7439 67.2754 49.4395 69.9709 49.4395 73.2959C49.4394 76.6208 46.7439 79.3164 43.4189 79.3164C40.094 79.3164 37.3985 76.6209 37.3984 73.2959C37.3984 69.9709 40.094 67.2754 43.4189 67.2754Z" stroke="#E6E6E6" stroke-width="0.523515"/>
<path d="M43.4189 82.5215C46.7439 82.5215 49.4395 85.217 49.4395 88.542C49.4394 91.8669 46.7439 94.5625 43.4189 94.5625C40.094 94.5625 37.3985 91.867 37.3984 88.542C37.3984 85.217 40.094 82.5215 43.4189 82.5215Z" stroke="#E6E6E6" stroke-width="0.523515"/>
<ellipse cx="58.664" cy="12.3144" rx="6.28218" ry="6.28218" fill="#00C7BE"/>
<path d="M58.6641 21.5391C61.989 21.5391 64.6846 24.2346 64.6846 27.5596C64.6845 30.8845 61.989 33.5801 58.6641 33.5801C55.3391 33.5801 52.6436 30.8845 52.6436 27.5596C52.6436 24.2346 55.3391 21.5391 58.6641 21.5391Z" stroke="#E6E6E6" stroke-width="0.523515"/>
<path d="M58.6641 36.7852C61.989 36.7852 64.6846 39.4807 64.6846 42.8057C64.6845 46.1306 61.989 48.8261 58.6641 48.8262C55.3391 48.8262 52.6436 46.1306 52.6436 42.8057C52.6436 39.4807 55.3391 36.7852 58.6641 36.7852Z" stroke="#E6E6E6" stroke-width="0.523515"/>
<path d="M58.6641 52.0303C61.989 52.0303 64.6846 54.7258 64.6846 58.0508C64.6845 61.3757 61.989 64.0713 58.6641 64.0713C55.3391 64.0713 52.6436 61.3757 52.6436 58.0508C52.6436 54.7258 55.3391 52.0303 58.6641 52.0303Z" stroke="#E6E6E6" stroke-width="0.523515"/>
<path d="M58.6641 67.2754C61.989 67.2754 64.6846 69.9709 64.6846 73.2959C64.6845 76.6208 61.989 79.3164 58.6641 79.3164C55.3391 79.3164 52.6436 76.6209 52.6436 73.2959C52.6436 69.9709 55.3391 67.2754 58.6641 67.2754Z" stroke="#E6E6E6" stroke-width="0.523515"/>
<path d="M58.6641 82.5215C61.989 82.5215 64.6846 85.217 64.6846 88.542C64.6845 91.8669 61.989 94.5625 58.6641 94.5625C55.3391 94.5625 52.6436 91.867 52.6436 88.542C52.6436 85.217 55.3391 82.5215 58.6641 82.5215Z" stroke="#E6E6E6" stroke-width="0.523515"/>
<path d="M73.9097 6.29395C77.2346 6.29397 79.9302 8.98949 79.9302 12.3145C79.9301 15.6394 77.2346 18.3349 73.9097 18.335C70.5847 18.335 67.8892 15.6394 67.8892 12.3145C67.8892 8.98947 70.5847 6.29395 73.9097 6.29395Z" stroke="#E6E6E6" stroke-width="0.523515"/>
<path d="M73.9097 21.5391C77.2346 21.5391 79.9302 24.2346 79.9302 27.5596C79.9301 30.8845 77.2346 33.5801 73.9097 33.5801C70.5847 33.5801 67.8892 30.8845 67.8892 27.5596C67.8892 24.2346 70.5847 21.5391 73.9097 21.5391Z" stroke="#E6E6E6" stroke-width="0.523515"/>
<path d="M73.9097 36.7852C77.2346 36.7852 79.9302 39.4807 79.9302 42.8057C79.9301 46.1306 77.2346 48.8261 73.9097 48.8262C70.5847 48.8262 67.8892 46.1306 67.8892 42.8057C67.8892 39.4807 70.5847 36.7852 73.9097 36.7852Z" stroke="#E6E6E6" stroke-width="0.523515"/>
<path d="M73.9097 52.0303C77.2346 52.0303 79.9302 54.7258 79.9302 58.0508C79.9301 61.3757 77.2346 64.0713 73.9097 64.0713C70.5847 64.0713 67.8892 61.3757 67.8892 58.0508C67.8892 54.7258 70.5847 52.0303 73.9097 52.0303Z" stroke="#E6E6E6" stroke-width="0.523515"/>
<path d="M73.9097 67.2754C77.2346 67.2754 79.9302 69.9709 79.9302 73.2959C79.9301 76.6208 77.2346 79.3164 73.9097 79.3164C70.5847 79.3164 67.8892 76.6209 67.8892 73.2959C67.8892 69.9709 70.5847 67.2754 73.9097 67.2754Z" stroke="#E6E6E6" stroke-width="0.523515"/>
<ellipse cx="73.9096" cy="88.5419" rx="6.28218" ry="6.28218" fill="#00C7BE"/>
<path d="M89.1553 6.29395C92.4802 6.29397 95.1758 8.98949 95.1758 12.3145C95.1758 15.6394 92.4802 18.3349 89.1553 18.335C85.8303 18.335 83.1348 15.6394 83.1348 12.3145C83.1348 8.98947 85.8303 6.29395 89.1553 6.29395Z" stroke="#E6E6E6" stroke-width="0.523515"/>
<path d="M89.1553 21.5391C92.4802 21.5391 95.1758 24.2346 95.1758 27.5596C95.1758 30.8845 92.4802 33.5801 89.1553 33.5801C85.8303 33.5801 83.1348 30.8845 83.1348 27.5596C83.1348 24.2346 85.8303 21.5391 89.1553 21.5391Z" stroke="#E6E6E6" stroke-width="0.523515"/>
<path d="M89.1553 36.7852C92.4802 36.7852 95.1758 39.4807 95.1758 42.8057C95.1758 46.1306 92.4802 48.8261 89.1553 48.8262C85.8303 48.8262 83.1348 46.1306 83.1348 42.8057C83.1348 39.4807 85.8303 36.7852 89.1553 36.7852Z" stroke="#E6E6E6" stroke-width="0.523515"/>
<path d="M89.1553 52.0303C92.4802 52.0303 95.1758 54.7258 95.1758 58.0508C95.1758 61.3757 92.4802 64.0713 89.1553 64.0713C85.8303 64.0713 83.1348 61.3757 83.1348 58.0508C83.1348 54.7258 85.8303 52.0303 89.1553 52.0303Z" stroke="#E6E6E6" stroke-width="0.523515"/>
<ellipse cx="89.1552" cy="73.2958" rx="6.28218" ry="6.28218" fill="#00C7BE"/>
<path d="M89.1553 82.5215C92.4802 82.5215 95.1758 85.217 95.1758 88.542C95.1758 91.8669 92.4802 94.5625 89.1553 94.5625C85.8303 94.5625 83.1348 91.867 83.1348 88.542C83.1348 85.217 85.8303 82.5215 89.1553 82.5215Z" stroke="#E6E6E6" stroke-width="0.523515"/>
</svg>
