<svg width="102" height="101" viewBox="0 0 102 101" fill="none" xmlns="http://www.w3.org/2000/svg">
<rect x="2.87158" y="2" width="96.5386" height="96.5386" rx="6.04309" stroke="black" stroke-width="4"/>
<path d="M12.8511 6.29395C16.176 6.29397 18.8716 8.98949 18.8716 12.3145C18.8716 15.6394 16.176 18.3349 12.8511 18.335C9.52611 18.335 6.83059 15.6394 6.83057 12.3145C6.83057 8.98947 9.52609 6.29395 12.8511 6.29395Z" stroke="#E6E6E6" stroke-width="0.523515"/>
<path d="M12.8511 21.5391C16.176 21.5391 18.8716 24.2346 18.8716 27.5596C18.8716 30.8845 16.176 33.5801 12.8511 33.5801C9.52611 33.5801 6.83059 30.8845 6.83057 27.5596C6.83057 24.2346 9.52609 21.5391 12.8511 21.5391Z" stroke="#E6E6E6" stroke-width="0.523515"/>
<path d="M12.8511 36.7852C16.176 36.7852 18.8716 39.4807 18.8716 42.8057C18.8716 46.1306 16.176 48.8261 12.8511 48.8262C9.52611 48.8262 6.83059 46.1306 6.83057 42.8057C6.83057 39.4807 9.52609 36.7852 12.8511 36.7852Z" stroke="#E6E6E6" stroke-width="0.523515"/>
<path d="M12.8511 52.0303C16.176 52.0303 18.8716 54.7258 18.8716 58.0508C18.8716 61.3757 16.176 64.0713 12.8511 64.0713C9.52611 64.0713 6.83059 61.3757 6.83057 58.0508C6.83057 54.7258 9.52609 52.0303 12.8511 52.0303Z" stroke="#E6E6E6" stroke-width="0.523515"/>
<ellipse cx="12.851" cy="73.2958" rx="6.28218" ry="6.28218" fill="#00C7BE"/>
<path d="M12.8511 82.5215C16.176 82.5215 18.8716 85.217 18.8716 88.542C18.8716 91.8669 16.176 94.5625 12.8511 94.5625C9.52611 94.5625 6.83059 91.867 6.83057 88.542C6.83057 85.217 9.52609 82.5215 12.8511 82.5215Z" stroke="#E6E6E6" stroke-width="0.523515"/>
<path d="M28.0962 6.29395C31.4212 6.29397 34.1167 8.98949 34.1167 12.3145C34.1167 15.6394 31.4211 18.3349 28.0962 18.335C24.7712 18.335 22.0757 15.6394 22.0757 12.3145C22.0757 8.98947 24.7712 6.29395 28.0962 6.29395Z" stroke="#E6E6E6" stroke-width="0.523515"/>
<path d="M28.0962 21.5391C31.4212 21.5391 34.1167 24.2346 34.1167 27.5596C34.1167 30.8845 31.4211 33.5801 28.0962 33.5801C24.7712 33.5801 22.0757 30.8845 22.0757 27.5596C22.0757 24.2346 24.7712 21.5391 28.0962 21.5391Z" stroke="#E6E6E6" stroke-width="0.523515"/>
<path d="M28.0962 36.7852C31.4212 36.7852 34.1167 39.4807 34.1167 42.8057C34.1167 46.1306 31.4211 48.8261 28.0962 48.8262C24.7712 48.8262 22.0757 46.1306 22.0757 42.8057C22.0757 39.4807 24.7712 36.7852 28.0962 36.7852Z" stroke="#E6E6E6" stroke-width="0.523515"/>
<path d="M28.0962 52.0303C31.4212 52.0303 34.1167 54.7258 34.1167 58.0508C34.1167 61.3757 31.4211 64.0713 28.0962 64.0713C24.7712 64.0713 22.0757 61.3757 22.0757 58.0508C22.0757 54.7258 24.7712 52.0303 28.0962 52.0303Z" stroke="#E6E6E6" stroke-width="0.523515"/>
<path d="M28.0962 67.2754C31.4212 67.2754 34.1167 69.9709 34.1167 73.2959C34.1167 76.6208 31.4211 79.3164 28.0962 79.3164C24.7712 79.3164 22.0757 76.6209 22.0757 73.2959C22.0757 69.9709 24.7712 67.2754 28.0962 67.2754Z" stroke="#E6E6E6" stroke-width="0.523515"/>
<ellipse cx="28.0961" cy="88.5419" rx="6.28218" ry="6.28218" fill="#00C7BE"/>
<path d="M43.3418 6.29395C46.6668 6.29397 49.3623 8.98949 49.3623 12.3145C49.3623 15.6394 46.6667 18.3349 43.3418 18.335C40.0168 18.335 37.3213 15.6394 37.3213 12.3145C37.3213 8.98947 40.0168 6.29395 43.3418 6.29395Z" stroke="#E6E6E6" stroke-width="0.523515"/>
<path d="M43.3418 21.5391C46.6668 21.5391 49.3623 24.2346 49.3623 27.5596C49.3623 30.8845 46.6667 33.5801 43.3418 33.5801C40.0168 33.5801 37.3213 30.8845 37.3213 27.5596C37.3213 24.2346 40.0168 21.5391 43.3418 21.5391Z" stroke="#E6E6E6" stroke-width="0.523515"/>
<path d="M43.3418 36.7852C46.6668 36.7852 49.3623 39.4807 49.3623 42.8057C49.3623 46.1306 46.6667 48.8261 43.3418 48.8262C40.0168 48.8262 37.3213 46.1306 37.3213 42.8057C37.3213 39.4807 40.0168 36.7852 43.3418 36.7852Z" stroke="#E6E6E6" stroke-width="0.523515"/>
<path d="M43.3418 52.0303C46.6668 52.0303 49.3623 54.7258 49.3623 58.0508C49.3623 61.3757 46.6667 64.0713 43.3418 64.0713C40.0168 64.0713 37.3213 61.3757 37.3213 58.0508C37.3213 54.7258 40.0168 52.0303 43.3418 52.0303Z" stroke="#E6E6E6" stroke-width="0.523515"/>
<path d="M43.3418 67.2754C46.6668 67.2754 49.3623 69.9709 49.3623 73.2959C49.3623 76.6208 46.6667 79.3164 43.3418 79.3164C40.0168 79.3164 37.3213 76.6209 37.3213 73.2959C37.3213 69.9709 40.0168 67.2754 43.3418 67.2754Z" stroke="#E6E6E6" stroke-width="0.523515"/>
<path d="M43.3418 82.5215C46.6668 82.5215 49.3623 85.217 49.3623 88.542C49.3623 91.8669 46.6667 94.5625 43.3418 94.5625C40.0168 94.5625 37.3213 91.867 37.3213 88.542C37.3213 85.217 40.0168 82.5215 43.3418 82.5215Z" stroke="#E6E6E6" stroke-width="0.523515"/>
<path d="M58.5869 6.29395C61.9119 6.29397 64.6074 8.98949 64.6074 12.3145C64.6074 15.6394 61.9119 18.3349 58.5869 18.335C55.2619 18.335 52.5664 15.6394 52.5664 12.3145C52.5664 8.98947 55.2619 6.29395 58.5869 6.29395Z" stroke="#E6E6E6" stroke-width="0.523515"/>
<ellipse cx="58.5869" cy="27.5595" rx="6.28218" ry="6.28218" fill="#00C7BE"/>
<path d="M58.5869 36.7852C61.9119 36.7852 64.6074 39.4807 64.6074 42.8057C64.6074 46.1306 61.9119 48.8261 58.5869 48.8262C55.2619 48.8262 52.5664 46.1306 52.5664 42.8057C52.5664 39.4807 55.2619 36.7852 58.5869 36.7852Z" stroke="#E6E6E6" stroke-width="0.523515"/>
<path d="M58.5869 52.0303C61.9119 52.0303 64.6074 54.7258 64.6074 58.0508C64.6074 61.3757 61.9119 64.0713 58.5869 64.0713C55.2619 64.0713 52.5664 61.3757 52.5664 58.0508C52.5664 54.7258 55.2619 52.0303 58.5869 52.0303Z" stroke="#E6E6E6" stroke-width="0.523515"/>
<path d="M58.5869 67.2754C61.9119 67.2754 64.6074 69.9709 64.6074 73.2959C64.6074 76.6208 61.9119 79.3164 58.5869 79.3164C55.2619 79.3164 52.5664 76.6209 52.5664 73.2959C52.5664 69.9709 55.2619 67.2754 58.5869 67.2754Z" stroke="#E6E6E6" stroke-width="0.523515"/>
<path d="M58.5869 82.5215C61.9119 82.5215 64.6074 85.217 64.6074 88.542C64.6074 91.8669 61.9119 94.5625 58.5869 94.5625C55.2619 94.5625 52.5664 91.867 52.5664 88.542C52.5664 85.217 55.2619 82.5215 58.5869 82.5215Z" stroke="#E6E6E6" stroke-width="0.523515"/>
<path d="M73.8325 6.29395C77.1575 6.29397 79.853 8.98949 79.853 12.3145C79.853 15.6394 77.1575 18.3349 73.8325 18.335C70.5076 18.335 67.812 15.6394 67.812 12.3145C67.812 8.98947 70.5075 6.29395 73.8325 6.29395Z" stroke="#E6E6E6" stroke-width="0.523515"/>
<path d="M73.8325 21.5391C77.1575 21.5391 79.853 24.2346 79.853 27.5596C79.853 30.8845 77.1575 33.5801 73.8325 33.5801C70.5076 33.5801 67.812 30.8845 67.812 27.5596C67.812 24.2346 70.5075 21.5391 73.8325 21.5391Z" stroke="#E6E6E6" stroke-width="0.523515"/>
<ellipse cx="73.8325" cy="42.8056" rx="6.28218" ry="6.28218" fill="#00C7BE"/>
<path d="M73.8325 52.0303C77.1575 52.0303 79.853 54.7258 79.853 58.0508C79.853 61.3757 77.1575 64.0713 73.8325 64.0713C70.5076 64.0713 67.812 61.3757 67.812 58.0508C67.812 54.7258 70.5075 52.0303 73.8325 52.0303Z" stroke="#E6E6E6" stroke-width="0.523515"/>
<path d="M73.8325 67.2754C77.1575 67.2754 79.853 69.9709 79.853 73.2959C79.853 76.6208 77.1575 79.3164 73.8325 79.3164C70.5076 79.3164 67.812 76.6209 67.812 73.2959C67.812 69.9709 70.5075 67.2754 73.8325 67.2754Z" stroke="#E6E6E6" stroke-width="0.523515"/>
<path d="M73.8325 82.5215C77.1575 82.5215 79.853 85.217 79.853 88.542C79.853 91.8669 77.1575 94.5625 73.8325 94.5625C70.5076 94.5625 67.812 91.867 67.812 88.542C67.812 85.217 70.5075 82.5215 73.8325 82.5215Z" stroke="#E6E6E6" stroke-width="0.523515"/>
<path d="M89.0781 6.29395C92.4031 6.29397 95.0986 8.98949 95.0986 12.3145C95.0986 15.6394 92.4031 18.3349 89.0781 18.335C85.7532 18.335 83.0576 15.6394 83.0576 12.3145C83.0576 8.98947 85.7531 6.29395 89.0781 6.29395Z" stroke="#E6E6E6" stroke-width="0.523515"/>
<path d="M89.0781 21.5391C92.4031 21.5391 95.0986 24.2346 95.0986 27.5596C95.0986 30.8845 92.4031 33.5801 89.0781 33.5801C85.7532 33.5801 83.0576 30.8845 83.0576 27.5596C83.0576 24.2346 85.7531 21.5391 89.0781 21.5391Z" stroke="#E6E6E6" stroke-width="0.523515"/>
<path d="M89.0781 36.7852C92.4031 36.7852 95.0986 39.4807 95.0986 42.8057C95.0986 46.1306 92.4031 48.8261 89.0781 48.8262C85.7532 48.8262 83.0576 46.1306 83.0576 42.8057C83.0576 39.4807 85.7531 36.7852 89.0781 36.7852Z" stroke="#E6E6E6" stroke-width="0.523515"/>
<ellipse cx="89.0781" cy="58.0507" rx="6.28218" ry="6.28218" fill="#00C7BE"/>
<path d="M89.0781 67.2754C92.4031 67.2754 95.0986 69.9709 95.0986 73.2959C95.0986 76.6208 92.4031 79.3164 89.0781 79.3164C85.7532 79.3164 83.0576 76.6209 83.0576 73.2959C83.0576 69.9709 85.7531 67.2754 89.0781 67.2754Z" stroke="#E6E6E6" stroke-width="0.523515"/>
<path d="M89.0781 82.5215C92.4031 82.5215 95.0986 85.217 95.0986 88.542C95.0986 91.8669 92.4031 94.5625 89.0781 94.5625C85.7532 94.5625 83.0576 91.867 83.0576 88.542C83.0576 85.217 85.7531 82.5215 89.0781 82.5215Z" stroke="#E6E6E6" stroke-width="0.523515"/>
</svg>
