<svg width="101" height="101" viewBox="0 0 101 101" fill="none" xmlns="http://www.w3.org/2000/svg">
<rect x="2.41016" y="2" width="96.5386" height="96.5386" rx="6.04309" stroke="black" stroke-width="4"/>
<ellipse cx="12.3896" cy="12.3144" rx="6.28218" ry="6.28218" fill="#00C7BE"/>
<path d="M12.3896 21.5391C15.7146 21.5391 18.4102 24.2346 18.4102 27.5596C18.4101 30.8845 15.7146 33.5801 12.3896 33.5801C9.06468 33.5801 6.36917 30.8845 6.36914 27.5596C6.36914 24.2346 9.06466 21.5391 12.3896 21.5391Z" stroke="#E6E6E6" stroke-width="0.523515"/>
<path d="M12.3896 36.7852C15.7146 36.7852 18.4102 39.4807 18.4102 42.8057C18.4101 46.1306 15.7146 48.8261 12.3896 48.8262C9.06468 48.8262 6.36917 46.1306 6.36914 42.8057C6.36914 39.4807 9.06466 36.7852 12.3896 36.7852Z" stroke="#E6E6E6" stroke-width="0.523515"/>
<path d="M12.3896 52.0303C15.7146 52.0303 18.4102 54.7258 18.4102 58.0508C18.4101 61.3757 15.7146 64.0713 12.3896 64.0713C9.06468 64.0713 6.36917 61.3757 6.36914 58.0508C6.36914 54.7258 9.06466 52.0303 12.3896 52.0303Z" stroke="#E6E6E6" stroke-width="0.523515"/>
<path d="M12.3896 67.2754C15.7146 67.2754 18.4102 69.9709 18.4102 73.2959C18.4101 76.6208 15.7146 79.3164 12.3896 79.3164C9.06468 79.3164 6.36917 76.6209 6.36914 73.2959C6.36914 69.9709 9.06466 67.2754 12.3896 67.2754Z" stroke="#E6E6E6" stroke-width="0.523515"/>
<path d="M12.3896 82.5215C15.7146 82.5215 18.4102 85.217 18.4102 88.542C18.4101 91.8669 15.7146 94.5625 12.3896 94.5625C9.06468 94.5625 6.36917 91.867 6.36914 88.542C6.36914 85.217 9.06466 82.5215 12.3896 82.5215Z" stroke="#E6E6E6" stroke-width="0.523515"/>
<path d="M27.6348 6.29395C30.9597 6.29397 33.6553 8.98949 33.6553 12.3145C33.6552 15.6394 30.9597 18.3349 27.6348 18.335C24.3098 18.335 21.6143 15.6394 21.6143 12.3145C21.6143 8.98947 24.3098 6.29395 27.6348 6.29395Z" stroke="#E6E6E6" stroke-width="0.523515"/>
<ellipse cx="27.6347" cy="27.5595" rx="6.28218" ry="6.28218" fill="#00C7BE"/>
<path d="M27.6348 36.7852C30.9597 36.7852 33.6553 39.4807 33.6553 42.8057C33.6552 46.1306 30.9597 48.8261 27.6348 48.8262C24.3098 48.8262 21.6143 46.1306 21.6143 42.8057C21.6143 39.4807 24.3098 36.7852 27.6348 36.7852Z" stroke="#E6E6E6" stroke-width="0.523515"/>
<path d="M27.6348 52.0303C30.9597 52.0303 33.6553 54.7258 33.6553 58.0508C33.6552 61.3757 30.9597 64.0713 27.6348 64.0713C24.3098 64.0713 21.6143 61.3757 21.6143 58.0508C21.6143 54.7258 24.3098 52.0303 27.6348 52.0303Z" stroke="#E6E6E6" stroke-width="0.523515"/>
<path d="M27.6348 67.2754C30.9597 67.2754 33.6553 69.9709 33.6553 73.2959C33.6552 76.6208 30.9597 79.3164 27.6348 79.3164C24.3098 79.3164 21.6143 76.6209 21.6143 73.2959C21.6143 69.9709 24.3098 67.2754 27.6348 67.2754Z" stroke="#E6E6E6" stroke-width="0.523515"/>
<path d="M27.6348 82.5215C30.9597 82.5215 33.6553 85.217 33.6553 88.542C33.6552 91.8669 30.9597 94.5625 27.6348 94.5625C24.3098 94.5625 21.6143 91.867 21.6143 88.542C21.6143 85.217 24.3098 82.5215 27.6348 82.5215Z" stroke="#E6E6E6" stroke-width="0.523515"/>
<path d="M42.8804 6.29395C46.2053 6.29397 48.9009 8.98949 48.9009 12.3145C48.9009 15.6394 46.2053 18.3349 42.8804 18.335C39.5554 18.335 36.8599 15.6394 36.8599 12.3145C36.8599 8.98947 39.5554 6.29395 42.8804 6.29395Z" stroke="#E6E6E6" stroke-width="0.523515"/>
<path d="M42.8804 21.5391C46.2053 21.5391 48.9009 24.2346 48.9009 27.5596C48.9009 30.8845 46.2053 33.5801 42.8804 33.5801C39.5554 33.5801 36.8599 30.8845 36.8599 27.5596C36.8599 24.2346 39.5554 21.5391 42.8804 21.5391Z" stroke="#E6E6E6" stroke-width="0.523515"/>
<ellipse cx="42.8803" cy="42.8056" rx="6.28218" ry="6.28218" fill="#00C7BE"/>
<path d="M42.8804 52.0303C46.2053 52.0303 48.9009 54.7258 48.9009 58.0508C48.9009 61.3757 46.2053 64.0713 42.8804 64.0713C39.5554 64.0713 36.8599 61.3757 36.8599 58.0508C36.8599 54.7258 39.5554 52.0303 42.8804 52.0303Z" stroke="#E6E6E6" stroke-width="0.523515"/>
<path d="M42.8804 67.2754C46.2053 67.2754 48.9009 69.9709 48.9009 73.2959C48.9009 76.6208 46.2053 79.3164 42.8804 79.3164C39.5554 79.3164 36.8599 76.6209 36.8599 73.2959C36.8599 69.9709 39.5554 67.2754 42.8804 67.2754Z" stroke="#E6E6E6" stroke-width="0.523515"/>
<path d="M42.8804 82.5215C46.2053 82.5215 48.9009 85.217 48.9009 88.542C48.9009 91.8669 46.2053 94.5625 42.8804 94.5625C39.5554 94.5625 36.8599 91.867 36.8599 88.542C36.8599 85.217 39.5554 82.5215 42.8804 82.5215Z" stroke="#E6E6E6" stroke-width="0.523515"/>
<path d="M58.1255 6.29395C61.4504 6.29397 64.146 8.98949 64.146 12.3145C64.146 15.6394 61.4504 18.3349 58.1255 18.335C54.8005 18.335 52.105 15.6394 52.105 12.3145C52.105 8.98947 54.8005 6.29395 58.1255 6.29395Z" stroke="#E6E6E6" stroke-width="0.523515"/>
<path d="M58.1255 21.5391C61.4504 21.5391 64.146 24.2346 64.146 27.5596C64.146 30.8845 61.4504 33.5801 58.1255 33.5801C54.8005 33.5801 52.105 30.8845 52.105 27.5596C52.105 24.2346 54.8005 21.5391 58.1255 21.5391Z" stroke="#E6E6E6" stroke-width="0.523515"/>
<path d="M58.1255 36.7852C61.4504 36.7852 64.146 39.4807 64.146 42.8057C64.146 46.1306 61.4504 48.8261 58.1255 48.8262C54.8005 48.8262 52.105 46.1306 52.105 42.8057C52.105 39.4807 54.8005 36.7852 58.1255 36.7852Z" stroke="#E6E6E6" stroke-width="0.523515"/>
<path d="M58.1255 52.0303C61.4504 52.0303 64.146 54.7258 64.146 58.0508C64.146 61.3757 61.4504 64.0713 58.1255 64.0713C54.8005 64.0713 52.105 61.3757 52.105 58.0508C52.105 54.7258 54.8005 52.0303 58.1255 52.0303Z" stroke="#E6E6E6" stroke-width="0.523515"/>
<path d="M58.1255 67.2754C61.4504 67.2754 64.146 69.9709 64.146 73.2959C64.146 76.6208 61.4504 79.3164 58.1255 79.3164C54.8005 79.3164 52.105 76.6209 52.105 73.2959C52.105 69.9709 54.8005 67.2754 58.1255 67.2754Z" stroke="#E6E6E6" stroke-width="0.523515"/>
<path d="M58.1255 82.5215C61.4504 82.5215 64.146 85.217 64.146 88.542C64.146 91.8669 61.4504 94.5625 58.1255 94.5625C54.8005 94.5625 52.105 91.867 52.105 88.542C52.105 85.217 54.8005 82.5215 58.1255 82.5215Z" stroke="#E6E6E6" stroke-width="0.523515"/>
<path d="M73.3711 6.29395C76.6961 6.29397 79.3916 8.98949 79.3916 12.3145C79.3916 15.6394 76.696 18.3349 73.3711 18.335C70.0461 18.335 67.3506 15.6394 67.3506 12.3145C67.3506 8.98947 70.0461 6.29395 73.3711 6.29395Z" stroke="#E6E6E6" stroke-width="0.523515"/>
<path d="M73.3711 21.5391C76.6961 21.5391 79.3916 24.2346 79.3916 27.5596C79.3916 30.8845 76.696 33.5801 73.3711 33.5801C70.0461 33.5801 67.3506 30.8845 67.3506 27.5596C67.3506 24.2346 70.0461 21.5391 73.3711 21.5391Z" stroke="#E6E6E6" stroke-width="0.523515"/>
<path d="M73.3711 36.7852C76.6961 36.7852 79.3916 39.4807 79.3916 42.8057C79.3916 46.1306 76.696 48.8261 73.3711 48.8262C70.0461 48.8262 67.3506 46.1306 67.3506 42.8057C67.3506 39.4807 70.0461 36.7852 73.3711 36.7852Z" stroke="#E6E6E6" stroke-width="0.523515"/>
<path d="M73.3711 52.0303C76.6961 52.0303 79.3916 54.7258 79.3916 58.0508C79.3916 61.3757 76.696 64.0713 73.3711 64.0713C70.0461 64.0713 67.3506 61.3757 67.3506 58.0508C67.3506 54.7258 70.0461 52.0303 73.3711 52.0303Z" stroke="#E6E6E6" stroke-width="0.523515"/>
<ellipse cx="73.371" cy="73.2958" rx="6.28218" ry="6.28218" fill="#00C7BE"/>
<path d="M73.3711 82.5215C76.6961 82.5215 79.3916 85.217 79.3916 88.542C79.3916 91.8669 76.696 94.5625 73.3711 94.5625C70.0461 94.5625 67.3506 91.867 67.3506 88.542C67.3506 85.217 70.0461 82.5215 73.3711 82.5215Z" stroke="#E6E6E6" stroke-width="0.523515"/>
<path d="M88.6167 6.29395C91.9417 6.29397 94.6372 8.98949 94.6372 12.3145C94.6372 15.6394 91.9416 18.3349 88.6167 18.335C85.2917 18.335 82.5962 15.6394 82.5962 12.3145C82.5962 8.98947 85.2917 6.29395 88.6167 6.29395Z" stroke="#E6E6E6" stroke-width="0.523515"/>
<path d="M88.6167 21.5391C91.9417 21.5391 94.6372 24.2346 94.6372 27.5596C94.6372 30.8845 91.9416 33.5801 88.6167 33.5801C85.2917 33.5801 82.5962 30.8845 82.5962 27.5596C82.5962 24.2346 85.2917 21.5391 88.6167 21.5391Z" stroke="#E6E6E6" stroke-width="0.523515"/>
<path d="M88.6167 36.7852C91.9417 36.7852 94.6372 39.4807 94.6372 42.8057C94.6372 46.1306 91.9416 48.8261 88.6167 48.8262C85.2917 48.8262 82.5962 46.1306 82.5962 42.8057C82.5962 39.4807 85.2917 36.7852 88.6167 36.7852Z" stroke="#E6E6E6" stroke-width="0.523515"/>
<path d="M88.6167 52.0303C91.9417 52.0303 94.6372 54.7258 94.6372 58.0508C94.6372 61.3757 91.9416 64.0713 88.6167 64.0713C85.2917 64.0713 82.5962 61.3757 82.5962 58.0508C82.5962 54.7258 85.2917 52.0303 88.6167 52.0303Z" stroke="#E6E6E6" stroke-width="0.523515"/>
<path d="M88.6167 67.2754C91.9417 67.2754 94.6372 69.9709 94.6372 73.2959C94.6372 76.6208 91.9416 79.3164 88.6167 79.3164C85.2917 79.3164 82.5962 76.6209 82.5962 73.2959C82.5962 69.9709 85.2917 67.2754 88.6167 67.2754Z" stroke="#E6E6E6" stroke-width="0.523515"/>
<ellipse cx="88.6166" cy="88.5419" rx="6.28218" ry="6.28218" fill="#00C7BE"/>
</svg>
