<svg width="101" height="101" viewBox="0 0 101 101" fill="none" xmlns="http://www.w3.org/2000/svg">
<rect x="2.23047" y="2" width="96.5386" height="96.5386" rx="6.04309" stroke="black" stroke-width="4"/>
<ellipse cx="12.2099" cy="12.3144" rx="6.28218" ry="6.28218" fill="#00C7BE"/>
<path d="M12.21 21.5391C15.5349 21.5391 18.2305 24.2346 18.2305 27.5596C18.2304 30.8845 15.5349 33.5801 12.21 33.5801C8.88499 33.5801 6.18948 30.8845 6.18945 27.5596C6.18945 24.2346 8.88498 21.5391 12.21 21.5391Z" stroke="#E6E6E6" stroke-width="0.523515"/>
<path d="M12.21 36.7852C15.5349 36.7852 18.2305 39.4807 18.2305 42.8057C18.2304 46.1306 15.5349 48.8261 12.21 48.8262C8.88499 48.8262 6.18948 46.1306 6.18945 42.8057C6.18945 39.4807 8.88498 36.7852 12.21 36.7852Z" stroke="#E6E6E6" stroke-width="0.523515"/>
<path d="M12.21 52.0303C15.5349 52.0303 18.2305 54.7258 18.2305 58.0508C18.2304 61.3757 15.5349 64.0713 12.21 64.0713C8.88499 64.0713 6.18948 61.3757 6.18945 58.0508C6.18945 54.7258 8.88498 52.0303 12.21 52.0303Z" stroke="#E6E6E6" stroke-width="0.523515"/>
<path d="M12.21 67.2754C15.5349 67.2754 18.2305 69.9709 18.2305 73.2959C18.2304 76.6208 15.5349 79.3164 12.21 79.3164C8.88499 79.3164 6.18948 76.6209 6.18945 73.2959C6.18945 69.9709 8.88498 67.2754 12.21 67.2754Z" stroke="#E6E6E6" stroke-width="0.523515"/>
<path d="M12.21 82.5215C15.5349 82.5215 18.2305 85.217 18.2305 88.542C18.2304 91.8669 15.5349 94.5625 12.21 94.5625C8.88499 94.5625 6.18948 91.867 6.18945 88.542C6.18945 85.217 8.88498 82.5215 12.21 82.5215Z" stroke="#E6E6E6" stroke-width="0.523515"/>
<path d="M27.4551 6.29395C30.78 6.29397 33.4756 8.98949 33.4756 12.3145C33.4756 15.6394 30.78 18.3349 27.4551 18.335C24.1301 18.335 21.4346 15.6394 21.4346 12.3145C21.4346 8.98947 24.1301 6.29395 27.4551 6.29395Z" stroke="#E6E6E6" stroke-width="0.523515"/>
<ellipse cx="27.455" cy="27.5595" rx="6.28218" ry="6.28218" fill="#00C7BE"/>
<path d="M27.4551 36.7852C30.78 36.7852 33.4756 39.4807 33.4756 42.8057C33.4756 46.1306 30.78 48.8261 27.4551 48.8262C24.1301 48.8262 21.4346 46.1306 21.4346 42.8057C21.4346 39.4807 24.1301 36.7852 27.4551 36.7852Z" stroke="#E6E6E6" stroke-width="0.523515"/>
<path d="M27.4551 52.0303C30.78 52.0303 33.4756 54.7258 33.4756 58.0508C33.4756 61.3757 30.78 64.0713 27.4551 64.0713C24.1301 64.0713 21.4346 61.3757 21.4346 58.0508C21.4346 54.7258 24.1301 52.0303 27.4551 52.0303Z" stroke="#E6E6E6" stroke-width="0.523515"/>
<path d="M27.4551 67.2754C30.78 67.2754 33.4756 69.9709 33.4756 73.2959C33.4756 76.6208 30.78 79.3164 27.4551 79.3164C24.1301 79.3164 21.4346 76.6209 21.4346 73.2959C21.4346 69.9709 24.1301 67.2754 27.4551 67.2754Z" stroke="#E6E6E6" stroke-width="0.523515"/>
<path d="M27.4551 82.5215C30.78 82.5215 33.4756 85.217 33.4756 88.542C33.4756 91.8669 30.78 94.5625 27.4551 94.5625C24.1301 94.5625 21.4346 91.867 21.4346 88.542C21.4346 85.217 24.1301 82.5215 27.4551 82.5215Z" stroke="#E6E6E6" stroke-width="0.523515"/>
<path d="M42.7007 6.29395C46.0256 6.29397 48.7212 8.98949 48.7212 12.3145C48.7212 15.6394 46.0256 18.3349 42.7007 18.335C39.3757 18.335 36.6802 15.6394 36.6802 12.3145C36.6802 8.98947 39.3757 6.29395 42.7007 6.29395Z" stroke="#E6E6E6" stroke-width="0.523515"/>
<path d="M42.7007 21.5391C46.0256 21.5391 48.7212 24.2346 48.7212 27.5596C48.7212 30.8845 46.0256 33.5801 42.7007 33.5801C39.3757 33.5801 36.6802 30.8845 36.6802 27.5596C36.6802 24.2346 39.3757 21.5391 42.7007 21.5391Z" stroke="#E6E6E6" stroke-width="0.523515"/>
<ellipse cx="42.7006" cy="42.8056" rx="6.28218" ry="6.28218" fill="#00C7BE"/>
<path d="M42.7007 52.0303C46.0256 52.0303 48.7212 54.7258 48.7212 58.0508C48.7212 61.3757 46.0256 64.0713 42.7007 64.0713C39.3757 64.0713 36.6802 61.3757 36.6802 58.0508C36.6802 54.7258 39.3757 52.0303 42.7007 52.0303Z" stroke="#E6E6E6" stroke-width="0.523515"/>
<path d="M42.7007 67.2754C46.0256 67.2754 48.7212 69.9709 48.7212 73.2959C48.7212 76.6208 46.0256 79.3164 42.7007 79.3164C39.3757 79.3164 36.6802 76.6209 36.6802 73.2959C36.6802 69.9709 39.3757 67.2754 42.7007 67.2754Z" stroke="#E6E6E6" stroke-width="0.523515"/>
<path d="M42.7007 82.5215C46.0256 82.5215 48.7212 85.217 48.7212 88.542C48.7212 91.8669 46.0256 94.5625 42.7007 94.5625C39.3757 94.5625 36.6802 91.867 36.6802 88.542C36.6802 85.217 39.3757 82.5215 42.7007 82.5215Z" stroke="#E6E6E6" stroke-width="0.523515"/>
<path d="M57.9458 6.29395C61.2708 6.29397 63.9663 8.98949 63.9663 12.3145C63.9663 15.6394 61.2707 18.3349 57.9458 18.335C54.6208 18.335 51.9253 15.6394 51.9253 12.3145C51.9253 8.98947 54.6208 6.29395 57.9458 6.29395Z" stroke="#E6E6E6" stroke-width="0.523515"/>
<path d="M57.9458 21.5391C61.2708 21.5391 63.9663 24.2346 63.9663 27.5596C63.9663 30.8845 61.2707 33.5801 57.9458 33.5801C54.6208 33.5801 51.9253 30.8845 51.9253 27.5596C51.9253 24.2346 54.6208 21.5391 57.9458 21.5391Z" stroke="#E6E6E6" stroke-width="0.523515"/>
<path d="M57.9458 36.7852C61.2708 36.7852 63.9663 39.4807 63.9663 42.8057C63.9663 46.1306 61.2707 48.8261 57.9458 48.8262C54.6208 48.8262 51.9253 46.1306 51.9253 42.8057C51.9253 39.4807 54.6208 36.7852 57.9458 36.7852Z" stroke="#E6E6E6" stroke-width="0.523515"/>
<ellipse cx="57.9457" cy="58.0507" rx="6.28218" ry="6.28218" fill="#00C7BE"/>
<path d="M57.9458 67.2754C61.2708 67.2754 63.9663 69.9709 63.9663 73.2959C63.9663 76.6208 61.2707 79.3164 57.9458 79.3164C54.6208 79.3164 51.9253 76.6209 51.9253 73.2959C51.9253 69.9709 54.6208 67.2754 57.9458 67.2754Z" stroke="#E6E6E6" stroke-width="0.523515"/>
<path d="M57.9458 82.5215C61.2708 82.5215 63.9663 85.217 63.9663 88.542C63.9663 91.8669 61.2707 94.5625 57.9458 94.5625C54.6208 94.5625 51.9253 91.867 51.9253 88.542C51.9253 85.217 54.6208 82.5215 57.9458 82.5215Z" stroke="#E6E6E6" stroke-width="0.523515"/>
<path d="M73.1914 6.29395C76.5164 6.29397 79.2119 8.98949 79.2119 12.3145C79.2119 15.6394 76.5164 18.3349 73.1914 18.335C69.8664 18.335 67.1709 15.6394 67.1709 12.3145C67.1709 8.98947 69.8664 6.29395 73.1914 6.29395Z" stroke="#E6E6E6" stroke-width="0.523515"/>
<path d="M73.1914 21.5391C76.5164 21.5391 79.2119 24.2346 79.2119 27.5596C79.2119 30.8845 76.5164 33.5801 73.1914 33.5801C69.8664 33.5801 67.1709 30.8845 67.1709 27.5596C67.1709 24.2346 69.8664 21.5391 73.1914 21.5391Z" stroke="#E6E6E6" stroke-width="0.523515"/>
<path d="M73.1914 36.7852C76.5164 36.7852 79.2119 39.4807 79.2119 42.8057C79.2119 46.1306 76.5164 48.8261 73.1914 48.8262C69.8664 48.8262 67.1709 46.1306 67.1709 42.8057C67.1709 39.4807 69.8664 36.7852 73.1914 36.7852Z" stroke="#E6E6E6" stroke-width="0.523515"/>
<path d="M73.1914 52.0303C76.5164 52.0303 79.2119 54.7258 79.2119 58.0508C79.2119 61.3757 76.5164 64.0713 73.1914 64.0713C69.8664 64.0713 67.1709 61.3757 67.1709 58.0508C67.1709 54.7258 69.8664 52.0303 73.1914 52.0303Z" stroke="#E6E6E6" stroke-width="0.523515"/>
<ellipse cx="73.1914" cy="73.2958" rx="6.28218" ry="6.28218" fill="#00C7BE"/>
<path d="M73.1914 82.5215C76.5164 82.5215 79.2119 85.217 79.2119 88.542C79.2119 91.8669 76.5164 94.5625 73.1914 94.5625C69.8664 94.5625 67.1709 91.867 67.1709 88.542C67.1709 85.217 69.8664 82.5215 73.1914 82.5215Z" stroke="#E6E6E6" stroke-width="0.523515"/>
<path d="M88.437 6.29395C91.762 6.29397 94.4575 8.98949 94.4575 12.3145C94.4575 15.6394 91.762 18.3349 88.437 18.335C85.112 18.335 82.4165 15.6394 82.4165 12.3145C82.4165 8.98947 85.112 6.29395 88.437 6.29395Z" stroke="#E6E6E6" stroke-width="0.523515"/>
<path d="M88.437 21.5391C91.762 21.5391 94.4575 24.2346 94.4575 27.5596C94.4575 30.8845 91.762 33.5801 88.437 33.5801C85.112 33.5801 82.4165 30.8845 82.4165 27.5596C82.4165 24.2346 85.112 21.5391 88.437 21.5391Z" stroke="#E6E6E6" stroke-width="0.523515"/>
<path d="M88.437 36.7852C91.762 36.7852 94.4575 39.4807 94.4575 42.8057C94.4575 46.1306 91.762 48.8261 88.437 48.8262C85.112 48.8262 82.4165 46.1306 82.4165 42.8057C82.4165 39.4807 85.112 36.7852 88.437 36.7852Z" stroke="#E6E6E6" stroke-width="0.523515"/>
<path d="M88.437 52.0303C91.762 52.0303 94.4575 54.7258 94.4575 58.0508C94.4575 61.3757 91.762 64.0713 88.437 64.0713C85.112 64.0713 82.4165 61.3757 82.4165 58.0508C82.4165 54.7258 85.112 52.0303 88.437 52.0303Z" stroke="#E6E6E6" stroke-width="0.523515"/>
<path d="M88.437 67.2754C91.762 67.2754 94.4575 69.9709 94.4575 73.2959C94.4575 76.6208 91.762 79.3164 88.437 79.3164C85.112 79.3164 82.4165 76.6209 82.4165 73.2959C82.4165 69.9709 85.112 67.2754 88.437 67.2754Z" stroke="#E6E6E6" stroke-width="0.523515"/>
<path d="M88.437 82.5215C91.762 82.5215 94.4575 85.217 94.4575 88.542C94.4575 91.8669 91.762 94.5625 88.437 94.5625C85.112 94.5625 82.4165 91.867 82.4165 88.542C82.4165 85.217 85.112 82.5215 88.437 82.5215Z" stroke="#E6E6E6" stroke-width="0.523515"/>
</svg>
