<svg width="102" height="101" viewBox="0 0 102 101" fill="none" xmlns="http://www.w3.org/2000/svg">
<rect x="2.76904" y="2" width="96.5386" height="96.5386" rx="6.04309" stroke="black" stroke-width="4"/>
<path d="M12.7485 6.29395C16.0735 6.29397 18.769 8.98949 18.769 12.3145C18.769 15.6394 16.0735 18.3349 12.7485 18.335C9.42357 18.335 6.72805 15.6394 6.72803 12.3145C6.72803 8.98947 9.42355 6.29395 12.7485 6.29395Z" stroke="#E6E6E6" stroke-width="0.523515"/>
<path d="M12.7485 21.5391C16.0735 21.5391 18.769 24.2346 18.769 27.5596C18.769 30.8845 16.0735 33.5801 12.7485 33.5801C9.42357 33.5801 6.72805 30.8845 6.72803 27.5596C6.72803 24.2346 9.42355 21.5391 12.7485 21.5391Z" stroke="#E6E6E6" stroke-width="0.523515"/>
<path d="M12.7485 36.7852C16.0735 36.7852 18.769 39.4807 18.769 42.8057C18.769 46.1306 16.0735 48.8261 12.7485 48.8262C9.42357 48.8262 6.72805 46.1306 6.72803 42.8057C6.72803 39.4807 9.42355 36.7852 12.7485 36.7852Z" stroke="#E6E6E6" stroke-width="0.523515"/>
<path d="M12.7485 52.0303C16.0735 52.0303 18.769 54.7258 18.769 58.0508C18.769 61.3757 16.0735 64.0713 12.7485 64.0713C9.42357 64.0713 6.72805 61.3757 6.72803 58.0508C6.72803 54.7258 9.42355 52.0303 12.7485 52.0303Z" stroke="#E6E6E6" stroke-width="0.523515"/>
<path d="M12.7485 67.2754C16.0735 67.2754 18.769 69.9709 18.769 73.2959C18.769 76.6208 16.0735 79.3164 12.7485 79.3164C9.42357 79.3164 6.72805 76.6209 6.72803 73.2959C6.72803 69.9709 9.42355 67.2754 12.7485 67.2754Z" stroke="#E6E6E6" stroke-width="0.523515"/>
<path d="M12.7485 82.5215C16.0735 82.5215 18.769 85.217 18.769 88.542C18.769 91.8669 16.0735 94.5625 12.7485 94.5625C9.42357 94.5625 6.72805 91.867 6.72803 88.542C6.72803 85.217 9.42355 82.5215 12.7485 82.5215Z" stroke="#E6E6E6" stroke-width="0.523515"/>
<path d="M27.9937 6.29395C31.3186 6.29397 34.0142 8.98949 34.0142 12.3145C34.0141 15.6394 31.3186 18.3349 27.9937 18.335C24.6687 18.335 21.9732 15.6394 21.9731 12.3145C21.9731 8.98947 24.6687 6.29395 27.9937 6.29395Z" stroke="#E6E6E6" stroke-width="0.523515"/>
<path d="M27.9937 21.5391C31.3186 21.5391 34.0142 24.2346 34.0142 27.5596C34.0141 30.8845 31.3186 33.5801 27.9937 33.5801C24.6687 33.5801 21.9732 30.8845 21.9731 27.5596C21.9731 24.2346 24.6687 21.5391 27.9937 21.5391Z" stroke="#E6E6E6" stroke-width="0.523515"/>
<path d="M27.9937 36.7852C31.3186 36.7852 34.0142 39.4807 34.0142 42.8057C34.0141 46.1306 31.3186 48.8261 27.9937 48.8262C24.6687 48.8262 21.9732 46.1306 21.9731 42.8057C21.9731 39.4807 24.6687 36.7852 27.9937 36.7852Z" stroke="#E6E6E6" stroke-width="0.523515"/>
<path d="M27.9937 52.0303C31.3186 52.0303 34.0142 54.7258 34.0142 58.0508C34.0141 61.3757 31.3186 64.0713 27.9937 64.0713C24.6687 64.0713 21.9732 61.3757 21.9731 58.0508C21.9731 54.7258 24.6687 52.0303 27.9937 52.0303Z" stroke="#E6E6E6" stroke-width="0.523515"/>
<path d="M27.9937 67.2754C31.3186 67.2754 34.0142 69.9709 34.0142 73.2959C34.0141 76.6208 31.3186 79.3164 27.9937 79.3164C24.6687 79.3164 21.9732 76.6209 21.9731 73.2959C21.9731 69.9709 24.6687 67.2754 27.9937 67.2754Z" stroke="#E6E6E6" stroke-width="0.523515"/>
<path d="M27.9937 82.5215C31.3186 82.5215 34.0142 85.217 34.0142 88.542C34.0141 91.8669 31.3186 94.5625 27.9937 94.5625C24.6687 94.5625 21.9732 91.867 21.9731 88.542C21.9731 85.217 24.6687 82.5215 27.9937 82.5215Z" stroke="#E6E6E6" stroke-width="0.523515"/>
<path d="M43.2393 6.29395C46.5642 6.29397 49.2598 8.98949 49.2598 12.3145C49.2597 15.6394 46.5642 18.3349 43.2393 18.335C39.9143 18.335 37.2188 15.6394 37.2188 12.3145C37.2188 8.98947 39.9143 6.29395 43.2393 6.29395Z" stroke="#E6E6E6" stroke-width="0.523515"/>
<path d="M43.2393 21.5391C46.5642 21.5391 49.2598 24.2346 49.2598 27.5596C49.2597 30.8845 46.5642 33.5801 43.2393 33.5801C39.9143 33.5801 37.2188 30.8845 37.2188 27.5596C37.2188 24.2346 39.9143 21.5391 43.2393 21.5391Z" stroke="#E6E6E6" stroke-width="0.523515"/>
<path d="M43.2393 36.7852C46.5642 36.7852 49.2598 39.4807 49.2598 42.8057C49.2597 46.1306 46.5642 48.8261 43.2393 48.8262C39.9143 48.8262 37.2188 46.1306 37.2188 42.8057C37.2188 39.4807 39.9143 36.7852 43.2393 36.7852Z" stroke="#E6E6E6" stroke-width="0.523515"/>
<path d="M43.2393 52.0303C46.5642 52.0303 49.2598 54.7258 49.2598 58.0508C49.2597 61.3757 46.5642 64.0713 43.2393 64.0713C39.9143 64.0713 37.2188 61.3757 37.2188 58.0508C37.2188 54.7258 39.9143 52.0303 43.2393 52.0303Z" stroke="#E6E6E6" stroke-width="0.523515"/>
<path d="M43.2393 67.2754C46.5642 67.2754 49.2598 69.9709 49.2598 73.2959C49.2597 76.6208 46.5642 79.3164 43.2393 79.3164C39.9143 79.3164 37.2188 76.6209 37.2188 73.2959C37.2188 69.9709 39.9143 67.2754 43.2393 67.2754Z" stroke="#E6E6E6" stroke-width="0.523515"/>
<path d="M43.2393 82.5215C46.5642 82.5215 49.2598 85.217 49.2598 88.542C49.2597 91.8669 46.5642 94.5625 43.2393 94.5625C39.9143 94.5625 37.2188 91.867 37.2188 88.542C37.2188 85.217 39.9143 82.5215 43.2393 82.5215Z" stroke="#E6E6E6" stroke-width="0.523515"/>
<path d="M58.4844 6.29395C61.8093 6.29397 64.5049 8.98949 64.5049 12.3145C64.5049 15.6394 61.8093 18.3349 58.4844 18.335C55.1594 18.335 52.4639 15.6394 52.4639 12.3145C52.4639 8.98947 55.1594 6.29395 58.4844 6.29395Z" stroke="#E6E6E6" stroke-width="0.523515"/>
<path d="M58.4844 21.5391C61.8093 21.5391 64.5049 24.2346 64.5049 27.5596C64.5049 30.8845 61.8093 33.5801 58.4844 33.5801C55.1594 33.5801 52.4639 30.8845 52.4639 27.5596C52.4639 24.2346 55.1594 21.5391 58.4844 21.5391Z" stroke="#E6E6E6" stroke-width="0.523515"/>
<path d="M58.4844 36.7852C61.8093 36.7852 64.5049 39.4807 64.5049 42.8057C64.5049 46.1306 61.8093 48.8261 58.4844 48.8262C55.1594 48.8262 52.4639 46.1306 52.4639 42.8057C52.4639 39.4807 55.1594 36.7852 58.4844 36.7852Z" stroke="#E6E6E6" stroke-width="0.523515"/>
<path d="M58.4844 52.0303C61.8093 52.0303 64.5049 54.7258 64.5049 58.0508C64.5049 61.3757 61.8093 64.0713 58.4844 64.0713C55.1594 64.0713 52.4639 61.3757 52.4639 58.0508C52.4639 54.7258 55.1594 52.0303 58.4844 52.0303Z" stroke="#E6E6E6" stroke-width="0.523515"/>
<path d="M58.4844 67.2754C61.8093 67.2754 64.5049 69.9709 64.5049 73.2959C64.5049 76.6208 61.8093 79.3164 58.4844 79.3164C55.1594 79.3164 52.4639 76.6209 52.4639 73.2959C52.4639 69.9709 55.1594 67.2754 58.4844 67.2754Z" stroke="#E6E6E6" stroke-width="0.523515"/>
<path d="M58.4844 82.5215C61.8093 82.5215 64.5049 85.217 64.5049 88.542C64.5049 91.8669 61.8093 94.5625 58.4844 94.5625C55.1594 94.5625 52.4639 91.867 52.4639 88.542C52.4639 85.217 55.1594 82.5215 58.4844 82.5215Z" stroke="#E6E6E6" stroke-width="0.523515"/>
<path d="M73.73 6.29395C77.0549 6.29397 79.7505 8.98949 79.7505 12.3145C79.7505 15.6394 77.0549 18.3349 73.73 18.335C70.405 18.335 67.7095 15.6394 67.7095 12.3145C67.7095 8.98947 70.405 6.29395 73.73 6.29395Z" stroke="#E6E6E6" stroke-width="0.523515"/>
<path d="M73.73 21.5391C77.0549 21.5391 79.7505 24.2346 79.7505 27.5596C79.7505 30.8845 77.0549 33.5801 73.73 33.5801C70.405 33.5801 67.7095 30.8845 67.7095 27.5596C67.7095 24.2346 70.405 21.5391 73.73 21.5391Z" stroke="#E6E6E6" stroke-width="0.523515"/>
<path d="M73.73 36.7852C77.0549 36.7852 79.7505 39.4807 79.7505 42.8057C79.7505 46.1306 77.0549 48.8261 73.73 48.8262C70.405 48.8262 67.7095 46.1306 67.7095 42.8057C67.7095 39.4807 70.405 36.7852 73.73 36.7852Z" stroke="#E6E6E6" stroke-width="0.523515"/>
<path d="M73.73 52.0303C77.0549 52.0303 79.7505 54.7258 79.7505 58.0508C79.7505 61.3757 77.0549 64.0713 73.73 64.0713C70.405 64.0713 67.7095 61.3757 67.7095 58.0508C67.7095 54.7258 70.405 52.0303 73.73 52.0303Z" stroke="#E6E6E6" stroke-width="0.523515"/>
<path d="M73.73 67.2754C77.0549 67.2754 79.7505 69.9709 79.7505 73.2959C79.7505 76.6208 77.0549 79.3164 73.73 79.3164C70.405 79.3164 67.7095 76.6209 67.7095 73.2959C67.7095 69.9709 70.405 67.2754 73.73 67.2754Z" stroke="#E6E6E6" stroke-width="0.523515"/>
<path d="M73.73 82.5215C77.0549 82.5215 79.7505 85.217 79.7505 88.542C79.7505 91.8669 77.0549 94.5625 73.73 94.5625C70.405 94.5625 67.7095 91.867 67.7095 88.542C67.7095 85.217 70.405 82.5215 73.73 82.5215Z" stroke="#E6E6E6" stroke-width="0.523515"/>
<ellipse cx="88.9755" cy="12.3144" rx="6.28218" ry="6.28218" fill="#00C7BE"/>
<ellipse cx="88.9755" cy="27.5595" rx="6.28218" ry="6.28218" fill="#00C7BE"/>
<ellipse cx="88.9755" cy="42.8056" rx="6.28218" ry="6.28218" fill="#00C7BE"/>
<ellipse cx="88.9755" cy="58.0507" rx="6.28218" ry="6.28218" fill="#00C7BE"/>
<ellipse cx="88.9755" cy="73.2958" rx="6.28218" ry="6.28218" fill="#00C7BE"/>
<path d="M88.9756 82.5215C92.3005 82.5215 94.9961 85.217 94.9961 88.542C94.9961 91.8669 92.3005 94.5625 88.9756 94.5625C85.6506 94.5625 82.9551 91.867 82.9551 88.542C82.9551 85.217 85.6506 82.5215 88.9756 82.5215Z" stroke="#E6E6E6" stroke-width="0.523515"/>
</svg>
