<svg width="102" height="101" viewBox="0 0 102 101" fill="none" xmlns="http://www.w3.org/2000/svg">
<rect x="2.69189" y="2" width="96.5386" height="96.5386" rx="6.04309" stroke="black" stroke-width="4"/>
<path d="M12.6714 6.29395C15.9963 6.29397 18.6919 8.98949 18.6919 12.3145C18.6919 15.6394 15.9963 18.3349 12.6714 18.335C9.34642 18.335 6.65091 15.6394 6.65088 12.3145C6.65088 8.98947 9.3464 6.29395 12.6714 6.29395Z" stroke="#E6E6E6" stroke-width="0.523515"/>
<path d="M12.6714 21.5391C15.9963 21.5391 18.6919 24.2346 18.6919 27.5596C18.6919 30.8845 15.9963 33.5801 12.6714 33.5801C9.34642 33.5801 6.65091 30.8845 6.65088 27.5596C6.65088 24.2346 9.3464 21.5391 12.6714 21.5391Z" stroke="#E6E6E6" stroke-width="0.523515"/>
<ellipse cx="12.6713" cy="42.8056" rx="6.28218" ry="6.28218" fill="#00C7BE"/>
<path d="M12.6714 52.0303C15.9963 52.0303 18.6919 54.7258 18.6919 58.0508C18.6919 61.3757 15.9963 64.0713 12.6714 64.0713C9.34642 64.0713 6.65091 61.3757 6.65088 58.0508C6.65088 54.7258 9.3464 52.0303 12.6714 52.0303Z" stroke="#E6E6E6" stroke-width="0.523515"/>
<path d="M12.6714 67.2754C15.9963 67.2754 18.6919 69.9709 18.6919 73.2959C18.6919 76.6208 15.9963 79.3164 12.6714 79.3164C9.34642 79.3164 6.65091 76.6209 6.65088 73.2959C6.65088 69.9709 9.3464 67.2754 12.6714 67.2754Z" stroke="#E6E6E6" stroke-width="0.523515"/>
<path d="M12.6714 82.5215C15.9963 82.5215 18.6919 85.217 18.6919 88.542C18.6919 91.8669 15.9963 94.5625 12.6714 94.5625C9.34642 94.5625 6.65091 91.867 6.65088 88.542C6.65088 85.217 9.3464 82.5215 12.6714 82.5215Z" stroke="#E6E6E6" stroke-width="0.523515"/>
<path d="M27.9165 6.29395C31.2415 6.29397 33.937 8.98949 33.937 12.3145C33.937 15.6394 31.2414 18.3349 27.9165 18.335C24.5915 18.335 21.896 15.6394 21.896 12.3145C21.896 8.98947 24.5915 6.29395 27.9165 6.29395Z" stroke="#E6E6E6" stroke-width="0.523515"/>
<path d="M27.9165 21.5391C31.2415 21.5391 33.937 24.2346 33.937 27.5596C33.937 30.8845 31.2414 33.5801 27.9165 33.5801C24.5915 33.5801 21.896 30.8845 21.896 27.5596C21.896 24.2346 24.5915 21.5391 27.9165 21.5391Z" stroke="#E6E6E6" stroke-width="0.523515"/>
<ellipse cx="27.9165" cy="42.8056" rx="6.28218" ry="6.28218" fill="#00C7BE"/>
<path d="M27.9165 52.0303C31.2415 52.0303 33.937 54.7258 33.937 58.0508C33.937 61.3757 31.2414 64.0713 27.9165 64.0713C24.5915 64.0713 21.896 61.3757 21.896 58.0508C21.896 54.7258 24.5915 52.0303 27.9165 52.0303Z" stroke="#E6E6E6" stroke-width="0.523515"/>
<path d="M27.9165 67.2754C31.2415 67.2754 33.937 69.9709 33.937 73.2959C33.937 76.6208 31.2414 79.3164 27.9165 79.3164C24.5915 79.3164 21.896 76.6209 21.896 73.2959C21.896 69.9709 24.5915 67.2754 27.9165 67.2754Z" stroke="#E6E6E6" stroke-width="0.523515"/>
<path d="M27.9165 82.5215C31.2415 82.5215 33.937 85.217 33.937 88.542C33.937 91.8669 31.2414 94.5625 27.9165 94.5625C24.5915 94.5625 21.896 91.867 21.896 88.542C21.896 85.217 24.5915 82.5215 27.9165 82.5215Z" stroke="#E6E6E6" stroke-width="0.523515"/>
<path d="M43.1621 6.29395C46.4871 6.29397 49.1826 8.98949 49.1826 12.3145C49.1826 15.6394 46.4871 18.3349 43.1621 18.335C39.8371 18.335 37.1416 15.6394 37.1416 12.3145C37.1416 8.98947 39.8371 6.29395 43.1621 6.29395Z" stroke="#E6E6E6" stroke-width="0.523515"/>
<path d="M43.1621 21.5391C46.4871 21.5391 49.1826 24.2346 49.1826 27.5596C49.1826 30.8845 46.4871 33.5801 43.1621 33.5801C39.8371 33.5801 37.1416 30.8845 37.1416 27.5596C37.1416 24.2346 39.8371 21.5391 43.1621 21.5391Z" stroke="#E6E6E6" stroke-width="0.523515"/>
<ellipse cx="43.1621" cy="42.8056" rx="6.28218" ry="6.28218" fill="#00C7BE"/>
<path d="M43.1621 52.0303C46.4871 52.0303 49.1826 54.7258 49.1826 58.0508C49.1826 61.3757 46.4871 64.0713 43.1621 64.0713C39.8371 64.0713 37.1416 61.3757 37.1416 58.0508C37.1416 54.7258 39.8371 52.0303 43.1621 52.0303Z" stroke="#E6E6E6" stroke-width="0.523515"/>
<path d="M43.1621 67.2754C46.4871 67.2754 49.1826 69.9709 49.1826 73.2959C49.1826 76.6208 46.4871 79.3164 43.1621 79.3164C39.8371 79.3164 37.1416 76.6209 37.1416 73.2959C37.1416 69.9709 39.8371 67.2754 43.1621 67.2754Z" stroke="#E6E6E6" stroke-width="0.523515"/>
<path d="M43.1621 82.5215C46.4871 82.5215 49.1826 85.217 49.1826 88.542C49.1826 91.8669 46.4871 94.5625 43.1621 94.5625C39.8371 94.5625 37.1416 91.867 37.1416 88.542C37.1416 85.217 39.8371 82.5215 43.1621 82.5215Z" stroke="#E6E6E6" stroke-width="0.523515"/>
<path d="M58.4072 6.29395C61.7322 6.29397 64.4277 8.98949 64.4277 12.3145C64.4277 15.6394 61.7322 18.3349 58.4072 18.335C55.0823 18.335 52.3867 15.6394 52.3867 12.3145C52.3867 8.98947 55.0822 6.29395 58.4072 6.29395Z" stroke="#E6E6E6" stroke-width="0.523515"/>
<path d="M58.4072 21.5391C61.7322 21.5391 64.4277 24.2346 64.4277 27.5596C64.4277 30.8845 61.7322 33.5801 58.4072 33.5801C55.0823 33.5801 52.3867 30.8845 52.3867 27.5596C52.3867 24.2346 55.0822 21.5391 58.4072 21.5391Z" stroke="#E6E6E6" stroke-width="0.523515"/>
<ellipse cx="58.4072" cy="42.8056" rx="6.28218" ry="6.28218" fill="#00C7BE"/>
<path d="M58.4072 52.0303C61.7322 52.0303 64.4277 54.7258 64.4277 58.0508C64.4277 61.3757 61.7322 64.0713 58.4072 64.0713C55.0823 64.0713 52.3867 61.3757 52.3867 58.0508C52.3867 54.7258 55.0822 52.0303 58.4072 52.0303Z" stroke="#E6E6E6" stroke-width="0.523515"/>
<path d="M58.4072 67.2754C61.7322 67.2754 64.4277 69.9709 64.4277 73.2959C64.4277 76.6208 61.7322 79.3164 58.4072 79.3164C55.0823 79.3164 52.3867 76.6209 52.3867 73.2959C52.3867 69.9709 55.0822 67.2754 58.4072 67.2754Z" stroke="#E6E6E6" stroke-width="0.523515"/>
<path d="M58.4072 82.5215C61.7322 82.5215 64.4277 85.217 64.4277 88.542C64.4277 91.8669 61.7322 94.5625 58.4072 94.5625C55.0823 94.5625 52.3867 91.867 52.3867 88.542C52.3867 85.217 55.0822 82.5215 58.4072 82.5215Z" stroke="#E6E6E6" stroke-width="0.523515"/>
<path d="M73.6528 6.29395C76.9778 6.29397 79.6733 8.98949 79.6733 12.3145C79.6733 15.6394 76.9778 18.3349 73.6528 18.335C70.3279 18.335 67.6324 15.6394 67.6323 12.3145C67.6323 8.98947 70.3278 6.29395 73.6528 6.29395Z" stroke="#E6E6E6" stroke-width="0.523515"/>
<path d="M73.6528 21.5391C76.9778 21.5391 79.6733 24.2346 79.6733 27.5596C79.6733 30.8845 76.9778 33.5801 73.6528 33.5801C70.3279 33.5801 67.6324 30.8845 67.6323 27.5596C67.6323 24.2346 70.3278 21.5391 73.6528 21.5391Z" stroke="#E6E6E6" stroke-width="0.523515"/>
<ellipse cx="73.6528" cy="42.8056" rx="6.28218" ry="6.28218" fill="#00C7BE"/>
<path d="M73.6528 52.0303C76.9778 52.0303 79.6733 54.7258 79.6733 58.0508C79.6733 61.3757 76.9778 64.0713 73.6528 64.0713C70.3279 64.0713 67.6324 61.3757 67.6323 58.0508C67.6323 54.7258 70.3278 52.0303 73.6528 52.0303Z" stroke="#E6E6E6" stroke-width="0.523515"/>
<path d="M73.6528 67.2754C76.9778 67.2754 79.6733 69.9709 79.6733 73.2959C79.6733 76.6208 76.9778 79.3164 73.6528 79.3164C70.3279 79.3164 67.6324 76.6209 67.6323 73.2959C67.6323 69.9709 70.3278 67.2754 73.6528 67.2754Z" stroke="#E6E6E6" stroke-width="0.523515"/>
<path d="M73.6528 82.5215C76.9778 82.5215 79.6733 85.217 79.6733 88.542C79.6733 91.8669 76.9778 94.5625 73.6528 94.5625C70.3279 94.5625 67.6324 91.867 67.6323 88.542C67.6323 85.217 70.3278 82.5215 73.6528 82.5215Z" stroke="#E6E6E6" stroke-width="0.523515"/>
<path d="M88.8984 6.29395C92.2234 6.29397 94.9189 8.98949 94.9189 12.3145C94.9189 15.6394 92.2234 18.3349 88.8984 18.335C85.5735 18.335 82.878 15.6394 82.8779 12.3145C82.8779 8.98947 85.5735 6.29395 88.8984 6.29395Z" stroke="#E6E6E6" stroke-width="0.523515"/>
<path d="M88.8984 21.5391C92.2234 21.5391 94.9189 24.2346 94.9189 27.5596C94.9189 30.8845 92.2234 33.5801 88.8984 33.5801C85.5735 33.5801 82.878 30.8845 82.8779 27.5596C82.8779 24.2346 85.5735 21.5391 88.8984 21.5391Z" stroke="#E6E6E6" stroke-width="0.523515"/>
<path d="M88.8984 36.7852C92.2234 36.7852 94.9189 39.4807 94.9189 42.8057C94.9189 46.1306 92.2234 48.8261 88.8984 48.8262C85.5735 48.8262 82.878 46.1306 82.8779 42.8057C82.8779 39.4807 85.5735 36.7852 88.8984 36.7852Z" stroke="#E6E6E6" stroke-width="0.523515"/>
<path d="M88.8984 52.0303C92.2234 52.0303 94.9189 54.7258 94.9189 58.0508C94.9189 61.3757 92.2234 64.0713 88.8984 64.0713C85.5735 64.0713 82.878 61.3757 82.8779 58.0508C82.8779 54.7258 85.5735 52.0303 88.8984 52.0303Z" stroke="#E6E6E6" stroke-width="0.523515"/>
<path d="M88.8984 67.2754C92.2234 67.2754 94.9189 69.9709 94.9189 73.2959C94.9189 76.6208 92.2234 79.3164 88.8984 79.3164C85.5735 79.3164 82.878 76.6209 82.8779 73.2959C82.8779 69.9709 85.5735 67.2754 88.8984 67.2754Z" stroke="#E6E6E6" stroke-width="0.523515"/>
<path d="M88.8984 82.5215C92.2234 82.5215 94.9189 85.217 94.9189 88.542C94.9189 91.8669 92.2234 94.5625 88.8984 94.5625C85.5735 94.5625 82.878 91.867 82.8779 88.542C82.8779 85.217 85.5735 82.5215 88.8984 82.5215Z" stroke="#E6E6E6" stroke-width="0.523515"/>
</svg>
