<svg width="50" height="44" viewBox="0 0 50 44" fill="none" xmlns="http://www.w3.org/2000/svg">
<g clip-path="url(#clip0_91_948)">
<path d="M32.5875 29.6607V29.0525C27.6667 22.5615 16.4877 27.9487 17.5101 29.0525V29.6607C14.911 29.8355 12.475 30.9902 10.693 32.8919C8.91288 34.7936 7.91919 37.3003 7.91577 39.906V48.1296C7.91577 48.3113 7.98773 48.486 8.11622 48.6145C8.24472 48.743 8.41947 48.815 8.60109 48.815H41.4958C41.6774 48.815 41.8522 48.743 41.9807 48.6145C42.1092 48.486 42.1811 48.3113 42.1811 48.1296V39.906C42.1777 37.3001 41.184 34.7937 39.404 32.8919C37.6222 30.9902 35.1859 29.8354 32.5868 29.6607H32.5875ZM27.0708 44.6896L25.0492 47.0711L23.0275 44.6896L24.0829 36.6116L24.6379 37.0279C24.8812 37.2112 25.217 37.2112 25.4603 37.0279L26.0154 36.6116L27.0708 44.6896ZM30.9086 28.7818C29.2896 30.209 27.2062 30.9971 25.0494 30.9971C22.8925 30.9971 20.809 30.209 19.1902 28.7818C24.0829 26.3855 27.2938 26.55 30.9086 28.7818ZM25.0493 35.6229L23.4508 34.4236L25.0493 33.2243L26.6478 34.4236L25.0493 35.6229ZM18.8818 30.2931C20.3654 31.4187 22.1301 32.116 23.9822 32.3114L21.8972 33.8756C21.635 34.0692 21.5476 34.4238 21.6916 34.7168L18.8818 35.5597L18.8818 30.2931ZM28.2019 33.8756L26.1169 32.3114C27.969 32.116 29.7336 31.4187 31.2173 30.2931V35.5598L28.4076 34.7168C28.5515 34.4239 28.4641 34.0692 28.2019 33.8756ZM9.28755 39.906C9.29098 37.6634 10.139 35.5047 11.6639 33.86C13.187 32.2153 15.2754 31.2061 17.5112 31.0314V36.4796C17.5112 36.6955 17.614 36.8994 17.7871 37.0296C17.9618 37.1581 18.1863 37.1975 18.3936 37.1358L22.8054 35.8132L21.6284 44.8132C21.6044 45.0051 21.6609 45.1987 21.786 45.346L23.5678 47.4448H9.28755L9.28755 39.906ZM40.8117 47.4446H26.5314L28.3132 45.3459C28.4383 45.1985 28.4948 45.0049 28.4708 44.8131L27.2938 35.8148L31.7057 37.1375V37.1357C31.913 37.1974 32.1374 37.158 32.3122 37.0295C32.4852 36.8993 32.588 36.6954 32.588 36.4796V31.0313C34.8238 31.2061 36.9123 32.2152 38.4354 33.8599C39.9602 35.5047 40.8082 37.6634 40.8117 39.906L40.8117 47.4446Z" fill="black"/>
<path d="M28.2991 4.46731C28.2249 4.46731 28.1526 4.45706 28.0823 4.43997C27.0784 4.20242 26.0413 4.08791 25.0002 4.10159C23.9631 4.08962 22.9299 4.20242 21.9299 4.43484C21.6936 4.48611 21.4436 4.44338 21.2502 4.31521C21.0569 4.18703 20.9397 3.98879 20.9319 3.77687C20.9319 3.45045 21.1936 3.17018 21.5569 3.10522C22.6819 2.84716 23.8381 2.72411 25.0002 2.73436C26.1877 2.72069 27.3713 2.85228 28.5158 3.12743C28.8908 3.22142 29.1272 3.54272 29.0725 3.87941C29.0178 4.21779 28.6878 4.46731 28.2991 4.46731Z" fill="black"/>
<path d="M25.0001 25.1369C23.2286 25.1232 21.504 24.6481 20.045 23.768C18.5879 22.8896 17.4629 21.6488 16.8184 20.2048C16.4805 19.4631 16.2676 18.6821 16.1837 17.8857L15.9044 15.3564C15.8809 15.0727 15.8458 14.7668 15.8067 14.4301L15.7579 13.9961C15.7384 13.8166 15.8009 13.6355 15.9337 13.4953C16.0645 13.3569 16.254 13.268 16.461 13.2492C16.8907 13.2134 17.2716 13.4885 17.3145 13.8645L17.3634 14.2951C17.4024 14.6438 17.4415 14.9616 17.463 15.2419L17.7403 17.7558V17.7541C17.8087 18.4189 17.9864 19.0717 18.2677 19.6921C18.9591 21.2986 20.3712 22.5888 22.1759 23.2622C23.9806 23.9373 26.0216 23.9373 27.8264 23.2622C29.6311 22.5888 31.0412 21.2986 31.7326 19.6921C32.0139 19.0717 32.1916 18.4207 32.2619 17.7558L32.5393 15.2266C32.5627 14.9531 32.6018 14.6233 32.6408 14.2627L32.6877 13.8645C32.7072 13.6851 32.8088 13.5193 32.9689 13.4031C33.1311 13.2886 33.3361 13.2356 33.5431 13.2527C33.9709 13.2903 34.2853 13.6252 34.2423 14.0012L34.1974 14.4028C34.1564 14.7514 34.1193 15.0676 34.0959 15.3462L33.8166 17.8891C33.7326 18.6838 33.5197 19.4648 33.1818 20.2065C32.5373 21.6489 31.4142 22.8896 29.9553 23.768C28.4963 24.6481 26.7716 25.1233 25.0001 25.1369Z" fill="black"/>
<path d="M16.6405 20.7467C14.9178 20.721 13.3729 19.8067 12.703 18.4173C12.0506 17.1065 12.2538 15.589 13.2342 14.444C13.4979 14.1466 13.9901 14.0902 14.3319 14.3209C14.6717 14.5516 14.7362 14.9823 14.4725 15.2813C13.8358 16.0316 13.7089 17.0228 14.1405 17.879C14.6424 18.983 16.0057 19.588 17.3221 19.2941C17.7362 19.1847 18.1698 19.3915 18.2948 19.7538C18.4178 20.1144 18.1815 20.4955 17.7694 20.6031C17.4022 20.6988 17.0233 20.7467 16.6405 20.7467Z" fill="black"/>
<path d="M20 30.2009C19.6367 30.1992 19.3222 29.9788 19.2422 29.6677C19.1602 29.3584 19.3359 29.0405 19.6621 28.9021C20.2949 28.6389 20.7012 28.0835 20.707 27.47V23.7205C20.707 23.3411 21.0586 23.0352 21.4922 23.0352C21.9238 23.0352 22.2754 23.3411 22.2754 23.7205C22.2754 23.7427 22.2734 23.7666 22.2695 23.7888V27.4648C22.2617 28.6047 21.5117 29.6387 20.3359 30.1309C20.2304 30.1753 20.1172 30.1992 20 30.2009Z" fill="black"/>
<path d="M30.0081 30.2012C29.8928 30.1995 29.7795 30.1755 29.676 30.1328C28.4905 29.6509 27.7346 28.6101 27.7385 27.4668V23.7891C27.7385 23.7668 27.7346 23.7446 27.7346 23.7207C27.7346 23.3447 28.0823 23.0388 28.512 23.0371H28.5198C28.7268 23.0371 28.926 23.1089 29.0725 23.2371C29.219 23.3652 29.301 23.5396 29.301 23.7207V27.4668C29.2991 28.0803 29.7073 28.6392 30.344 28.8972C30.6702 29.0356 30.8459 29.3535 30.7659 29.6628C30.6858 29.9722 30.3713 30.1943 30.0081 30.1961L30.0081 30.2012Z" fill="black"/>
<path d="M21.045 17.6579C19.8067 17.6579 18.6896 17.0051 18.2149 16.0036C17.7403 15.0021 18.004 13.8486 18.879 13.0812C19.7559 12.3156 21.0723 12.0866 22.2169 12.5002C23.3614 12.9155 24.1095 13.893 24.1095 14.9766C24.1056 16.4565 22.7364 17.6562 21.045 17.6579ZM21.045 13.664C20.4376 13.664 19.8907 13.9836 19.6583 14.4741C19.4259 14.9646 19.5548 15.5303 19.9845 15.9062C20.4142 16.2822 21.0587 16.3933 21.6192 16.1899C22.1798 15.9865 22.547 15.508 22.547 14.9765C22.545 14.2519 21.8731 13.664 21.045 13.664Z" fill="black"/>
<path d="M29.0544 17.6579C27.8161 17.6579 26.699 17.005 26.2243 16.0036C25.7517 15.0021 26.0134 13.8486 26.8884 13.0812C27.7653 12.3156 29.0837 12.0866 30.2282 12.5002C31.3728 12.9155 32.1188 13.893 32.1188 14.9765C32.1169 16.4565 30.7458 17.6562 29.0544 17.6579ZM29.0544 13.664C28.449 13.664 27.9001 13.9836 27.6677 14.4741C27.4372 14.9645 27.5642 15.5302 27.9939 15.9062C28.4236 16.2821 29.0681 16.3932 29.6286 16.1899C30.1911 15.9865 30.5564 15.508 30.5564 14.9765C30.5544 14.2519 29.8845 13.664 29.0544 13.664Z" fill="black"/>
<path d="M13.8514 15.5463C13.7811 15.5463 13.7108 15.5378 13.6444 15.5224C12.7108 15.3139 11.9705 14.6935 11.6913 13.8869C11.5604 13.299 11.744 12.6906 12.1874 12.236C12.0096 12.1386 11.8475 12.0224 11.703 11.8891C11.1795 11.3798 10.9256 10.6996 11.0057 10.0161C11.1483 8.73262 12.1014 7.62692 13.4725 7.15521C12.996 6.03583 13.3729 4.7746 14.4159 4.00386C16.9022 2.2043 20.7714 2.86908 21.8964 3.11521C22.2401 3.19041 22.4823 3.45701 22.4882 3.76805C22.494 4.07737 22.2597 4.3508 21.9198 4.43624C17.0995 5.63425 16.8848 9.87786 17.3104 13.8696C17.3339 14.1037 17.2186 14.3344 17.0018 14.4763C16.787 14.6181 16.5018 14.6523 16.2499 14.5669C15.5565 14.3242 14.7401 15.0112 14.7323 15.018C14.6405 15.0983 14.5565 15.1821 14.4803 15.2726C14.3319 15.4453 14.0994 15.548 13.8514 15.5463ZM18.8984 4.156C17.6542 4.09961 16.4238 4.41748 15.414 5.05835C14.3417 5.8308 15.0937 7.06126 15.1835 7.19798C15.3046 7.38255 15.3202 7.60643 15.2284 7.80295C15.1347 7.99778 14.9413 8.14475 14.7069 8.19944C14.6894 8.20286 12.6464 8.71044 12.5702 10.0862C12.5195 10.3955 12.6171 10.7065 12.8398 10.9492C13.0859 11.1406 13.4003 11.2534 13.7284 11.2688C14.0819 11.2688 14.3905 11.4756 14.4823 11.7746C14.5741 12.0737 14.4257 12.3881 14.119 12.5437C13.7948 12.7111 13.1132 13.2084 13.2128 13.5913V13.5895C13.2851 13.7827 13.4394 13.9433 13.6444 14.0373C14.1952 13.5605 14.9081 13.2528 15.6757 13.1623C15.4472 10.6108 15.3983 6.36923 18.9569 4.15942L18.8984 4.156Z" fill="black"/>
<path d="M33.3595 20.7469C32.9786 20.7469 32.5978 20.6991 32.2325 20.6034C31.8224 20.494 31.5899 20.1146 31.711 19.754C31.8341 19.3951 32.2657 19.1883 32.6778 19.2926C33.9981 19.5899 35.3634 18.9798 35.8634 17.869C36.2989 17.0179 36.17 16.0284 35.5313 15.2833C35.2657 14.9859 35.3262 14.5569 35.6661 14.3245C36.0059 14.0921 36.4962 14.1451 36.7618 14.4425C37.754 15.5807 37.959 17.1016 37.2969 18.4124C36.629 19.8035 35.0841 20.7196 33.3595 20.7469Z" fill="black"/>
<path d="M36.1485 15.5464C35.8926 15.5464 35.6504 15.437 35.5039 15.2508C35.4375 15.1687 35.3613 15.0935 35.2774 15.0252C35.2676 15.0149 34.4493 14.3279 33.7539 14.5672C33.5 14.656 33.2129 14.6219 32.9961 14.48C32.7774 14.3365 32.6602 14.1057 32.6856 13.8682C33.1114 9.87773 32.8985 5.63796 28.084 4.43965H28.086C27.7461 4.3559 27.5137 4.08418 27.5176 3.77657C27.5215 3.46724 27.7598 3.20065 28.0997 3.12203C28.8946 2.93916 32.9864 2.11884 35.5822 4.00215C36.6251 4.77289 37.0021 6.03411 36.5255 7.1535C37.8986 7.62517 38.8536 8.73091 39.0001 10.0144C39.0783 10.6997 38.8204 11.3833 38.2931 11.8943C38.1485 12.0258 37.9884 12.1403 37.8126 12.236C38.2579 12.6924 38.4415 13.299 38.3087 13.8869C38.0294 14.6936 37.2892 15.3122 36.3556 15.5207C36.2892 15.5361 36.2188 15.5464 36.1485 15.5464ZM34.3262 13.159C35.0938 13.2513 35.8067 13.5572 36.3575 14.034C36.5606 13.94 36.7149 13.7811 36.7872 13.5897C36.8868 13.2051 36.2071 12.713 35.8809 12.5455L35.8829 12.5472C35.5782 12.3917 35.4297 12.0789 35.5196 11.7799C35.6094 11.4825 35.9161 11.274 36.2676 11.2723C36.6016 11.2603 36.9219 11.1441 37.17 10.9476C37.3907 10.7032 37.4884 10.3922 37.4415 10.0828C37.3555 8.70879 35.3126 8.20291 35.2891 8.19608C35.0547 8.13968 34.8653 7.99271 34.7715 7.79447C34.6797 7.59793 34.6993 7.37577 34.8204 7.1912C34.9082 7.05448 35.6602 5.82401 34.586 5.05497C33.5801 4.41754 32.3536 4.09965 31.1133 4.15604H31.0352C34.6016 6.36406 34.5548 10.6075 34.3262 13.159Z" fill="black"/>
<path d="M23.328 15.6605C22.9725 15.6622 22.662 15.4537 22.5702 15.1547C22.4784 14.8539 22.6287 14.5377 22.9373 14.3839C24.2322 13.6832 25.8709 13.6832 27.1678 14.3839C27.5389 14.5753 27.6639 14.994 27.4471 15.3204C27.2283 15.6451 26.7498 15.7545 26.3768 15.5648C25.5682 15.1034 24.5233 15.1034 23.7147 15.5648C23.5975 15.6263 23.4647 15.6588 23.328 15.6605Z" fill="black"/>
<rect x="22.2754" y="25.8027" width="5.45919" height="2.79605" fill="white"/>
<path d="M24.9154 9.71733C24.17 9.71171 23.4327 9.57818 22.7468 9.32376C22.5846 9.26894 22.4545 9.15931 22.387 9.02016C22.318 8.88101 22.3163 8.72359 22.3822 8.58305C22.4481 8.4439 22.5766 8.33286 22.7372 8.27664C22.8978 8.22042 23.0794 8.22323 23.2368 8.28367C24.2985 8.69268 25.5081 8.69268 26.5699 8.28367C26.8976 8.1642 27.2751 8.29913 27.4117 8.58446C27.5498 8.87119 27.3956 9.20007 27.0679 9.32097C26.3884 9.57819 25.6559 9.71308 24.9154 9.71733Z" fill="black"/>
<path d="M24.9203 11.4909C23.8569 11.4853 22.8063 11.2956 21.8281 10.9343C21.6674 10.8781 21.5405 10.7685 21.4731 10.6307C21.4072 10.4916 21.4056 10.3356 21.4715 10.1978C21.5373 10.0587 21.6626 9.94763 21.8216 9.89141C21.9807 9.83378 22.159 9.83519 22.3164 9.89422C23.9645 10.5281 25.8423 10.5281 27.4904 9.89422C27.6478 9.83378 27.8261 9.83097 27.9867 9.88579C28.1474 9.94201 28.2743 10.0516 28.3417 10.1908C28.4092 10.3299 28.4092 10.486 28.3417 10.6251C28.2759 10.7642 28.149 10.8739 27.9883 10.9301C27.0197 11.2955 25.9756 11.4867 24.9203 11.4909Z" fill="black"/>
<path d="M27.7317 17.4639H22.2493C21.1151 17.4673 20.1968 18.3856 20.1934 19.5198V20.8904C20.1934 21.072 20.2653 21.2468 20.3938 21.3753C20.5223 21.5038 20.6971 21.5757 20.8787 21.5757H22.2493C22.46 21.5723 22.6725 21.5517 22.8798 21.514C24.1116 22.5094 25.8694 22.5094 27.1013 21.514C27.3086 21.5517 27.521 21.5723 27.7318 21.5757H29.1024C29.284 21.5757 29.4587 21.5038 29.5872 21.3753C29.7157 21.2468 29.7877 21.072 29.7877 20.8904V19.5198C29.7843 18.3856 28.8659 17.4673 27.7317 17.4639ZM22.2493 20.2051H21.564V19.5198C21.564 19.1412 21.8706 18.8345 22.2493 18.8345H24.1887C23.8957 19.6551 23.1196 20.2034 22.2493 20.2051ZM24.4149 20.7808C24.6307 20.606 24.8243 20.4055 24.9905 20.1845C25.1567 20.4055 25.3503 20.606 25.5662 20.7808C25.191 20.8904 24.7901 20.8904 24.4149 20.7808ZM28.417 20.2051H27.7317C26.8614 20.2034 26.0853 19.6551 25.7923 18.8345H27.7317C27.9133 18.8345 28.0881 18.9064 28.2166 19.0349C28.3451 19.1634 28.4171 19.3382 28.4171 19.5198L28.417 20.2051Z" fill="black"/>
<rect x="8.03198" y="42.626" width="34.1493" height="1.12401" fill="black"/>
</g>
<defs>
<clipPath id="clip0_91_948">
<rect width="50" height="43.75" fill="white"/>
</clipPath>
</defs>
</svg>
