<svg width="50" height="51" viewBox="0 0 50 51" fill="none" xmlns="http://www.w3.org/2000/svg">
<path d="M17.1794 19.9334C16.2888 19.328 15.6677 18.4412 15.4372 17.4022C14.9021 15.0467 16.5349 12.658 19.0818 12.0761C19.7068 11.9375 20.3435 11.9238 20.9548 12.0195C21.6579 10.793 22.99 10.0059 24.4626 10.0059C25.3884 10.0059 26.2673 10.3164 26.9724 10.8731C27.6599 10.3379 28.5153 10.0059 29.4587 10.0059C31.2243 10.0059 32.7615 11.1406 33.2966 12.7383C35.7302 12.7519 37.7048 14.7363 37.7048 17.1758C37.7048 19.2129 36.2927 20.9609 34.3787 21.457C34.158 23.4062 32.3572 24.9297 30.1736 24.9297C30.156 24.9297 28.9158 24.8945 27.906 24.3867C27.6325 24.8867 27.2165 25.3125 26.6736 25.5996C25.4275 26.2578 24.7361 27.0977 24.6228 28.1016C24.5779 28.4961 24.2439 28.7949 23.8474 28.7949H21.2009C20.8337 28.7949 20.5153 28.5391 20.4372 28.1816L19.7087 24.8574C18.0798 24.5566 16.8435 23.125 16.8435 21.4102C16.8435 20.8809 16.9685 20.3846 17.1794 19.9334ZM20.3083 23.3533C20.3533 23.3513 20.4001 23.3533 20.447 23.3592C20.7751 23.4002 21.0427 23.6443 21.113 23.9666L21.8279 27.2342H23.2087C23.5681 26.0135 24.5017 24.9803 25.9431 24.2186C26.6072 23.869 26.7615 23.2283 26.6834 22.7479C26.6482 22.533 26.4705 21.8201 25.6189 21.6776C25.1345 21.5955 24.5681 21.6522 23.9334 21.8397C23.5193 21.9647 23.0838 21.7283 22.9607 21.3143C22.8377 20.9002 23.072 20.4666 23.4861 20.3416C24.3514 20.0838 25.156 20.0135 25.8767 20.1346C27.1052 20.3416 28.0271 21.2693 28.2263 22.4979C28.238 22.5721 28.238 22.6424 28.2439 22.7166C28.4763 23.0682 29.5681 23.369 30.1716 23.369C31.6423 23.369 32.8376 22.3319 32.8376 21.0545C32.8376 21.0487 32.8357 21.0428 32.8357 21.035C32.8201 20.9823 32.7966 20.9315 32.7908 20.8729C32.7869 20.8358 32.8025 20.8006 32.8044 20.7635C32.6384 19.6249 31.529 18.7381 30.1736 18.7381L30.0271 18.742C29.5955 18.7694 29.2302 18.4315 29.2087 18.0018C29.1873 17.5701 29.5193 17.2049 29.949 17.1834C30.0232 17.1795 30.0994 17.1776 30.1736 17.1776C32.0564 17.1776 33.656 18.3143 34.201 19.8768C35.3279 19.4861 36.1424 18.4158 36.1424 17.1756C36.1424 15.5897 34.8553 14.2987 33.2732 14.2987C32.7693 14.2987 32.3025 14.4198 31.8846 14.658C31.5096 14.8729 31.033 14.742 30.8182 14.367C30.6033 13.992 30.7342 13.5155 31.1092 13.3006C31.3045 13.1893 31.5115 13.0995 31.7225 13.0194C31.3377 12.16 30.4627 11.5643 29.4588 11.5643C28.0955 11.5643 26.9842 12.6463 26.9842 13.9783C26.9842 14.076 26.9901 14.1717 27.0018 14.2654C27.0545 14.6932 26.7498 15.0838 26.3201 15.1346C26.2889 15.1385 26.2557 15.1404 26.2244 15.1404C25.8358 15.1404 25.4979 14.8494 25.451 14.4529C25.4315 14.2967 25.4217 14.1365 25.4217 13.9764C25.4217 13.2752 25.6229 12.6248 25.949 12.0506C25.5272 11.7381 25.0096 11.5623 24.4646 11.5623C23.6717 11.5623 22.9451 11.9295 22.4881 12.5213C22.6346 12.5994 22.7772 12.6854 22.9139 12.7811C23.2693 13.0252 23.3611 13.5115 23.117 13.867C22.8729 14.2225 22.3865 14.3143 22.031 14.0701C21.2947 13.5662 20.3455 13.3943 19.4295 13.5975C17.7264 13.9862 16.6209 15.535 16.9647 17.0565C17.115 17.7342 17.5467 18.3045 18.156 18.6893C18.7596 18.1991 19.5174 17.8924 20.3514 17.8924C20.6111 17.8924 20.8591 17.9217 21.1091 17.9822C21.5291 18.0838 21.7869 18.5057 21.6853 18.9236C21.5837 19.3436 21.1618 19.6014 20.7439 19.4998C20.613 19.4685 20.49 19.4549 20.3513 19.4549C19.2791 19.4549 18.408 20.3299 18.408 21.406C18.406 22.4685 19.2556 23.3319 20.3083 23.3533Z" fill="black"/>
<path d="M26.3681 6.17773C18.3796 6.17773 11.8796 12.6757 11.8796 20.6642V24.9474L9.26628 29.2013C9.13932 29.4064 9.11589 29.6584 9.19987 29.8849C9.28386 30.1096 9.46745 30.2834 9.69792 30.3556L13.4089 31.5197V35.8224C13.4089 37.5177 14.7878 38.8966 16.4831 38.8966H19.0553V44.0391C19.0553 44.4708 19.4049 44.8204 19.8366 44.8204C20.2682 44.8204 20.6178 44.4708 20.6178 44.0391V38.8966H22.6276C23.9459 38.8966 25.192 38.256 25.9577 37.1798L27.0553 35.6388C27.3053 35.2873 27.2233 34.799 26.8717 34.549C26.5202 34.299 26.0319 34.381 25.7819 34.7326L24.6842 36.2736C24.2096 36.9376 23.4401 37.3341 22.6256 37.3341H16.4811C15.6471 37.3341 14.9694 36.6564 14.9694 35.8224V30.9455C14.9694 30.6037 14.7487 30.3029 14.4225 30.1994L11.1217 29.1642L13.3268 25.5763C13.403 25.4533 13.4421 25.3127 13.4421 25.1681V20.6642C13.4421 13.5372 19.2411 7.74023 26.3681 7.74023C33.4951 7.74023 39.2921 13.5392 39.2921 20.6642C39.2921 23.7287 38.503 26.7617 37.0089 29.4357C35.7179 31.7482 35.0343 34.3693 35.0343 37.0177V44.0392C35.0343 44.4709 35.3839 44.8205 35.8155 44.8205C36.2472 44.8205 36.5968 44.4709 36.5968 44.0392V37.0177C36.5968 34.6349 37.2101 32.2775 38.3722 30.1952C39.9952 27.289 40.8526 23.9922 40.8526 20.6622C40.8546 12.6757 34.3566 6.17773 26.3681 6.17773Z" fill="black"/>
</svg>
