<svg width="142" height="52" viewBox="0 0 142 52" fill="none" xmlns="http://www.w3.org/2000/svg">
<rect x="3.5" y="1" width="135" height="50" rx="7.5" stroke="#E6E6E6"/>
<path d="M14.6792 20.4334C13.7886 19.828 13.1675 18.9412 12.937 17.9022C12.4018 15.5467 14.0346 13.158 16.5815 12.5761C17.2065 12.4375 17.8432 12.4238 18.4546 12.5195C19.1577 11.293 20.4897 10.5059 21.9624 10.5059C22.8882 10.5059 23.7671 10.8164 24.4721 11.3731C25.1596 10.8379 26.0151 10.5059 26.9585 10.5059C28.7241 10.5059 30.2612 11.6406 30.7964 13.2383C33.23 13.2519 35.2046 15.2363 35.2046 17.6758C35.2046 19.7129 33.7925 21.4609 31.8784 21.957C31.6577 23.9062 29.8569 25.4297 27.6733 25.4297C27.6558 25.4297 26.4155 25.3945 25.4057 24.8867C25.1323 25.3867 24.7163 25.8125 24.1733 26.0996C22.9272 26.7578 22.2358 27.5977 22.1225 28.6016C22.0776 28.9961 21.7436 29.2949 21.3471 29.2949H18.7006C18.3335 29.2949 18.0151 29.0391 17.937 28.6816L17.2085 25.3574C15.5796 25.0566 14.3432 23.625 14.3432 21.9102C14.3432 21.3809 14.4682 20.8846 14.6792 20.4334ZM17.8081 23.8533C17.853 23.8513 17.8999 23.8533 17.9468 23.8592C18.2749 23.9002 18.5425 24.1443 18.6128 24.4666L19.3276 27.7342H20.7085C21.0678 26.5135 22.0014 25.4803 23.4429 24.7186C24.1069 24.369 24.2612 23.7283 24.1831 23.2479C24.148 23.033 23.9702 22.3201 23.1187 22.1776C22.6343 22.0955 22.0679 22.1522 21.4331 22.3397C21.019 22.4647 20.5835 22.2283 20.4605 21.8143C20.3374 21.4002 20.5718 20.9666 20.9859 20.8416C21.8511 20.5838 22.6558 20.5135 23.3765 20.6346C24.605 20.8416 25.5269 21.7693 25.7261 22.9979C25.7378 23.0721 25.7378 23.1424 25.7436 23.2166C25.9761 23.5682 27.0678 23.869 27.6714 23.869C29.1421 23.869 30.3374 22.8319 30.3374 21.5545C30.3374 21.5487 30.3354 21.5428 30.3354 21.535C30.3198 21.4823 30.2964 21.4315 30.2905 21.3729C30.2866 21.3358 30.3022 21.3006 30.3042 21.2635C30.1382 20.1249 29.0288 19.2381 27.6733 19.2381L27.5268 19.242C27.0952 19.2694 26.7299 18.9315 26.7085 18.5018C26.687 18.0701 27.019 17.7049 27.4487 17.6834C27.523 17.6795 27.5991 17.6776 27.6734 17.6776C29.5562 17.6776 31.1558 18.8143 31.7007 20.3768C32.8277 19.9861 33.6421 18.9158 33.6421 17.6756C33.6421 16.0897 32.355 14.7987 30.773 14.7987C30.2691 14.7987 29.8023 14.9198 29.3843 15.158C29.0093 15.3729 28.5328 15.242 28.3179 14.867C28.1031 14.492 28.2339 14.0155 28.6089 13.8006C28.8042 13.6893 29.0113 13.5995 29.2222 13.5194C28.8375 12.66 27.9625 12.0643 26.9586 12.0643C25.5953 12.0643 24.484 13.1463 24.484 14.4783C24.484 14.576 24.4898 14.6717 24.5016 14.7654C24.5543 15.1932 24.2496 15.5838 23.8199 15.6346C23.7887 15.6385 23.7554 15.6404 23.7242 15.6404C23.3355 15.6404 22.9976 15.3494 22.9507 14.9529C22.9312 14.7967 22.9214 14.6365 22.9214 14.4764C22.9214 13.7752 23.1226 13.1248 23.4488 12.5506C23.0269 12.2381 22.5093 12.0623 21.9644 12.0623C21.1714 12.0623 20.4448 12.4295 19.9878 13.0213C20.1343 13.0994 20.2769 13.1854 20.4136 13.2811C20.7691 13.5252 20.8609 14.0115 20.6168 14.367C20.3726 14.7225 19.8863 14.8143 19.5308 14.5701C18.7945 14.0662 17.8453 13.8943 16.9293 14.0975C15.2262 14.4862 14.1207 16.035 14.4644 17.5565C14.6148 18.2342 15.0465 18.8045 15.6558 19.1893C16.2593 18.6991 17.0172 18.3924 17.8511 18.3924C18.1109 18.3924 18.3589 18.4217 18.6089 18.4822C19.0288 18.5838 19.2867 19.0057 19.1851 19.4236C19.0835 19.8436 18.6616 20.1014 18.2437 19.9998C18.1128 19.9685 17.9898 19.9549 17.8511 19.9549C16.7788 19.9549 15.9077 20.8299 15.9077 21.906C15.9058 22.9685 16.7553 23.8319 17.8081 23.8533Z" fill="black"/>
<path d="M24.1348 6.67774C32.1234 6.67774 38.6234 13.1757 38.6234 21.1642V25.4474L41.2367 29.7013C41.3636 29.9064 41.387 30.1584 41.3031 30.3849C41.2191 30.6096 41.0355 30.7834 40.805 30.8556L37.0941 32.0197V36.3224C37.0941 38.0177 35.7152 39.3966 34.0199 39.3966H31.4476V44.5391C31.4476 44.9708 31.098 45.3204 30.6664 45.3204C30.2347 45.3204 29.8851 44.9708 29.8851 44.5391V39.3966H27.8754C26.557 39.3966 25.3109 38.756 24.5453 37.6798L23.4476 36.1388C23.1976 35.7873 23.2796 35.299 23.6312 35.049C23.9828 34.799 24.4711 34.881 24.7211 35.2326L25.8187 36.7736C26.2933 37.4376 27.0629 37.8341 27.8773 37.8341H34.0218C34.8558 37.8341 35.5335 37.1564 35.5335 36.3224V31.4455C35.5335 31.1037 35.7542 30.8029 36.0804 30.6994L39.3812 29.6642L37.1761 26.0763C37.0999 25.9533 37.0609 25.8127 37.0609 25.6681V21.1642C37.0609 14.0372 31.2619 8.24023 24.1349 8.24023C17.0079 8.24023 11.2109 14.0392 11.2109 21.1642C11.2109 24.2287 11.9999 27.2617 13.4941 29.9357C14.7851 32.2482 15.4687 34.8693 15.4687 37.5177V44.5392C15.4687 44.9709 15.1191 45.3205 14.6874 45.3205C14.2558 45.3205 13.9062 44.9709 13.9062 44.5392V37.5177C13.9062 35.1349 13.2929 32.7775 12.1308 30.6952C10.5077 27.789 9.65032 24.4922 9.65032 21.1622C9.64837 13.1757 16.1463 6.67774 24.1348 6.67774Z" fill="black"/>
<path d="M63.9453 30.5L61.0059 20.6357H64.3555L65.8115 27.5059H65.9482L67.4043 20.6357H70.7539L67.8145 30.5H63.9453ZM76.2158 30.7734C75.3636 30.7734 74.6253 30.6549 74.001 30.418C73.3812 30.1764 72.8958 29.8324 72.5449 29.3857C72.1986 28.9346 72.0094 28.3923 71.9775 27.7588L71.9707 27.6221H74.7256L74.7324 27.6768C74.7552 27.8408 74.8304 27.9889 74.958 28.1211C75.0856 28.2533 75.2588 28.3581 75.4775 28.4355C75.7008 28.513 75.9583 28.5518 76.25 28.5518C76.5417 28.5518 76.79 28.5153 76.9951 28.4424C77.2048 28.3649 77.3665 28.2601 77.4805 28.1279C77.5944 27.9912 77.6514 27.8385 77.6514 27.6699V27.6631C77.6514 27.4261 77.5397 27.2529 77.3164 27.1436C77.0931 27.0296 76.708 26.9225 76.1611 26.8223L75.1699 26.6377C74.1126 26.4372 73.3424 26.0885 72.8594 25.5918C72.3763 25.0905 72.1348 24.4479 72.1348 23.6641V23.6572C72.1348 22.9827 72.3102 22.3994 72.6611 21.9072C73.012 21.415 73.4906 21.0345 74.0967 20.7656C74.7074 20.4967 75.4023 20.3623 76.1816 20.3623C77.0612 20.3623 77.7972 20.4945 78.3896 20.7588C78.9821 21.0186 79.4378 21.3831 79.7568 21.8525C80.0758 22.3174 80.2627 22.8551 80.3174 23.4658L80.3242 23.541H77.665L77.6514 23.4658C77.6195 23.2835 77.5397 23.1286 77.4121 23.001C77.2891 22.8688 77.125 22.7663 76.9199 22.6934C76.7148 22.6204 76.4801 22.584 76.2158 22.584C75.9515 22.584 75.7282 22.6204 75.5459 22.6934C75.3682 22.7617 75.2337 22.8574 75.1426 22.9805C75.0514 23.099 75.0059 23.2334 75.0059 23.3838V23.3906C75.0059 23.6367 75.1175 23.8281 75.3408 23.9648C75.5641 24.097 75.9219 24.2087 76.4141 24.2998L77.4053 24.4844C78.1117 24.6165 78.695 24.8034 79.1553 25.0449C79.6156 25.2865 79.9574 25.5986 80.1807 25.9814C80.4085 26.3597 80.5225 26.8245 80.5225 27.376V27.3828C80.5225 28.071 80.3516 28.6702 80.0098 29.1807C79.6725 29.6865 79.1826 30.0785 78.54 30.3564C77.8975 30.6344 77.1227 30.7734 76.2158 30.7734Z" fill="black"/>
<path d="M108.68 20.4334C107.789 19.828 107.168 18.9412 106.937 17.9022C106.402 15.5467 108.035 13.158 110.582 12.5761C111.207 12.4375 111.844 12.4238 112.455 12.5195C113.158 11.293 114.49 10.5059 115.963 10.5059C116.889 10.5059 117.768 10.8164 118.473 11.3731C119.16 10.8379 120.016 10.5059 120.959 10.5059C122.725 10.5059 124.262 11.6406 124.797 13.2383C127.23 13.2519 129.205 15.2363 129.205 17.6758C129.205 19.7129 127.793 21.4609 125.879 21.957C125.658 23.9062 123.857 25.4297 121.674 25.4297C121.656 25.4297 120.416 25.3945 119.406 24.8867C119.133 25.3867 118.717 25.8125 118.174 26.0996C116.928 26.7578 116.236 27.5977 116.123 28.6016C116.078 28.9961 115.744 29.2949 115.348 29.2949H112.701C112.334 29.2949 112.016 29.0391 111.937 28.6816L111.209 25.3574C109.58 25.0566 108.344 23.625 108.344 21.9102C108.344 21.3809 108.469 20.8846 108.68 20.4334ZM111.809 23.8533C111.853 23.8513 111.9 23.8533 111.947 23.8592C112.275 23.9002 112.543 24.1443 112.613 24.4666L113.328 27.7342H114.709C115.068 26.5135 116.002 25.4803 117.443 24.7186C118.107 24.369 118.262 23.7283 118.184 23.2479C118.148 23.033 117.971 22.3201 117.119 22.1776C116.635 22.0955 116.068 22.1522 115.434 22.3397C115.02 22.4647 114.584 22.2283 114.461 21.8143C114.338 21.4002 114.572 20.9666 114.986 20.8416C115.852 20.5838 116.656 20.5135 117.377 20.6346C118.605 20.8416 119.527 21.7693 119.727 22.9979C119.738 23.0721 119.738 23.1424 119.744 23.2166C119.977 23.5682 121.068 23.869 121.672 23.869C123.143 23.869 124.338 22.8319 124.338 21.5545C124.338 21.5487 124.336 21.5428 124.336 21.535C124.32 21.4823 124.297 21.4315 124.291 21.3729C124.287 21.3358 124.303 21.3006 124.305 21.2635C124.139 20.1249 123.029 19.2381 121.674 19.2381L121.527 19.242C121.096 19.2694 120.73 18.9315 120.709 18.5018C120.688 18.0701 121.02 17.7049 121.449 17.6834C121.523 17.6795 121.6 17.6776 121.674 17.6776C123.557 17.6776 125.156 18.8143 125.701 20.3768C126.828 19.9861 127.643 18.9158 127.643 17.6756C127.643 16.0897 126.355 14.7987 124.773 14.7987C124.27 14.7987 123.803 14.9198 123.385 15.158C123.01 15.3729 122.533 15.242 122.318 14.867C122.104 14.492 122.234 14.0155 122.609 13.8006C122.805 13.6893 123.012 13.5995 123.223 13.5194C122.838 12.66 121.963 12.0643 120.959 12.0643C119.596 12.0643 118.484 13.1463 118.484 14.4783C118.484 14.576 118.49 14.6717 118.502 14.7654C118.555 15.1932 118.25 15.5838 117.82 15.6346C117.789 15.6385 117.756 15.6404 117.725 15.6404C117.336 15.6404 116.998 15.3494 116.951 14.9529C116.932 14.7967 116.922 14.6365 116.922 14.4764C116.922 13.7752 117.123 13.1248 117.449 12.5506C117.027 12.2381 116.51 12.0623 115.965 12.0623C115.172 12.0623 114.445 12.4295 113.988 13.0213C114.135 13.0994 114.277 13.1854 114.414 13.2811C114.77 13.5252 114.861 14.0115 114.617 14.367C114.373 14.7225 113.887 14.8143 113.531 14.5701C112.795 14.0662 111.846 13.8943 110.93 14.0975C109.227 14.4862 108.121 16.035 108.465 17.5565C108.615 18.2342 109.047 18.8045 109.656 19.1893C110.26 18.6991 111.018 18.3924 111.852 18.3924C112.111 18.3924 112.359 18.4217 112.609 18.4822C113.029 18.5838 113.287 19.0057 113.186 19.4236C113.084 19.8436 112.662 20.1014 112.244 19.9998C112.113 19.9685 111.99 19.9549 111.852 19.9549C110.779 19.9549 109.908 20.8299 109.908 21.906C109.906 22.9685 110.756 23.8319 111.809 23.8533Z" fill="black"/>
<path d="M117.868 6.67773C109.88 6.67773 103.38 13.1757 103.38 21.1642V25.4474L100.766 29.7013C100.639 29.9064 100.616 30.1584 100.7 30.3849C100.784 30.6096 100.967 30.7834 101.198 30.8556L104.909 32.0197V36.3224C104.909 38.0177 106.288 39.3966 107.983 39.3966H110.555V44.5391C110.555 44.9708 110.905 45.3204 111.337 45.3204C111.768 45.3204 112.118 44.9708 112.118 44.5391V39.3966H114.128C115.446 39.3966 116.692 38.756 117.458 37.6798L118.555 36.1388C118.805 35.7873 118.723 35.299 118.372 35.049C118.02 34.799 117.532 34.881 117.282 35.2326L116.184 36.7736C115.71 37.4376 114.94 37.8341 114.126 37.8341H107.981C107.147 37.8341 106.469 37.1564 106.469 36.3224V31.4455C106.469 31.1037 106.249 30.8029 105.923 30.6994L102.622 29.6642L104.827 26.0763C104.903 25.9533 104.942 25.8127 104.942 25.6681V21.1642C104.942 14.0372 110.741 8.24023 117.868 8.24023C124.995 8.24023 130.792 14.0392 130.792 21.1642C130.792 24.2287 130.003 27.2617 128.509 29.9357C127.218 32.2482 126.534 34.8693 126.534 37.5177V44.5392C126.534 44.9709 126.884 45.3205 127.316 45.3205C127.747 45.3205 128.097 44.9709 128.097 44.5392V37.5177C128.097 35.1349 128.71 32.7775 129.872 30.6952C131.495 27.789 132.353 24.4922 132.353 21.1622C132.355 13.1757 125.857 6.67773 117.868 6.67773Z" fill="black"/>
</svg>
