<svg width="142" height="50" viewBox="0 0 142 50" fill="none" xmlns="http://www.w3.org/2000/svg">
<path d="M14.6792 19.4334C13.7886 18.828 13.1675 17.9412 12.937 16.9022C12.4018 14.5467 14.0346 12.158 16.5815 11.5761C17.2065 11.4375 17.8432 11.4238 18.4546 11.5195C19.1577 10.293 20.4897 9.50586 21.9624 9.50586C22.8882 9.50586 23.7671 9.8164 24.4721 10.3731C25.1596 9.83791 26.0151 9.50586 26.9585 9.50586C28.7241 9.50586 30.2612 10.6406 30.7964 12.2383C33.23 12.2519 35.2046 14.2363 35.2046 16.6758C35.2046 18.7129 33.7925 20.4609 31.8784 20.957C31.6577 22.9062 29.8569 24.4297 27.6733 24.4297C27.6558 24.4297 26.4155 24.3945 25.4057 23.8867C25.1323 24.3867 24.7163 24.8125 24.1733 25.0996C22.9272 25.7578 22.2358 26.5977 22.1225 27.6016C22.0776 27.9961 21.7436 28.2949 21.3471 28.2949H18.7006C18.3335 28.2949 18.0151 28.0391 17.937 27.6816L17.2085 24.3574C15.5796 24.0566 14.3432 22.625 14.3432 20.9102C14.3432 20.3809 14.4682 19.8846 14.6792 19.4334ZM17.8081 22.8533C17.853 22.8513 17.8999 22.8533 17.9468 22.8592C18.2749 22.9002 18.5425 23.1443 18.6128 23.4666L19.3276 26.7342H20.7085C21.0678 25.5135 22.0014 24.4803 23.4429 23.7186C24.1069 23.369 24.2612 22.7283 24.1831 22.2479C24.148 22.033 23.9702 21.3201 23.1187 21.1776C22.6343 21.0955 22.0679 21.1522 21.4331 21.3397C21.019 21.4647 20.5835 21.2283 20.4605 20.8143C20.3374 20.4002 20.5718 19.9666 20.9859 19.8416C21.8511 19.5838 22.6558 19.5135 23.3765 19.6346C24.605 19.8416 25.5269 20.7693 25.7261 21.9979C25.7378 22.0721 25.7378 22.1424 25.7436 22.2166C25.9761 22.5682 27.0678 22.869 27.6714 22.869C29.1421 22.869 30.3374 21.8319 30.3374 20.5545C30.3374 20.5487 30.3354 20.5428 30.3354 20.535C30.3198 20.4823 30.2964 20.4315 30.2905 20.3729C30.2866 20.3358 30.3022 20.3006 30.3042 20.2635C30.1382 19.1249 29.0288 18.2381 27.6733 18.2381L27.5268 18.242C27.0952 18.2694 26.7299 17.9315 26.7085 17.5018C26.687 17.0701 27.019 16.7049 27.4487 16.6834C27.523 16.6795 27.5991 16.6776 27.6734 16.6776C29.5562 16.6776 31.1558 17.8143 31.7007 19.3768C32.8277 18.9861 33.6421 17.9158 33.6421 16.6756C33.6421 15.0897 32.355 13.7987 30.773 13.7987C30.2691 13.7987 29.8023 13.9198 29.3843 14.158C29.0093 14.3729 28.5328 14.242 28.3179 13.867C28.1031 13.492 28.2339 13.0155 28.6089 12.8006C28.8042 12.6893 29.0113 12.5995 29.2222 12.5194C28.8375 11.66 27.9625 11.0643 26.9586 11.0643C25.5953 11.0643 24.484 12.1463 24.484 13.4783C24.484 13.576 24.4898 13.6717 24.5016 13.7654C24.5543 14.1932 24.2496 14.5838 23.8199 14.6346C23.7887 14.6385 23.7554 14.6404 23.7242 14.6404C23.3355 14.6404 22.9976 14.3494 22.9507 13.9529C22.9312 13.7967 22.9214 13.6365 22.9214 13.4764C22.9214 12.7752 23.1226 12.1248 23.4488 11.5506C23.0269 11.2381 22.5093 11.0623 21.9644 11.0623C21.1714 11.0623 20.4448 11.4295 19.9878 12.0213C20.1343 12.0994 20.2769 12.1854 20.4136 12.2811C20.7691 12.5252 20.8609 13.0115 20.6168 13.367C20.3726 13.7225 19.8863 13.8143 19.5308 13.5701C18.7945 13.0662 17.8453 12.8943 16.9293 13.0975C15.2262 13.4862 14.1207 15.035 14.4644 16.5565C14.6148 17.2342 15.0465 17.8045 15.6558 18.1893C16.2593 17.6991 17.0172 17.3924 17.8511 17.3924C18.1109 17.3924 18.3589 17.4217 18.6089 17.4822C19.0288 17.5838 19.2867 18.0057 19.1851 18.4236C19.0835 18.8436 18.6616 19.1014 18.2437 18.9998C18.1128 18.9685 17.9898 18.9549 17.8511 18.9549C16.7788 18.9549 15.9077 19.8299 15.9077 20.906C15.9058 21.9685 16.7553 22.8319 17.8081 22.8533Z" fill="black"/>
<path d="M24.1348 5.67774C32.1234 5.67774 38.6234 12.1757 38.6234 20.1642V24.4474L41.2367 28.7013C41.3636 28.9064 41.387 29.1584 41.3031 29.3849C41.2191 29.6096 41.0355 29.7834 40.805 29.8556L37.0941 31.0197V35.3224C37.0941 37.0177 35.7152 38.3966 34.0199 38.3966H31.4476V43.5391C31.4476 43.9708 31.098 44.3204 30.6664 44.3204C30.2347 44.3204 29.8851 43.9708 29.8851 43.5391V38.3966H27.8754C26.557 38.3966 25.3109 37.756 24.5453 36.6798L23.4476 35.1388C23.1976 34.7873 23.2796 34.299 23.6312 34.049C23.9828 33.799 24.4711 33.881 24.7211 34.2326L25.8187 35.7736C26.2933 36.4376 27.0629 36.8341 27.8773 36.8341H34.0218C34.8558 36.8341 35.5335 36.1564 35.5335 35.3224V30.4455C35.5335 30.1037 35.7542 29.8029 36.0804 29.6994L39.3812 28.6642L37.1761 25.0763C37.0999 24.9533 37.0609 24.8127 37.0609 24.6681V20.1642C37.0609 13.0372 31.2619 7.24023 24.1349 7.24023C17.0079 7.24023 11.2109 13.0392 11.2109 20.1642C11.2109 23.2287 11.9999 26.2617 13.4941 28.9357C14.7851 31.2482 15.4687 33.8693 15.4687 36.5177V43.5392C15.4687 43.9709 15.1191 44.3205 14.6874 44.3205C14.2558 44.3205 13.9062 43.9709 13.9062 43.5392V36.5177C13.9062 34.1349 13.2929 31.7775 12.1308 29.6952C10.5077 26.789 9.65032 23.4922 9.65032 20.1622C9.64837 12.1757 16.1463 5.67774 24.1348 5.67774Z" fill="black"/>
<path d="M63.9453 29.5L61.0059 19.6357H64.3555L65.8115 26.5059H65.9482L67.4043 19.6357H70.7539L67.8145 29.5H63.9453ZM76.2158 29.7734C75.3636 29.7734 74.6253 29.6549 74.001 29.418C73.3812 29.1764 72.8958 28.8324 72.5449 28.3857C72.1986 27.9346 72.0094 27.3923 71.9775 26.7588L71.9707 26.6221H74.7256L74.7324 26.6768C74.7552 26.8408 74.8304 26.9889 74.958 27.1211C75.0856 27.2533 75.2588 27.3581 75.4775 27.4355C75.7008 27.513 75.9583 27.5518 76.25 27.5518C76.5417 27.5518 76.79 27.5153 76.9951 27.4424C77.2048 27.3649 77.3665 27.2601 77.4805 27.1279C77.5944 26.9912 77.6514 26.8385 77.6514 26.6699V26.6631C77.6514 26.4261 77.5397 26.2529 77.3164 26.1436C77.0931 26.0296 76.708 25.9225 76.1611 25.8223L75.1699 25.6377C74.1126 25.4372 73.3424 25.0885 72.8594 24.5918C72.3763 24.0905 72.1348 23.4479 72.1348 22.6641V22.6572C72.1348 21.9827 72.3102 21.3994 72.6611 20.9072C73.012 20.415 73.4906 20.0345 74.0967 19.7656C74.7074 19.4967 75.4023 19.3623 76.1816 19.3623C77.0612 19.3623 77.7972 19.4945 78.3896 19.7588C78.9821 20.0186 79.4378 20.3831 79.7568 20.8525C80.0758 21.3174 80.2627 21.8551 80.3174 22.4658L80.3242 22.541H77.665L77.6514 22.4658C77.6195 22.2835 77.5397 22.1286 77.4121 22.001C77.2891 21.8688 77.125 21.7663 76.9199 21.6934C76.7148 21.6204 76.4801 21.584 76.2158 21.584C75.9515 21.584 75.7282 21.6204 75.5459 21.6934C75.3682 21.7617 75.2337 21.8574 75.1426 21.9805C75.0514 22.099 75.0059 22.2334 75.0059 22.3838V22.3906C75.0059 22.6367 75.1175 22.8281 75.3408 22.9648C75.5641 23.097 75.9219 23.2087 76.4141 23.2998L77.4053 23.4844C78.1117 23.6165 78.695 23.8034 79.1553 24.0449C79.6156 24.2865 79.9574 24.5986 80.1807 24.9814C80.4085 25.3597 80.5225 25.8245 80.5225 26.376V26.3828C80.5225 27.071 80.3516 27.6702 80.0098 28.1807C79.6725 28.6865 79.1826 29.0785 78.54 29.3564C77.8975 29.6344 77.1227 29.7734 76.2158 29.7734Z" fill="black"/>
<path d="M108.68 19.4334C107.789 18.828 107.168 17.9412 106.937 16.9022C106.402 14.5467 108.035 12.158 110.582 11.5761C111.207 11.4375 111.844 11.4238 112.455 11.5195C113.158 10.293 114.49 9.50586 115.963 9.50586C116.889 9.50586 117.768 9.8164 118.473 10.3731C119.16 9.83791 120.016 9.50586 120.959 9.50586C122.725 9.50586 124.262 10.6406 124.797 12.2383C127.23 12.2519 129.205 14.2363 129.205 16.6758C129.205 18.7129 127.793 20.4609 125.879 20.957C125.658 22.9062 123.857 24.4297 121.674 24.4297C121.656 24.4297 120.416 24.3945 119.406 23.8867C119.133 24.3867 118.717 24.8125 118.174 25.0996C116.928 25.7578 116.236 26.5977 116.123 27.6016C116.078 27.9961 115.744 28.2949 115.348 28.2949H112.701C112.334 28.2949 112.016 28.0391 111.937 27.6816L111.209 24.3574C109.58 24.0566 108.344 22.625 108.344 20.9102C108.344 20.3809 108.469 19.8846 108.68 19.4334ZM111.809 22.8533C111.853 22.8513 111.9 22.8533 111.947 22.8592C112.275 22.9002 112.543 23.1443 112.613 23.4666L113.328 26.7342H114.709C115.068 25.5135 116.002 24.4803 117.443 23.7186C118.107 23.369 118.262 22.7283 118.184 22.2479C118.148 22.033 117.971 21.3201 117.119 21.1776C116.635 21.0955 116.068 21.1522 115.434 21.3397C115.02 21.4647 114.584 21.2283 114.461 20.8143C114.338 20.4002 114.572 19.9666 114.986 19.8416C115.852 19.5838 116.656 19.5135 117.377 19.6346C118.605 19.8416 119.527 20.7693 119.727 21.9979C119.738 22.0721 119.738 22.1424 119.744 22.2166C119.977 22.5682 121.068 22.869 121.672 22.869C123.143 22.869 124.338 21.8319 124.338 20.5545C124.338 20.5487 124.336 20.5428 124.336 20.535C124.32 20.4823 124.297 20.4315 124.291 20.3729C124.287 20.3358 124.303 20.3006 124.305 20.2635C124.139 19.1249 123.029 18.2381 121.674 18.2381L121.527 18.242C121.096 18.2694 120.73 17.9315 120.709 17.5018C120.688 17.0701 121.02 16.7049 121.449 16.6834C121.523 16.6795 121.6 16.6776 121.674 16.6776C123.557 16.6776 125.156 17.8143 125.701 19.3768C126.828 18.9861 127.643 17.9158 127.643 16.6756C127.643 15.0897 126.355 13.7987 124.773 13.7987C124.27 13.7987 123.803 13.9198 123.385 14.158C123.01 14.3729 122.533 14.242 122.318 13.867C122.104 13.492 122.234 13.0155 122.609 12.8006C122.805 12.6893 123.012 12.5995 123.223 12.5194C122.838 11.66 121.963 11.0643 120.959 11.0643C119.596 11.0643 118.484 12.1463 118.484 13.4783C118.484 13.576 118.49 13.6717 118.502 13.7654C118.555 14.1932 118.25 14.5838 117.82 14.6346C117.789 14.6385 117.756 14.6404 117.725 14.6404C117.336 14.6404 116.998 14.3494 116.951 13.9529C116.932 13.7967 116.922 13.6365 116.922 13.4764C116.922 12.7752 117.123 12.1248 117.449 11.5506C117.027 11.2381 116.51 11.0623 115.965 11.0623C115.172 11.0623 114.445 11.4295 113.988 12.0213C114.135 12.0994 114.277 12.1854 114.414 12.2811C114.77 12.5252 114.861 13.0115 114.617 13.367C114.373 13.7225 113.887 13.8143 113.531 13.5701C112.795 13.0662 111.846 12.8943 110.93 13.0975C109.227 13.4862 108.121 15.035 108.465 16.5565C108.615 17.2342 109.047 17.8045 109.656 18.1893C110.26 17.6991 111.018 17.3924 111.852 17.3924C112.111 17.3924 112.359 17.4217 112.609 17.4822C113.029 17.5838 113.287 18.0057 113.186 18.4236C113.084 18.8436 112.662 19.1014 112.244 18.9998C112.113 18.9685 111.99 18.9549 111.852 18.9549C110.779 18.9549 109.908 19.8299 109.908 20.906C109.906 21.9685 110.756 22.8319 111.809 22.8533Z" fill="black"/>
<path d="M117.868 5.67773C109.88 5.67773 103.38 12.1757 103.38 20.1642V24.4474L100.766 28.7013C100.639 28.9064 100.616 29.1584 100.7 29.3849C100.784 29.6096 100.967 29.7834 101.198 29.8556L104.909 31.0197V35.3224C104.909 37.0177 106.288 38.3966 107.983 38.3966H110.555V43.5391C110.555 43.9708 110.905 44.3204 111.337 44.3204C111.768 44.3204 112.118 43.9708 112.118 43.5391V38.3966H114.128C115.446 38.3966 116.692 37.756 117.458 36.6798L118.555 35.1388C118.805 34.7873 118.723 34.299 118.372 34.049C118.02 33.799 117.532 33.881 117.282 34.2326L116.184 35.7736C115.71 36.4376 114.94 36.8341 114.126 36.8341H107.981C107.147 36.8341 106.469 36.1564 106.469 35.3224V30.4455C106.469 30.1037 106.249 29.8029 105.923 29.6994L102.622 28.6642L104.827 25.0763C104.903 24.9533 104.942 24.8127 104.942 24.6681V20.1642C104.942 13.0372 110.741 7.24023 117.868 7.24023C124.995 7.24023 130.792 13.0392 130.792 20.1642C130.792 23.2287 130.003 26.2617 128.509 28.9357C127.218 31.2482 126.534 33.8693 126.534 36.5177V43.5392C126.534 43.9709 126.884 44.3205 127.316 44.3205C127.747 44.3205 128.097 43.9709 128.097 43.5392V36.5177C128.097 34.1349 128.71 31.7775 129.872 29.6952C131.495 26.789 132.353 23.4922 132.353 20.1622C132.355 12.1757 125.857 5.67773 117.868 5.67773Z" fill="black"/>
</svg>
