<svg width="142" height="52" viewBox="0 0 142 52" fill="none" xmlns="http://www.w3.org/2000/svg">
<rect x="3.5" y="1" width="135" height="50" rx="7.5" stroke="#E6E6E6"/>
<path d="M14.6792 20.4334C13.7886 19.828 13.1675 18.9412 12.937 17.9022C12.4018 15.5467 14.0346 13.158 16.5815 12.5761C17.2065 12.4375 17.8432 12.4238 18.4546 12.5195C19.1577 11.293 20.4897 10.5059 21.9624 10.5059C22.8882 10.5059 23.7671 10.8164 24.4721 11.3731C25.1596 10.8379 26.0151 10.5059 26.9585 10.5059C28.7241 10.5059 30.2612 11.6406 30.7964 13.2383C33.23 13.2519 35.2046 15.2363 35.2046 17.6758C35.2046 19.7129 33.7925 21.4609 31.8784 21.957C31.6577 23.9062 29.8569 25.4297 27.6733 25.4297C27.6558 25.4297 26.4155 25.3945 25.4057 24.8867C25.1323 25.3867 24.7163 25.8125 24.1733 26.0996C22.9272 26.7578 22.2358 27.5977 22.1225 28.6016C22.0776 28.9961 21.7436 29.2949 21.3471 29.2949H18.7006C18.3335 29.2949 18.0151 29.0391 17.937 28.6816L17.2085 25.3574C15.5796 25.0566 14.3432 23.625 14.3432 21.9102C14.3432 21.3809 14.4682 20.8846 14.6792 20.4334ZM17.8081 23.8533C17.853 23.8513 17.8999 23.8533 17.9468 23.8592C18.2749 23.9002 18.5425 24.1443 18.6128 24.4666L19.3276 27.7342H20.7085C21.0678 26.5135 22.0014 25.4803 23.4429 24.7186C24.1069 24.369 24.2612 23.7283 24.1831 23.2479C24.148 23.033 23.9702 22.3201 23.1187 22.1776C22.6343 22.0955 22.0679 22.1522 21.4331 22.3397C21.019 22.4647 20.5835 22.2283 20.4605 21.8143C20.3374 21.4002 20.5718 20.9666 20.9859 20.8416C21.8511 20.5838 22.6558 20.5135 23.3765 20.6346C24.605 20.8416 25.5269 21.7693 25.7261 22.9979C25.7378 23.0721 25.7378 23.1424 25.7436 23.2166C25.9761 23.5682 27.0678 23.869 27.6714 23.869C29.1421 23.869 30.3374 22.8319 30.3374 21.5545C30.3374 21.5487 30.3354 21.5428 30.3354 21.535C30.3198 21.4823 30.2964 21.4315 30.2905 21.3729C30.2866 21.3358 30.3022 21.3006 30.3042 21.2635C30.1382 20.1249 29.0288 19.2381 27.6733 19.2381L27.5268 19.242C27.0952 19.2694 26.7299 18.9315 26.7085 18.5018C26.687 18.0701 27.019 17.7049 27.4487 17.6834C27.523 17.6795 27.5991 17.6776 27.6734 17.6776C29.5562 17.6776 31.1558 18.8143 31.7007 20.3768C32.8277 19.9861 33.6421 18.9158 33.6421 17.6756C33.6421 16.0897 32.355 14.7987 30.773 14.7987C30.2691 14.7987 29.8023 14.9198 29.3843 15.158C29.0093 15.3729 28.5328 15.242 28.3179 14.867C28.1031 14.492 28.2339 14.0155 28.6089 13.8006C28.8042 13.6893 29.0113 13.5995 29.2222 13.5194C28.8375 12.66 27.9625 12.0643 26.9586 12.0643C25.5953 12.0643 24.484 13.1463 24.484 14.4783C24.484 14.576 24.4898 14.6717 24.5016 14.7654C24.5543 15.1932 24.2496 15.5838 23.8199 15.6346C23.7887 15.6385 23.7554 15.6404 23.7242 15.6404C23.3355 15.6404 22.9976 15.3494 22.9507 14.9529C22.9312 14.7967 22.9214 14.6365 22.9214 14.4764C22.9214 13.7752 23.1226 13.1248 23.4488 12.5506C23.0269 12.2381 22.5093 12.0623 21.9644 12.0623C21.1714 12.0623 20.4448 12.4295 19.9878 13.0213C20.1343 13.0994 20.2769 13.1854 20.4136 13.2811C20.7691 13.5252 20.8609 14.0115 20.6168 14.367C20.3726 14.7225 19.8863 14.8143 19.5308 14.5701C18.7945 14.0662 17.8453 13.8943 16.9293 14.0975C15.2262 14.4862 14.1207 16.035 14.4644 17.5565C14.6148 18.2342 15.0465 18.8045 15.6558 19.1893C16.2593 18.6991 17.0172 18.3924 17.8511 18.3924C18.1109 18.3924 18.3589 18.4217 18.6089 18.4822C19.0288 18.5838 19.2867 19.0057 19.1851 19.4236C19.0835 19.8436 18.6616 20.1014 18.2437 19.9998C18.1128 19.9685 17.9898 19.9549 17.8511 19.9549C16.7788 19.9549 15.9077 20.8299 15.9077 21.906C15.9058 22.9685 16.7553 23.8319 17.8081 23.8533Z" fill="black"/>
<path d="M24.1348 6.67774C32.1234 6.67774 38.6234 13.1757 38.6234 21.1642V25.4474L41.2367 29.7013C41.3636 29.9064 41.387 30.1584 41.3031 30.3849C41.2191 30.6096 41.0355 30.7834 40.805 30.8556L37.0941 32.0197V36.3224C37.0941 38.0177 35.7152 39.3966 34.0199 39.3966H31.4476V44.5391C31.4476 44.9708 31.098 45.3204 30.6664 45.3204C30.2347 45.3204 29.8851 44.9708 29.8851 44.5391V39.3966H27.8754C26.557 39.3966 25.3109 38.756 24.5453 37.6798L23.4476 36.1388C23.1976 35.7873 23.2796 35.299 23.6312 35.049C23.9828 34.799 24.4711 34.881 24.7211 35.2326L25.8187 36.7736C26.2933 37.4376 27.0629 37.8341 27.8773 37.8341H34.0218C34.8558 37.8341 35.5335 37.1564 35.5335 36.3224V31.4455C35.5335 31.1037 35.7542 30.8029 36.0804 30.6994L39.3812 29.6642L37.1761 26.0763C37.0999 25.9533 37.0609 25.8127 37.0609 25.6681V21.1642C37.0609 14.0372 31.2619 8.24023 24.1349 8.24023C17.0079 8.24023 11.2109 14.0392 11.2109 21.1642C11.2109 24.2287 11.9999 27.2617 13.4941 29.9357C14.7851 32.2482 15.4687 34.8693 15.4687 37.5177V44.5392C15.4687 44.9709 15.1191 45.3205 14.6874 45.3205C14.2558 45.3205 13.9062 44.9709 13.9062 44.5392V37.5177C13.9062 35.1349 13.2929 32.7775 12.1308 30.6952C10.5077 27.789 9.65032 24.4922 9.65032 21.1622C9.64837 13.1757 16.1463 6.67774 24.1348 6.67774Z" fill="black"/>
<path d="M63.9453 30.5L61.0059 20.6357H64.3555L65.8115 27.5059H65.9482L67.4043 20.6357H70.7539L67.8145 30.5H63.9453ZM76.2158 30.7734C75.3636 30.7734 74.6253 30.6549 74.001 30.418C73.3812 30.1764 72.8958 29.8324 72.5449 29.3857C72.1986 28.9346 72.0094 28.3923 71.9775 27.7588L71.9707 27.6221H74.7256L74.7324 27.6768C74.7552 27.8408 74.8304 27.9889 74.958 28.1211C75.0856 28.2533 75.2588 28.3581 75.4775 28.4355C75.7008 28.513 75.9583 28.5518 76.25 28.5518C76.5417 28.5518 76.79 28.5153 76.9951 28.4424C77.2048 28.3649 77.3665 28.2601 77.4805 28.1279C77.5944 27.9912 77.6514 27.8385 77.6514 27.6699V27.6631C77.6514 27.4261 77.5397 27.2529 77.3164 27.1436C77.0931 27.0296 76.708 26.9225 76.1611 26.8223L75.1699 26.6377C74.1126 26.4372 73.3424 26.0885 72.8594 25.5918C72.3763 25.0905 72.1348 24.4479 72.1348 23.6641V23.6572C72.1348 22.9827 72.3102 22.3994 72.6611 21.9072C73.012 21.415 73.4906 21.0345 74.0967 20.7656C74.7074 20.4967 75.4023 20.3623 76.1816 20.3623C77.0612 20.3623 77.7972 20.4945 78.3896 20.7588C78.9821 21.0186 79.4378 21.3831 79.7568 21.8525C80.0758 22.3174 80.2627 22.8551 80.3174 23.4658L80.3242 23.541H77.665L77.6514 23.4658C77.6195 23.2835 77.5397 23.1286 77.4121 23.001C77.2891 22.8688 77.125 22.7663 76.9199 22.6934C76.7148 22.6204 76.4801 22.584 76.2158 22.584C75.9515 22.584 75.7282 22.6204 75.5459 22.6934C75.3682 22.7617 75.2337 22.8574 75.1426 22.9805C75.0514 23.099 75.0059 23.2334 75.0059 23.3838V23.3906C75.0059 23.6367 75.1175 23.8281 75.3408 23.9648C75.5641 24.097 75.9219 24.2087 76.4141 24.2998L77.4053 24.4844C78.1117 24.6165 78.695 24.8034 79.1553 25.0449C79.6156 25.2865 79.9574 25.5986 80.1807 25.9814C80.4085 26.3597 80.5225 26.8245 80.5225 27.376V27.3828C80.5225 28.071 80.3516 28.6702 80.0098 29.1807C79.6725 29.6865 79.1826 30.0785 78.54 30.3564C77.8975 30.6344 77.1227 30.7734 76.2158 30.7734Z" fill="black"/>
<path d="M99.2609 30.4191L101.557 25.3756V21.5469C101.557 13.1351 108.4 6.29199 116.812 6.29199H119.226C127.304 6.29199 133.876 12.8648 133.876 20.9429C133.876 26.1778 131.066 31.0278 126.532 33.6419L126.558 45.7063L125.634 45.708L125.627 42.1582H122.257C122.06 42.7826 121.475 43.2376 120.785 43.2376C119.935 43.2376 119.244 42.5465 119.244 41.6962C119.244 40.846 119.935 40.1549 120.785 40.1549C121.475 40.1549 122.06 40.6099 122.257 41.2343H125.625L125.618 38.1464H122.257C122.06 38.7725 121.475 39.2259 120.785 39.2259C119.935 39.2259 119.244 38.5347 119.244 37.6845C119.244 36.8342 119.935 36.1431 120.785 36.1431C121.475 36.1431 122.06 36.5982 122.257 37.2226H125.617L125.61 33.7822H118.486C116.734 33.7822 115.157 34.8223 114.467 36.4322L113.065 39.7083C112.822 40.2729 112.466 40.7656 112.028 41.1608V45.7063H111.104V41.7904C110.536 42.0761 109.9 42.2351 109.236 42.2351H104.535C102.893 42.2351 101.556 40.899 101.556 39.2584C101.556 38.7058 101.558 36.138 101.558 32.5778L100.651 32.5761C100.13 32.5761 99.6506 32.3144 99.3684 31.8747C99.0861 31.4367 99.0453 30.893 99.2609 30.4191ZM120.786 41.0789C120.445 41.0789 120.168 41.3561 120.168 41.6965C120.168 42.037 120.445 42.3142 120.786 42.3142C121.126 42.3142 121.403 42.037 121.403 41.6965C121.403 41.3561 121.126 41.0789 120.786 41.0789ZM120.786 37.0672C120.445 37.0672 120.168 37.3443 120.168 37.6848C120.168 38.0252 120.445 38.3024 120.786 38.3024C121.126 38.3024 121.403 38.0252 121.403 37.6848C121.403 37.3443 121.126 37.0672 120.786 37.0672ZM100.143 31.3772C100.256 31.5535 100.441 31.6544 100.65 31.6544L102.48 31.6561V32.118V35.0674H104.088V35.9912H102.48C102.48 37.7276 102.48 38.9063 102.479 39.2605C102.479 40.393 103.401 41.3134 104.533 41.3134H109.234C110.533 41.3134 111.703 40.5418 112.214 39.3477L113.617 36.0716C114.452 34.1213 116.363 32.8605 118.484 32.8605H126.042C130.307 30.4141 132.952 25.8602 132.952 20.9433C132.952 13.3749 126.794 7.21596 119.225 7.21596H116.811C108.909 7.21596 102.48 13.6452 102.48 21.5472V25.576L100.102 30.8026C100.014 30.9908 100.03 31.2012 100.143 31.3774L100.143 31.3772ZM113.773 9.43652C114.762 9.18845 115.783 9.06357 116.811 9.06357V8.13975C115.708 8.13975 114.61 8.2749 113.549 8.54178L113.773 9.43652ZM127.322 29.6337L127.954 30.3095C130.544 27.8905 132.029 24.4777 132.029 20.9429H131.105C131.105 24.2225 129.726 27.3892 127.322 29.6337ZM105.312 14.6609L106.104 15.1365C107.561 12.7106 109.82 10.8305 112.461 9.84509L112.138 8.97942C109.301 10.0384 106.877 12.0552 105.312 14.6609ZM109.103 23.0298H105.401V25.5326L108.105 23.9553L108.097 23.9536H109.104L109.103 23.0298ZM120.772 13.1552C124.813 13.1552 128.099 16.4416 128.099 20.4822C128.099 24.5231 124.813 27.8092 120.772 27.8092C116.731 27.8092 113.445 24.5228 113.445 20.4822C113.445 16.4414 116.733 13.1552 120.772 13.1552ZM121.248 14.0978V16.8966C122.866 17.1105 124.151 18.3987 124.358 20.0188H127.157C126.931 16.8607 124.404 14.3308 121.248 14.0978ZM121.248 26.8651C124.404 26.6325 126.931 24.1022 127.157 20.9426H124.358C124.151 22.5627 122.866 23.8509 121.248 24.0648L121.249 26.8653L121.248 26.8651ZM123.465 20.4806C123.465 18.9957 122.257 17.7879 120.772 17.7879C119.287 17.7879 118.079 18.9957 118.079 20.4806C118.079 21.9655 119.287 23.1733 120.772 23.1733C122.257 23.175 123.465 21.9655 123.465 20.4806ZM120.324 26.8669V24.0681C118.692 23.8645 117.395 22.5728 117.186 20.9425H114.387C114.615 24.1109 117.154 26.6461 120.324 26.8669ZM117.186 20.0185C117.395 18.3882 118.692 17.0948 120.324 16.893V14.0959C117.154 14.3166 114.615 16.8519 114.387 20.0201L117.186 20.0185Z" fill="black" stroke="black" stroke-width="0.5"/>
</svg>
