<svg width="207" height="52" viewBox="0 0 207 52" fill="none" xmlns="http://www.w3.org/2000/svg">
<rect x="0.5" y="1" width="206" height="50" rx="7.5" stroke="#E6E6E6"/>
<rect x="8.7" y="9.2" width="33.6" height="33.6" rx="2.1" stroke="black" stroke-width="1.4"/>
<circle cx="13.2498" cy="38.6004" r="2.45" fill="black"/>
<circle cx="19.5496" cy="13.4002" r="2.45" fill="black"/>
<circle cx="25.8499" cy="19.7" r="2.45" fill="black"/>
<circle cx="32.1497" cy="25.9998" r="2.45" fill="black"/>
<circle cx="38.45" cy="32.2996" r="2.45" fill="black"/>
<path d="M54.1348 30.5V20.6357H58.5098C59.4941 20.6357 60.3281 20.8226 61.0117 21.1963C61.6953 21.5654 62.2148 22.1077 62.5703 22.8232C62.9303 23.5387 63.1104 24.4092 63.1104 25.4346V25.4482C63.1104 26.5374 62.9326 27.458 62.5771 28.21C62.2262 28.9619 61.709 29.5316 61.0254 29.9189C60.3418 30.3063 59.5033 30.5 58.5098 30.5H54.1348ZM57.0332 28.2031H57.9424C58.4255 28.2031 58.8311 28.1051 59.1592 27.9092C59.4873 27.7087 59.7357 27.4079 59.9043 27.0068C60.0729 26.6058 60.1572 26.1045 60.1572 25.5029V25.4893C60.1572 24.9378 60.0684 24.473 59.8906 24.0947C59.7174 23.7119 59.4645 23.4225 59.1318 23.2266C58.8037 23.0306 58.4072 22.9326 57.9424 22.9326H57.0332V28.2031ZM64.8945 30.5V20.6357H67.793V30.5H64.8945ZM69.4336 30.5L72.6533 20.6357H75.2236V22.9873H74.4033L72.4824 30.5H69.4336ZM71.457 28.5381L72.0859 26.4941H76.748L77.377 28.5381H71.457ZM76.4609 30.5L74.54 22.9873V20.6357H76.29L79.5098 30.5H76.4609ZM85.2178 30.7734C84.4339 30.7734 83.7344 30.6572 83.1191 30.4248C82.5039 30.1878 81.9821 29.846 81.5537 29.3994C81.1253 28.9482 80.7972 28.4014 80.5693 27.7588C80.346 27.1117 80.2344 26.3802 80.2344 25.5645V25.5508C80.2344 24.4753 80.4303 23.5501 80.8223 22.7754C81.2188 22.0007 81.7816 21.4059 82.5107 20.9912C83.2445 20.5719 84.1172 20.3623 85.1289 20.3623C85.9538 20.3623 86.6943 20.5127 87.3506 20.8135C88.0114 21.1143 88.5446 21.529 88.9502 22.0576C89.3604 22.5817 89.5996 23.1878 89.668 23.876L89.6748 23.9443H86.8242L86.8105 23.8828C86.7376 23.5365 86.5439 23.2585 86.2295 23.0488C85.915 22.8346 85.5482 22.7275 85.1289 22.7275C84.7188 22.7275 84.3678 22.8392 84.0762 23.0625C83.7891 23.2812 83.568 23.598 83.4131 24.0127C83.2627 24.4274 83.1875 24.9264 83.1875 25.5098V25.5234C83.1875 25.9701 83.2354 26.3711 83.3311 26.7266C83.4313 27.082 83.5726 27.3851 83.7549 27.6357C83.9417 27.8864 84.1628 28.0778 84.418 28.21C84.6777 28.3421 84.9671 28.4082 85.2861 28.4082C85.6006 28.4082 85.8809 28.3535 86.127 28.2441C86.373 28.1348 86.569 27.9798 86.7148 27.7793C86.8652 27.5742 86.9541 27.3372 86.9814 27.0684L86.9951 26.9316H85.4912V25.0039H89.7842V26.3027C89.7842 27.0046 89.6816 27.6312 89.4766 28.1826C89.2715 28.734 88.9707 29.2035 88.5742 29.5908C88.1823 29.9736 87.7038 30.2676 87.1387 30.4727C86.5736 30.6732 85.9333 30.7734 85.2178 30.7734ZM96.0459 30.7734C95.0387 30.7734 94.1615 30.5638 93.4141 30.1445C92.6712 29.7253 92.0947 29.1283 91.6846 28.3535C91.279 27.5742 91.0762 26.6468 91.0762 25.5713V25.5576C91.0762 24.4867 91.2812 23.5638 91.6914 22.7891C92.1016 22.0098 92.6781 21.4105 93.4209 20.9912C94.1683 20.5719 95.0433 20.3623 96.0459 20.3623C97.0531 20.3623 97.9281 20.5719 98.6709 20.9912C99.4137 21.4105 99.988 22.0098 100.394 22.7891C100.804 23.5638 101.009 24.4867 101.009 25.5576V25.5713C101.009 26.6468 100.804 27.5742 100.394 28.3535C99.988 29.1283 99.4137 29.7253 98.6709 30.1445C97.9281 30.5638 97.0531 30.7734 96.0459 30.7734ZM96.0459 28.4082C96.4424 28.4082 96.791 28.292 97.0918 28.0596C97.3971 27.8271 97.6341 27.499 97.8027 27.0752C97.9714 26.6468 98.0557 26.1455 98.0557 25.5713V25.5576C98.0557 24.9834 97.9714 24.4844 97.8027 24.0605C97.6341 23.6367 97.3971 23.3086 97.0918 23.0762C96.791 22.8438 96.4424 22.7275 96.0459 22.7275C95.6494 22.7275 95.2985 22.8438 94.9932 23.0762C94.6924 23.3086 94.4554 23.6367 94.2822 24.0605C94.1136 24.4844 94.0293 24.9834 94.0293 25.5576V25.5713C94.0293 26.1455 94.1136 26.6468 94.2822 27.0752C94.4554 27.499 94.6924 27.8271 94.9932 28.0596C95.2985 28.292 95.6494 28.4082 96.0459 28.4082ZM102.793 30.5V20.6357H105.042L109.547 26.5557L107.476 25.5303H108.904V20.6357H111.639V30.5H109.41L104.885 24.498L106.956 25.5303H105.527V30.5H102.793ZM113.279 30.5L116.499 20.6357H119.069V22.9873H118.249L116.328 30.5H113.279ZM115.303 28.5381L115.932 26.4941H120.594L121.223 28.5381H115.303ZM120.307 30.5L118.386 22.9873V20.6357H120.136L123.355 30.5H120.307ZM124.982 30.5V20.6357H127.881V28.2031H131.9V30.5H124.982ZM138.962 30.5L136.419 20.6357H139.427L140.541 26.7197H140.678L142.065 20.6357H144.308L145.764 26.7197H145.9L146.987 20.6357H149.968L147.425 30.5H144.711L143.255 24.9971H143.118L141.696 30.5H138.962ZM151.684 30.5V20.6357H156.127C156.993 20.6357 157.715 20.7679 158.294 21.0322C158.873 21.2965 159.308 21.6794 159.6 22.1807C159.896 22.6774 160.044 23.279 160.044 23.9854V23.999C160.044 24.5778 159.907 25.1224 159.634 25.6328C159.36 26.1387 158.968 26.5146 158.458 26.7607L160.331 30.5H157.091L155.532 27.1914C155.514 27.1914 155.493 27.1914 155.471 27.1914C155.448 27.1914 155.425 27.1914 155.402 27.1914H154.582V30.5H151.684ZM154.582 25.2773H155.792C156.188 25.2773 156.503 25.1634 156.735 24.9355C156.972 24.7077 157.091 24.4069 157.091 24.0332V24.0195C157.091 23.6549 156.972 23.3564 156.735 23.124C156.503 22.8916 156.188 22.7754 155.792 22.7754H154.582V25.2773ZM161.35 30.5L164.569 20.6357H167.14V22.9873H166.319L164.398 30.5H161.35ZM163.373 28.5381L164.002 26.4941H168.664L169.293 28.5381H163.373ZM168.377 30.5L166.456 22.9873V20.6357H168.206L171.426 30.5H168.377ZM174.502 27.8066V25.667H176.771C177.25 25.667 177.624 25.5485 177.893 25.3115C178.166 25.07 178.303 24.7145 178.303 24.2451V24.2314C178.303 23.7575 178.166 23.4043 177.893 23.1719C177.624 22.9349 177.25 22.8164 176.771 22.8164H174.502V20.6357H177.462C178.232 20.6357 178.897 20.7839 179.458 21.0801C180.023 21.3763 180.458 21.7933 180.764 22.3311C181.074 22.8688 181.229 23.5023 181.229 24.2314V24.2451C181.229 24.9743 181.074 25.6055 180.764 26.1387C180.458 26.6719 180.023 27.0843 179.458 27.376C178.897 27.6631 178.232 27.8066 177.462 27.8066H174.502ZM173.053 30.5V20.6357H175.951V30.5H173.053Z" fill="black"/>
</svg>
