<svg width="207" height="52" viewBox="0 0 207 52" fill="none" xmlns="http://www.w3.org/2000/svg">
<rect x="0.5" y="1" width="206" height="50" rx="7.5" stroke="#E6E6E6"/>
<rect x="8.7" y="9.2" width="33.6" height="33.6" rx="2.1" stroke="black" stroke-width="1.4"/>
<circle cx="19.5496" cy="13.4002" r="2.45" fill="black"/>
<circle cx="19.5496" cy="19.7" r="2.45" fill="black"/>
<circle cx="19.5496" cy="25.9998" r="2.45" fill="black"/>
<circle cx="19.5496" cy="32.2996" r="2.45" fill="black"/>
<circle cx="19.5496" cy="38.6004" r="2.45" fill="black"/>
<path d="M55.584 30.5V28.5176H58.2705C58.7217 28.5176 59.068 28.4196 59.3096 28.2236C59.5511 28.0231 59.6719 27.7383 59.6719 27.3691V27.3555C59.6719 27.1185 59.6172 26.918 59.5078 26.7539C59.3984 26.5898 59.2412 26.4645 59.0361 26.3779C58.8311 26.2913 58.5827 26.248 58.291 26.248H55.584V24.5869H58.1611C58.5303 24.5869 58.8219 24.498 59.0361 24.3203C59.2549 24.138 59.3643 23.901 59.3643 23.6094V23.5957C59.3643 23.2949 59.2617 23.0579 59.0566 22.8848C58.8516 22.707 58.5645 22.6182 58.1953 22.6182H55.584V20.6357H58.9883C59.6628 20.6357 60.237 20.7337 60.7109 20.9297C61.1849 21.1257 61.5472 21.4082 61.7979 21.7773C62.0531 22.1419 62.1807 22.5794 62.1807 23.0898V23.1035C62.1807 23.459 62.0986 23.7871 61.9346 24.0879C61.7705 24.3841 61.5472 24.6302 61.2646 24.8262C60.9867 25.0221 60.6676 25.1429 60.3076 25.1885V25.3252C60.7314 25.3343 61.1188 25.446 61.4697 25.6602C61.8206 25.8698 62.1009 26.1478 62.3105 26.4941C62.5202 26.8359 62.625 27.2119 62.625 27.6221V27.6357C62.625 28.21 62.4814 28.7135 62.1943 29.1465C61.9072 29.5749 61.5039 29.9076 60.9844 30.1445C60.4648 30.3815 59.8519 30.5 59.1455 30.5H55.584ZM54.1348 30.5V20.6357H57.0332V30.5H54.1348ZM63.7188 30.5L66.9385 20.6357H69.5088V22.9873H68.6885L66.7676 30.5H63.7188ZM65.7422 28.5381L66.3711 26.4941H71.0332L71.6621 28.5381H65.7422ZM70.7461 30.5L68.8252 22.9873V20.6357H70.5752L73.7949 30.5H70.7461ZM79.2432 30.7734C78.391 30.7734 77.6527 30.6549 77.0283 30.418C76.4085 30.1764 75.9232 29.8324 75.5723 29.3857C75.2259 28.9346 75.0368 28.3923 75.0049 27.7588L74.998 27.6221H77.7529L77.7598 27.6768C77.7826 27.8408 77.8577 27.9889 77.9854 28.1211C78.113 28.2533 78.2861 28.3581 78.5049 28.4355C78.7282 28.513 78.9857 28.5518 79.2773 28.5518C79.569 28.5518 79.8174 28.5153 80.0225 28.4424C80.2321 28.3649 80.3939 28.2601 80.5078 28.1279C80.6217 27.9912 80.6787 27.8385 80.6787 27.6699V27.6631C80.6787 27.4261 80.5671 27.2529 80.3438 27.1436C80.1204 27.0296 79.7354 26.9225 79.1885 26.8223L78.1973 26.6377C77.14 26.4372 76.3698 26.0885 75.8867 25.5918C75.4036 25.0905 75.1621 24.4479 75.1621 23.6641V23.6572C75.1621 22.9827 75.3376 22.3994 75.6885 21.9072C76.0394 21.415 76.5179 21.0345 77.124 20.7656C77.7347 20.4967 78.4297 20.3623 79.209 20.3623C80.0885 20.3623 80.8245 20.4945 81.417 20.7588C82.0094 21.0186 82.4652 21.3831 82.7842 21.8525C83.1032 22.3174 83.29 22.8551 83.3447 23.4658L83.3516 23.541H80.6924L80.6787 23.4658C80.6468 23.2835 80.5671 23.1286 80.4395 23.001C80.3164 22.8688 80.1523 22.7663 79.9473 22.6934C79.7422 22.6204 79.5075 22.584 79.2432 22.584C78.9788 22.584 78.7555 22.6204 78.5732 22.6934C78.3955 22.7617 78.2611 22.8574 78.1699 22.9805C78.0788 23.099 78.0332 23.2334 78.0332 23.3838V23.3906C78.0332 23.6367 78.1449 23.8281 78.3682 23.9648C78.5915 24.097 78.9492 24.2087 79.4414 24.2998L80.4326 24.4844C81.139 24.6165 81.7223 24.8034 82.1826 25.0449C82.6429 25.2865 82.9847 25.5986 83.208 25.9814C83.4359 26.3597 83.5498 26.8245 83.5498 27.376V27.3828C83.5498 28.071 83.3789 28.6702 83.0371 29.1807C82.6999 29.6865 82.21 30.0785 81.5674 30.3564C80.9248 30.6344 80.1501 30.7734 79.2432 30.7734ZM85.4023 30.5V20.6357H88.3008V30.5H85.4023ZM94.9795 30.7734C93.9678 30.7734 93.0951 30.5638 92.3613 30.1445C91.6276 29.7253 91.0625 29.1283 90.666 28.3535C90.2741 27.5742 90.0781 26.6468 90.0781 25.5713V25.5576C90.0781 24.4821 90.2741 23.557 90.666 22.7822C91.0625 22.0029 91.6253 21.4059 92.3545 20.9912C93.0882 20.5719 93.9632 20.3623 94.9795 20.3623C95.8499 20.3623 96.6224 20.5332 97.2969 20.875C97.9714 21.2168 98.5068 21.6862 98.9033 22.2832C99.3044 22.8757 99.5208 23.5501 99.5527 24.3066L99.5596 24.4639H96.7842L96.7773 24.3887C96.75 24.0697 96.6566 23.7848 96.4971 23.5342C96.3376 23.2835 96.1279 23.0876 95.8682 22.9463C95.6084 22.8005 95.3122 22.7275 94.9795 22.7275C94.5785 22.7275 94.2321 22.8415 93.9404 23.0693C93.6488 23.2926 93.4232 23.6162 93.2637 24.04C93.1087 24.4593 93.0312 24.9629 93.0312 25.5508V25.5645C93.0312 26.1523 93.1087 26.6605 93.2637 27.0889C93.4232 27.5127 93.6488 27.8385 93.9404 28.0664C94.2321 28.2943 94.5807 28.4082 94.9863 28.4082C95.319 28.4082 95.6107 28.3398 95.8613 28.2031C96.1165 28.0618 96.3216 27.8682 96.4766 27.6221C96.6361 27.3714 96.7363 27.0843 96.7773 26.7607L96.791 26.6582H99.5664L99.5596 26.8018C99.5231 27.5765 99.3089 28.2624 98.917 28.8594C98.5251 29.4564 97.9919 29.9258 97.3174 30.2676C96.6475 30.6048 95.8682 30.7734 94.9795 30.7734Z" fill="black"/>
</svg>
