<svg width="207" height="52" viewBox="0 0 207 52" fill="none" xmlns="http://www.w3.org/2000/svg">
<rect x="0.5" y="1" width="206" height="50" rx="7.5" stroke="#E6E6E6"/>
<rect x="8.7" y="9.2" width="33.6" height="33.6" rx="2.1" stroke="black" stroke-width="1.4"/>
<circle cx="25.8499" cy="13.4002" r="2.45" fill="black"/>
<circle cx="25.8499" cy="38.6004" r="2.45" fill="black"/>
<circle cx="32.1497" cy="19.7" r="2.45" fill="black"/>
<circle cx="32.1497" cy="32.2996" r="2.45" fill="black"/>
<circle cx="38.45" cy="25.9998" r="2.45" fill="black"/>
<path d="M55.584 30.5V28.5176H58.2705C58.7217 28.5176 59.068 28.4196 59.3096 28.2236C59.5511 28.0231 59.6719 27.7383 59.6719 27.3691V27.3555C59.6719 27.1185 59.6172 26.918 59.5078 26.7539C59.3984 26.5898 59.2412 26.4645 59.0361 26.3779C58.8311 26.2913 58.5827 26.248 58.291 26.248H55.584V24.5869H58.1611C58.5303 24.5869 58.8219 24.498 59.0361 24.3203C59.2549 24.138 59.3643 23.901 59.3643 23.6094V23.5957C59.3643 23.2949 59.2617 23.0579 59.0566 22.8848C58.8516 22.707 58.5645 22.6182 58.1953 22.6182H55.584V20.6357H58.9883C59.6628 20.6357 60.237 20.7337 60.7109 20.9297C61.1849 21.1257 61.5472 21.4082 61.7979 21.7773C62.0531 22.1419 62.1807 22.5794 62.1807 23.0898V23.1035C62.1807 23.459 62.0986 23.7871 61.9346 24.0879C61.7705 24.3841 61.5472 24.6302 61.2646 24.8262C60.9867 25.0221 60.6676 25.1429 60.3076 25.1885V25.3252C60.7314 25.3343 61.1188 25.446 61.4697 25.6602C61.8206 25.8698 62.1009 26.1478 62.3105 26.4941C62.5202 26.8359 62.625 27.2119 62.625 27.6221V27.6357C62.625 28.21 62.4814 28.7135 62.1943 29.1465C61.9072 29.5749 61.5039 29.9076 60.9844 30.1445C60.4648 30.3815 59.8519 30.5 59.1455 30.5H55.584ZM54.1348 30.5V20.6357H57.0332V30.5H54.1348ZM68.8252 30.7734C67.818 30.7734 66.9408 30.5638 66.1934 30.1445C65.4505 29.7253 64.874 29.1283 64.4639 28.3535C64.0583 27.5742 63.8555 26.6468 63.8555 25.5713V25.5576C63.8555 24.4867 64.0605 23.5638 64.4707 22.7891C64.8809 22.0098 65.4574 21.4105 66.2002 20.9912C66.9476 20.5719 67.8226 20.3623 68.8252 20.3623C69.8324 20.3623 70.7074 20.5719 71.4502 20.9912C72.193 21.4105 72.7673 22.0098 73.1729 22.7891C73.583 23.5638 73.7881 24.4867 73.7881 25.5576V25.5713C73.7881 26.6468 73.583 27.5742 73.1729 28.3535C72.7673 29.1283 72.193 29.7253 71.4502 30.1445C70.7074 30.5638 69.8324 30.7734 68.8252 30.7734ZM68.8252 28.4082C69.2217 28.4082 69.5703 28.292 69.8711 28.0596C70.1764 27.8271 70.4134 27.499 70.582 27.0752C70.7507 26.6468 70.835 26.1455 70.835 25.5713V25.5576C70.835 24.9834 70.7507 24.4844 70.582 24.0605C70.4134 23.6367 70.1764 23.3086 69.8711 23.0762C69.5703 22.8438 69.2217 22.7275 68.8252 22.7275C68.4287 22.7275 68.0778 22.8438 67.7725 23.0762C67.4717 23.3086 67.2347 23.6367 67.0615 24.0605C66.8929 24.4844 66.8086 24.9834 66.8086 25.5576V25.5713C66.8086 26.1455 66.8929 26.6468 67.0615 27.0752C67.2347 27.499 67.4717 27.8271 67.7725 28.0596C68.0778 28.292 68.4287 28.4082 68.8252 28.4082ZM79.9131 30.7734C79.0472 30.7734 78.2884 30.623 77.6367 30.3223C76.985 30.0169 76.4769 29.5885 76.1123 29.0371C75.7523 28.4857 75.5723 27.8363 75.5723 27.0889V20.6357H78.4707V26.8018C78.4707 27.1436 78.5254 27.4352 78.6348 27.6768C78.7487 27.9137 78.9128 28.096 79.127 28.2236C79.3411 28.3467 79.6055 28.4082 79.9199 28.4082C80.2344 28.4082 80.4987 28.3467 80.7129 28.2236C80.9316 28.096 81.0957 27.9137 81.2051 27.6768C81.3145 27.4352 81.3691 27.1436 81.3691 26.8018V20.6357H84.2676V27.0889C84.2676 27.8317 84.0876 28.4788 83.7275 29.0303C83.3675 29.5817 82.8617 30.0101 82.21 30.3154C81.5583 30.6208 80.7926 30.7734 79.9131 30.7734ZM86.5371 30.5V20.6357H88.7861L93.291 26.5557L91.2197 25.5303H92.6484V20.6357H95.3828V30.5H93.1543L88.6289 24.498L90.7002 25.5303H89.2715V30.5H86.5371ZM102.062 30.7734C101.05 30.7734 100.177 30.5638 99.4434 30.1445C98.7096 29.7253 98.1445 29.1283 97.748 28.3535C97.3561 27.5742 97.1602 26.6468 97.1602 25.5713V25.5576C97.1602 24.4821 97.3561 23.557 97.748 22.7822C98.1445 22.0029 98.7074 21.4059 99.4365 20.9912C100.17 20.5719 101.045 20.3623 102.062 20.3623C102.932 20.3623 103.704 20.5332 104.379 20.875C105.053 21.2168 105.589 21.6862 105.985 22.2832C106.386 22.8757 106.603 23.5501 106.635 24.3066L106.642 24.4639H103.866L103.859 24.3887C103.832 24.0697 103.739 23.7848 103.579 23.5342C103.42 23.2835 103.21 23.0876 102.95 22.9463C102.69 22.8005 102.394 22.7275 102.062 22.7275C101.66 22.7275 101.314 22.8415 101.022 23.0693C100.731 23.2926 100.505 23.6162 100.346 24.04C100.191 24.4593 100.113 24.9629 100.113 25.5508V25.5645C100.113 26.1523 100.191 26.6605 100.346 27.0889C100.505 27.5127 100.731 27.8385 101.022 28.0664C101.314 28.2943 101.663 28.4082 102.068 28.4082C102.401 28.4082 102.693 28.3398 102.943 28.2031C103.199 28.0618 103.404 27.8682 103.559 27.6221C103.718 27.3714 103.818 27.0843 103.859 26.7607L103.873 26.6582H106.648L106.642 26.8018C106.605 27.5765 106.391 28.2624 105.999 28.8594C105.607 29.4564 105.074 29.9258 104.399 30.2676C103.729 30.6048 102.95 30.7734 102.062 30.7734ZM108.385 30.5V20.6357H115.344V22.9326H111.283V24.5322H115.091V26.6104H111.283V28.2031H115.344V30.5H108.385Z" fill="black"/>
</svg>
