<svg width="175" height="175" viewBox="0 0 175 175" fill="none" xmlns="http://www.w3.org/2000/svg">
<rect x="3.5" y="3.5" width="168" height="168" rx="10.5" stroke="black" stroke-width="7"/>
<ellipse cx="20.8519" cy="21.4349" rx="10.9349" ry="10.9349" fill="#00C7BE"/>
<path d="M20.8516 37.4922C26.639 37.4922 31.3309 42.1833 31.3311 47.9707C31.3311 53.7583 26.6391 58.4502 20.8516 58.4502C15.0642 58.45 10.373 53.7581 10.373 47.9707C10.3732 42.1834 15.0643 37.4924 20.8516 37.4922Z" stroke="#E6E6E6" stroke-width="0.911243"/>
<path d="M20.8518 64.0293C26.6392 64.0293 31.3311 68.7204 31.3313 74.5078C31.3313 80.2954 26.6394 84.9873 20.8518 84.9873C15.0644 84.9871 10.3733 80.2953 10.3733 74.5078C10.3735 68.7205 15.0645 64.0295 20.8518 64.0293Z" stroke="#E6E6E6" stroke-width="0.911243"/>
<ellipse cx="20.8519" cy="101.044" rx="10.9349" ry="10.9349" fill="#212121"/>
<path d="M20.8518 117.103C26.6392 117.103 31.3311 121.794 31.3313 127.581C31.3313 133.369 26.6394 138.061 20.8518 138.061C15.0644 138.06 10.3733 133.368 10.3733 127.581C10.3735 121.794 15.0645 117.103 20.8518 117.103Z" stroke="#E6E6E6" stroke-width="0.911243"/>
<ellipse cx="20.8519" cy="154.118" rx="10.9349" ry="10.9349" fill="#9E9E9E"/>
<path d="M47.3879 10.9561C53.1754 10.9561 57.8672 15.6472 57.8674 21.4346C57.8674 27.2221 53.1755 31.9141 47.3879 31.9141C41.6005 31.9139 36.9094 27.222 36.9094 21.4346C36.9096 15.6473 41.6007 10.9562 47.3879 10.9561Z" stroke="#E6E6E6" stroke-width="0.911243"/>
<ellipse cx="47.3883" cy="47.971" rx="10.9349" ry="10.9349" fill="#00C7BE"/>
<path d="M47.3879 64.0293C53.1754 64.0293 57.8672 68.7204 57.8674 74.5078C57.8674 80.2954 53.1755 84.9873 47.3879 84.9873C41.6005 84.9871 36.9094 80.2953 36.9094 74.5078C36.9096 68.7205 41.6007 64.0295 47.3879 64.0293Z" stroke="#E6E6E6" stroke-width="0.911243"/>
<path d="M47.3879 90.5654C53.1754 90.5654 57.8672 95.2565 57.8674 101.044C57.8674 106.831 53.1755 111.523 47.3879 111.523C41.6005 111.523 36.9094 106.831 36.9094 101.044C36.9096 95.2567 41.6007 90.5656 47.3879 90.5654Z" stroke="#E6E6E6" stroke-width="0.911243"/>
<ellipse cx="47.3883" cy="127.581" rx="10.9349" ry="10.9349" fill="#212121"/>
<path d="M47.3879 143.639C53.1754 143.639 57.8672 148.33 57.8674 154.117C57.8674 159.905 53.1755 164.597 47.3879 164.597C41.6005 164.596 36.9094 159.905 36.9094 154.117C36.9096 148.33 41.6007 143.639 47.3879 143.639Z" stroke="#E6E6E6" stroke-width="0.911243"/>
<path d="M73.9243 10.9561C79.7118 10.9561 84.4036 15.6472 84.4038 21.4346C84.4038 27.2221 79.7119 31.9141 73.9243 31.9141C68.1369 31.9139 63.4458 27.222 63.4458 21.4346C63.446 15.6473 68.137 10.9562 73.9243 10.9561Z" stroke="#E6E6E6" stroke-width="0.911243"/>
<path d="M73.9243 37.4922C79.7118 37.4922 84.4036 42.1833 84.4038 47.9707C84.4038 53.7583 79.7119 58.4502 73.9243 58.4502C68.1369 58.45 63.4458 53.7581 63.4458 47.9707C63.446 42.1834 68.137 37.4924 73.9243 37.4922Z" stroke="#E6E6E6" stroke-width="0.911243"/>
<ellipse cx="73.9247" cy="74.5082" rx="10.9349" ry="10.9349" fill="#00C7BE"/>
<ellipse cx="73.9247" cy="101.044" rx="10.9349" ry="10.9349" fill="#9E9E9E"/>
<ellipse cx="73.9247" cy="127.581" rx="10.9349" ry="10.9349" fill="#9E9E9E"/>
<path d="M73.9243 143.639C79.7118 143.639 84.4036 148.33 84.4038 154.117C84.4038 159.905 79.7119 164.597 73.9243 164.597C68.1369 164.596 63.4458 159.905 63.4458 154.117C63.446 148.33 68.137 143.639 73.9243 143.639Z" stroke="#E6E6E6" stroke-width="0.911243"/>
<ellipse cx="100.461" cy="21.4349" rx="10.9349" ry="10.9349" fill="#9E9E9E"/>
<ellipse cx="100.461" cy="47.971" rx="10.9349" ry="10.9349" fill="#212121"/>
<path d="M100.461 64.0293C106.248 64.0293 110.94 68.7204 110.94 74.5078C110.94 80.2954 106.248 84.9873 100.461 84.9873C94.6735 84.9871 89.9824 80.2953 89.9824 74.5078C89.9826 68.7205 94.6737 64.0295 100.461 64.0293Z" stroke="#E6E6E6" stroke-width="0.911243"/>
<ellipse cx="100.461" cy="101.044" rx="10.9349" ry="10.9349" fill="#00C7BE"/>
<path d="M100.461 117.103C106.248 117.103 110.94 121.794 110.94 127.581C110.94 133.369 106.248 138.061 100.461 138.061C94.6735 138.06 89.9824 133.368 89.9824 127.581C89.9826 121.794 94.6737 117.103 100.461 117.103Z" stroke="#E6E6E6" stroke-width="0.911243"/>
<path d="M100.461 143.639C106.248 143.639 110.94 148.33 110.94 154.117C110.94 159.905 106.248 164.597 100.461 164.597C94.6735 164.596 89.9824 159.905 89.9824 154.117C89.9826 148.33 94.6737 143.639 100.461 143.639Z" stroke="#E6E6E6" stroke-width="0.911243"/>
<path d="M126.997 10.9561C132.785 10.9561 137.476 15.6472 137.477 21.4346C137.477 27.2221 132.785 31.9141 126.997 31.9141C121.21 31.9139 116.519 27.222 116.519 21.4346C116.519 15.6473 121.21 10.9562 126.997 10.9561Z" stroke="#E6E6E6" stroke-width="0.911243"/>
<ellipse cx="126.997" cy="47.971" rx="10.9349" ry="10.9349" fill="#212121"/>
<ellipse cx="126.997" cy="74.5082" rx="10.9349" ry="10.9349" fill="#212121"/>
<ellipse cx="126.997" cy="101.044" rx="10.9349" ry="10.9349" fill="#9E9E9E"/>
<ellipse cx="126.997" cy="127.581" rx="10.9349" ry="10.9349" fill="#00C7BE"/>
<ellipse cx="126.997" cy="154.118" rx="10.9349" ry="10.9349" fill="#9E9E9E"/>
<ellipse cx="153.534" cy="21.4349" rx="10.9349" ry="10.9349" fill="#9E9E9E"/>
<ellipse cx="153.534" cy="47.971" rx="10.9349" ry="10.9349" fill="#9E9E9E"/>
<ellipse cx="153.534" cy="74.5082" rx="10.9349" ry="10.9349" fill="#9E9E9E"/>
<path d="M153.534 90.5654C159.321 90.5654 164.013 95.2565 164.013 101.044C164.013 106.831 159.321 111.523 153.534 111.523C147.746 111.523 143.055 106.831 143.055 101.044C143.055 95.2567 147.746 90.5656 153.534 90.5654Z" stroke="#E6E6E6" stroke-width="0.911243"/>
<path d="M153.534 117.102C159.321 117.102 164.013 121.793 164.013 127.58C164.013 133.368 159.321 138.06 153.534 138.06C147.746 138.059 143.055 133.368 143.055 127.58C143.055 121.793 147.746 117.102 153.534 117.102Z" stroke="#E6E6E6" stroke-width="0.911243"/>
<path d="M153.534 143.639C159.321 143.639 164.013 148.33 164.013 154.117C164.013 159.905 159.321 164.597 153.534 164.597C147.746 164.596 143.055 159.905 143.055 154.117C143.055 148.33 147.746 143.639 153.534 143.639Z" stroke="#E6E6E6" stroke-width="0.911243"/>
</svg>
