<svg width="163" height="79" viewBox="0 0 163 79" fill="none" xmlns="http://www.w3.org/2000/svg">
<rect x="1.26953" y="0.5" width="161" height="78" rx="7.5" stroke="#E6E6E6"/>
<path d="M47.6836 19V12.0684H50.6074C51.3887 12.0684 51.998 12.2617 52.4355 12.6484C52.877 13.0312 53.0977 13.5508 53.0977 14.207V14.2188C53.0977 14.6797 52.9766 15.0879 52.7344 15.4434C52.4922 15.7949 52.1562 16.043 51.7266 16.1875L53.3203 19H51.8613L50.4258 16.3691C50.4141 16.3691 50.4023 16.3691 50.3906 16.3691C50.3789 16.3691 50.3691 16.3691 50.3613 16.3691H48.9551V19H47.6836ZM48.9551 15.4434H50.4785C50.8926 15.4434 51.2148 15.3379 51.4453 15.127C51.6758 14.916 51.791 14.623 51.791 14.248V14.2363C51.791 13.8652 51.6719 13.5723 51.4336 13.3574C51.1953 13.1426 50.8672 13.0352 50.4492 13.0352H48.9551V15.4434ZM57.8496 19.1699C57.1387 19.1699 56.5273 19.0234 56.0156 18.7305C55.5039 18.4336 55.1094 18.0137 54.832 17.4707C54.5547 16.9238 54.416 16.2793 54.416 15.5371V15.5254C54.416 14.7832 54.5547 14.1406 54.832 13.5977C55.1133 13.0547 55.5098 12.6367 56.0215 12.3438C56.5371 12.0469 57.1465 11.8984 57.8496 11.8984C58.5566 11.8984 59.166 12.0469 59.6777 12.3438C60.1895 12.6367 60.584 13.0547 60.8613 13.5977C61.1426 14.1406 61.2832 14.7832 61.2832 15.5254V15.5371C61.2832 16.2793 61.1445 16.9219 60.8672 17.4648C60.5898 18.0078 60.1934 18.4277 59.6777 18.7246C59.166 19.0215 58.5566 19.1699 57.8496 19.1699ZM57.8555 18.1328C58.293 18.1328 58.6699 18.0273 58.9863 17.8164C59.3066 17.6016 59.5527 17.2988 59.7246 16.9082C59.9004 16.5176 59.9883 16.0605 59.9883 15.5371V15.5254C59.9883 14.9941 59.9004 14.5352 59.7246 14.1484C59.5527 13.7617 59.3066 13.4629 58.9863 13.252C58.666 13.0371 58.2891 12.9297 57.8555 12.9297C57.4219 12.9297 57.0449 13.0371 56.7246 13.252C56.4043 13.4629 56.1562 13.7617 55.9805 14.1484C55.8047 14.5352 55.7168 14.9941 55.7168 15.5254V15.5371C55.7168 16.0605 55.8027 16.5176 55.9746 16.9082C56.1465 17.2988 56.3926 17.6016 56.7129 17.8164C57.0332 18.0273 57.4141 18.1328 57.8555 18.1328ZM65.7891 19.1699C65.1719 19.1699 64.6406 19.0625 64.1953 18.8477C63.75 18.6328 63.4062 18.334 63.1641 17.9512C62.9219 17.5684 62.8008 17.123 62.8008 16.6152V12.0684H64.0723V16.5156C64.0723 17.0039 64.2207 17.3965 64.5176 17.6934C64.8184 17.9863 65.2422 18.1328 65.7891 18.1328C66.3359 18.1328 66.7559 17.9863 67.0488 17.6934C67.3457 17.3965 67.4941 17.0039 67.4941 16.5156V12.0684H68.7715V16.6152C68.7715 17.1191 68.6504 17.5645 68.4082 17.9512C68.1699 18.334 67.8281 18.6328 67.3828 18.8477C66.9375 19.0625 66.4062 19.1699 65.7891 19.1699ZM70.5938 19V12.0684H71.707L75.627 17.3418L74.748 16.9258H75.3809V12.0684H76.6172V19H75.5098L71.584 13.7207L72.4629 14.1367H71.8242V19H70.5938ZM78.4453 19V12.0684H81.1582C81.8809 12.0684 82.498 12.2031 83.0098 12.4727C83.5215 12.7422 83.9102 13.1328 84.1758 13.6445C84.4453 14.1562 84.5801 14.7754 84.5801 15.502V15.5137C84.5801 16.248 84.4453 16.877 84.1758 17.4004C83.9102 17.9199 83.5215 18.3164 83.0098 18.5898C82.502 18.8633 81.8848 19 81.1582 19H78.4453ZM79.7168 17.9922H80.9883C81.4766 17.9922 81.8906 17.8965 82.2305 17.7051C82.5703 17.5137 82.8301 17.2344 83.0098 16.8672C83.1895 16.5 83.2793 16.0547 83.2793 15.5312V15.5254C83.2793 15.0059 83.1895 14.5645 83.0098 14.2012C82.8301 13.8379 82.5684 13.5605 82.2246 13.3691C81.8848 13.1738 81.4727 13.0762 80.9883 13.0762H79.7168V17.9922ZM90.8672 19L88.916 12.0684H90.2402L91.5 17.3359H91.5762L93.0234 12.0684H94.1602L95.625 17.3359H95.7012L96.9551 12.0684H98.2734L96.3223 19H95.127L93.6328 13.9668H93.5566L92.0684 19H90.8672ZM99.6328 19V12.0684H100.904V19H99.6328ZM102.738 19V12.0684H103.852L107.771 17.3418L106.893 16.9258H107.525V12.0684H108.762V19H107.654L103.729 13.7207L104.607 14.1367H103.969V19H102.738ZM113.098 19.1699C112.539 19.1699 112.051 19.0879 111.633 18.9238C111.219 18.7598 110.893 18.5293 110.654 18.2324C110.42 17.9355 110.285 17.5898 110.25 17.1953L110.244 17.125H111.486L111.492 17.1777C111.516 17.377 111.598 17.5508 111.738 17.6992C111.883 17.8477 112.074 17.9629 112.312 18.0449C112.555 18.127 112.83 18.168 113.139 18.168C113.436 18.168 113.697 18.123 113.924 18.0332C114.15 17.9434 114.328 17.8223 114.457 17.6699C114.586 17.5137 114.65 17.334 114.65 17.1309V17.125C114.65 16.8711 114.547 16.6621 114.34 16.498C114.137 16.334 113.799 16.2031 113.326 16.1055L112.547 15.9473C111.801 15.7988 111.258 15.5586 110.918 15.2266C110.578 14.8945 110.408 14.4727 110.408 13.9609V13.9551C110.408 13.5449 110.523 13.1855 110.754 12.877C110.984 12.5684 111.303 12.3281 111.709 12.1562C112.115 11.9844 112.578 11.8984 113.098 11.8984C113.633 11.8984 114.096 11.9844 114.486 12.1562C114.877 12.3242 115.184 12.5547 115.406 12.8477C115.633 13.1406 115.762 13.4707 115.793 13.8379L115.799 13.8965H114.574L114.562 13.8379C114.516 13.5645 114.363 13.3398 114.105 13.1641C113.848 12.9883 113.508 12.9004 113.086 12.9004C112.816 12.9004 112.576 12.9414 112.365 13.0234C112.154 13.1016 111.988 13.2129 111.867 13.3574C111.75 13.502 111.691 13.6777 111.691 13.8848C111.691 14.1348 111.791 14.3418 111.99 14.5059C112.193 14.666 112.521 14.793 112.975 14.8867L113.76 15.0508C114.525 15.2031 115.078 15.4336 115.418 15.7422C115.762 16.0508 115.934 16.4648 115.934 16.9844V16.9902C115.934 17.4395 115.816 17.8281 115.582 18.1562C115.352 18.4805 115.025 18.7305 114.604 18.9062C114.182 19.082 113.68 19.1699 113.098 19.1699Z" fill="black"/>
<path d="M12.7695 32.7002H71.7695C73.5921 32.7002 75.0693 34.1775 75.0693 36V67C75.0693 68.8225 73.5921 70.2998 71.7695 70.2998H12.7695C10.947 70.2998 9.46973 68.8225 9.46973 67V36C9.46973 34.1775 10.947 32.7002 12.7695 32.7002Z" stroke="black" stroke-width="1.4"/>
<path d="M22.5137 44.0713V43.2607H24.1348C24.5254 43.2607 24.8298 43.1647 25.0479 42.9727C25.266 42.7773 25.375 42.5039 25.375 42.1523V42.1475C25.375 41.7926 25.266 41.5192 25.0479 41.3271C24.8298 41.1318 24.5254 41.0342 24.1348 41.0342H22.5137V40.2236H24.3984C24.8053 40.2236 25.1634 40.3034 25.4727 40.4629C25.7819 40.6224 26.0228 40.8454 26.1953 41.1318C26.3678 41.4183 26.4541 41.7536 26.4541 42.1377V42.1475C26.4541 42.5283 26.3678 42.8636 26.1953 43.1533C26.0228 43.4398 25.7819 43.6644 25.4727 43.8271C25.1634 43.9899 24.8053 44.0713 24.3984 44.0713H22.5137ZM21.9863 46V40.2236H23.0459V46H21.9863ZM27.6699 46V40.2236H28.7295V45.1602H31.5176V46H27.6699ZM32.2402 46L34.3984 40.2236H35.2773V41.2783H34.96L33.3584 46H32.2402ZM33.3242 44.4814L33.6074 43.71H36.3809L36.6641 44.4814H33.3242ZM36.6348 46L35.0332 41.2783V40.2236H35.5898L37.7529 46H36.6348ZM39.8672 46V43.6904L37.7383 40.2236H38.9053L40.3652 42.7139H40.4385L41.8936 40.2236H43.0605L40.9316 43.6904V46H39.8672ZM44.1152 46V40.2236H48.0264V41.0635H45.1748V42.665H47.8701V43.4658H45.1748V45.1602H48.0264V46H44.1152ZM49.3887 46V40.2236H51.8252C52.4762 40.2236 52.984 40.3848 53.3486 40.707C53.7165 41.026 53.9004 41.459 53.9004 42.0059V42.0156C53.9004 42.3997 53.7995 42.7399 53.5977 43.0361C53.3958 43.3291 53.1159 43.5358 52.7578 43.6562L54.0859 46H52.8701L51.6738 43.8076C51.6641 43.8076 51.6543 43.8076 51.6445 43.8076C51.6348 43.8076 51.6266 43.8076 51.6201 43.8076H50.4482V46H49.3887ZM50.4482 43.0361H51.7178C52.0628 43.0361 52.3314 42.9482 52.5234 42.7725C52.7155 42.5967 52.8115 42.3525 52.8115 42.04V42.0303C52.8115 41.721 52.7122 41.4769 52.5137 41.2979C52.3151 41.1188 52.0417 41.0293 51.6934 41.0293H50.4482V43.0361ZM57.5869 46L59.8135 42.7383L59.5693 43.5293V43.0801L57.6016 40.2236H58.8613L60.2822 42.416H60.7705L60.0771 42.7871L61.752 40.2236H62.9434L60.9072 43.1094V43.5537L60.6582 42.7676L62.9043 46H61.6787L60.2334 43.8467H59.7451L60.4482 43.4854L58.749 46H57.5869Z" fill="black"/>
<path d="M38.3164 63L42.8711 54.375V54.2188H37.5195V51.7188H46.1914V54.2188L41.7852 63H38.3164Z" fill="black"/>
<path d="M91.7695 32.7002H150.77C152.592 32.7002 154.069 34.1775 154.069 36V67C154.069 68.8225 152.592 70.2998 150.77 70.2998H91.7695C89.947 70.2998 88.4697 68.8225 88.4697 67V36C88.4697 34.1775 89.947 32.7002 91.7695 32.7002Z" stroke="black" stroke-width="1.4"/>
<path d="M101.191 44.0713V43.2607H102.812C103.203 43.2607 103.507 43.1647 103.726 42.9727C103.944 42.7773 104.053 42.5039 104.053 42.1523V42.1475C104.053 41.7926 103.944 41.5192 103.726 41.3271C103.507 41.1318 103.203 41.0342 102.812 41.0342H101.191V40.2236H103.076C103.483 40.2236 103.841 40.3034 104.15 40.4629C104.46 40.6224 104.701 40.8454 104.873 41.1318C105.046 41.4183 105.132 41.7536 105.132 42.1377V42.1475C105.132 42.5283 105.046 42.8636 104.873 43.1533C104.701 43.4398 104.46 43.6644 104.15 43.8271C103.841 43.9899 103.483 44.0713 103.076 44.0713H101.191ZM100.664 46V40.2236H101.724V46H100.664ZM106.348 46V40.2236H107.407V45.1602H110.195V46H106.348ZM110.918 46L113.076 40.2236H113.955V41.2783H113.638L112.036 46H110.918ZM112.002 44.4814L112.285 43.71H115.059L115.342 44.4814H112.002ZM115.312 46L113.711 41.2783V40.2236H114.268L116.431 46H115.312ZM118.545 46V43.6904L116.416 40.2236H117.583L119.043 42.7139H119.116L120.571 40.2236H121.738L119.609 43.6904V46H118.545ZM122.793 46V40.2236H126.704V41.0635H123.853V42.665H126.548V43.4658H123.853V45.1602H126.704V46H122.793ZM128.066 46V40.2236H130.503C131.154 40.2236 131.662 40.3848 132.026 40.707C132.394 41.026 132.578 41.459 132.578 42.0059V42.0156C132.578 42.3997 132.477 42.7399 132.275 43.0361C132.074 43.3291 131.794 43.5358 131.436 43.6562L132.764 46H131.548L130.352 43.8076C130.342 43.8076 130.332 43.8076 130.322 43.8076C130.312 43.8076 130.304 43.8076 130.298 43.8076H129.126V46H128.066ZM129.126 43.0361H130.396C130.741 43.0361 131.009 42.9482 131.201 42.7725C131.393 42.5967 131.489 42.3525 131.489 42.04V42.0303C131.489 41.721 131.39 41.4769 131.191 41.2979C130.993 41.1188 130.719 41.0293 130.371 41.0293H129.126V43.0361ZM139.263 46.1416C138.67 46.1416 138.161 46.0195 137.734 45.7754C137.308 45.528 136.979 45.1781 136.748 44.7256C136.517 44.2699 136.401 43.7327 136.401 43.1143V43.1045C136.401 42.486 136.517 41.9505 136.748 41.498C136.982 41.0456 137.313 40.6973 137.739 40.4531C138.169 40.2057 138.677 40.082 139.263 40.082C139.852 40.082 140.36 40.2057 140.786 40.4531C141.213 40.6973 141.541 41.0456 141.772 41.498C142.007 41.9505 142.124 42.486 142.124 43.1045V43.1143C142.124 43.7327 142.008 44.2682 141.777 44.7207C141.546 45.1732 141.216 45.5231 140.786 45.7705C140.36 46.0179 139.852 46.1416 139.263 46.1416ZM139.268 45.2773C139.632 45.2773 139.946 45.1895 140.21 45.0137C140.477 44.8346 140.682 44.5824 140.825 44.2568C140.972 43.9313 141.045 43.5505 141.045 43.1143V43.1045C141.045 42.6618 140.972 42.2793 140.825 41.957C140.682 41.6348 140.477 41.3857 140.21 41.21C139.943 41.0309 139.629 40.9414 139.268 40.9414C138.906 40.9414 138.592 41.0309 138.325 41.21C138.058 41.3857 137.852 41.6348 137.705 41.957C137.559 42.2793 137.485 42.6618 137.485 43.1045V43.1143C137.485 43.5505 137.557 43.9313 137.7 44.2568C137.843 44.5824 138.049 44.8346 138.315 45.0137C138.582 45.1895 138.9 45.2773 139.268 45.2773Z" fill="black"/>
<path d="M121.137 63.3125C120.23 63.3125 119.444 63.1589 118.777 62.8516C118.116 62.5443 117.598 62.1276 117.223 61.6016C116.853 61.0755 116.65 60.487 116.613 59.8359L116.605 59.6953H119.543L119.559 59.7422C119.626 59.9349 119.73 60.112 119.871 60.2734C120.017 60.4297 120.197 60.5547 120.41 60.6484C120.624 60.7422 120.866 60.7891 121.137 60.7891C121.444 60.7891 121.715 60.724 121.949 60.5938C122.189 60.4635 122.376 60.2839 122.512 60.0547C122.647 59.8203 122.715 59.5547 122.715 59.2578V59.2422C122.715 58.9401 122.647 58.6771 122.512 58.4531C122.376 58.2292 122.189 58.0547 121.949 57.9297C121.71 57.7995 121.436 57.7344 121.129 57.7344C120.936 57.7344 120.757 57.7604 120.59 57.8125C120.428 57.8594 120.28 57.9271 120.145 58.0156C120.03 58.0938 119.926 58.1849 119.832 58.2891C119.738 58.388 119.663 58.4922 119.605 58.6016H116.785L117.23 51.7266H125.059V54.2266H119.793L119.621 56.8359H119.777C119.913 56.5807 120.095 56.3568 120.324 56.1641C120.553 55.9714 120.824 55.8203 121.137 55.7109C121.454 55.6016 121.801 55.5469 122.176 55.5469C122.874 55.5469 123.493 55.7031 124.035 56.0156C124.577 56.3281 125.001 56.7578 125.309 57.3047C125.621 57.8464 125.777 58.4714 125.777 59.1797V59.1953C125.777 60.0182 125.582 60.7396 125.191 61.3594C124.806 61.9792 124.264 62.4609 123.566 62.8047C122.868 63.1432 122.059 63.3125 121.137 63.3125Z" fill="black"/>
</svg>
