<svg width="163" height="79" viewBox="0 0 163 79" fill="none" xmlns="http://www.w3.org/2000/svg">
<rect x="1.26953" y="0.5" width="161" height="78" rx="7.5" stroke="#E6E6E6"/>
<path d="M47.6836 19V12.0684H49.1426L51.3574 17.4648H51.4395L53.6484 12.0684H55.1074V19H53.959V14.0195H53.332L54.6094 12.2559L51.832 19H50.959L48.1875 12.2559L49.459 14.0195H48.832V19H47.6836ZM56.3789 19L58.9688 12.0684H60.0234V13.334H59.6426L57.7207 19H56.3789ZM57.6797 17.1777L58.0195 16.252H61.3477L61.6875 17.1777H57.6797ZM61.6523 19L59.7305 13.334V12.0684H60.3984L62.9941 19H61.6523ZM65.2852 19V13.0762H63.0352V12.0684H68.8125V13.0762H66.5625V19H65.2852ZM72.9199 19.1699C72.2363 19.1699 71.6445 19.0234 71.1445 18.7305C70.6484 18.4375 70.2656 18.0195 69.9961 17.4766C69.7266 16.9297 69.5918 16.2832 69.5918 15.5371V15.5312C69.5918 14.7852 69.7246 14.1406 69.9902 13.5977C70.2598 13.0508 70.6426 12.6309 71.1387 12.3379C71.6387 12.0449 72.2324 11.8984 72.9199 11.8984C73.4707 11.8984 73.9668 12 74.4082 12.2031C74.8496 12.4062 75.209 12.6875 75.4863 13.0469C75.7676 13.4062 75.9375 13.8203 75.9961 14.2891L75.9902 14.3242H74.7422L74.7363 14.3008C74.6738 14.0234 74.5566 13.7832 74.3848 13.5801C74.2168 13.377 74.0078 13.2188 73.7578 13.1055C73.5078 12.9883 73.2285 12.9297 72.9199 12.9297C72.5059 12.9297 72.1465 13.0352 71.8418 13.2461C71.5371 13.457 71.3027 13.7559 71.1387 14.1426C70.9746 14.5293 70.8926 14.9902 70.8926 15.5254V15.5371C70.8926 16.0684 70.9746 16.5293 71.1387 16.9199C71.3027 17.3105 71.5371 17.6113 71.8418 17.8223C72.1465 18.0293 72.5078 18.1328 72.9258 18.1328C73.2344 18.1328 73.5117 18.082 73.7578 17.9805C74.0078 17.8789 74.2168 17.7344 74.3848 17.5469C74.5527 17.3555 74.668 17.1328 74.7305 16.8789L74.7422 16.8555H75.9902L75.9961 16.8906C75.9297 17.3438 75.7598 17.7422 75.4863 18.0859C75.2129 18.4297 74.8555 18.6973 74.4141 18.8887C73.9766 19.0762 73.4785 19.1699 72.9199 19.1699ZM77.4727 19V12.0684H78.7441V14.9629H82.3125V12.0684H83.5898V19H82.3125V15.9707H78.7441V19H77.4727ZM90.1758 19L88.2246 12.0684H89.5488L90.8086 17.3359H90.8848L92.332 12.0684H93.4688L94.9336 17.3359H95.0098L96.2637 12.0684H97.582L95.6309 19H94.4355L92.9414 13.9668H92.8652L91.377 19H90.1758ZM98.9414 19V12.0684H100.213V19H98.9414ZM102.047 19V12.0684H103.16L107.08 17.3418L106.201 16.9258H106.834V12.0684H108.07V19H106.963L103.037 13.7207L103.916 14.1367H103.277V19H102.047ZM112.406 19.1699C111.848 19.1699 111.359 19.0879 110.941 18.9238C110.527 18.7598 110.201 18.5293 109.963 18.2324C109.729 17.9355 109.594 17.5898 109.559 17.1953L109.553 17.125H110.795L110.801 17.1777C110.824 17.377 110.906 17.5508 111.047 17.6992C111.191 17.8477 111.383 17.9629 111.621 18.0449C111.863 18.127 112.139 18.168 112.447 18.168C112.744 18.168 113.006 18.123 113.232 18.0332C113.459 17.9434 113.637 17.8223 113.766 17.6699C113.895 17.5137 113.959 17.334 113.959 17.1309V17.125C113.959 16.8711 113.855 16.6621 113.648 16.498C113.445 16.334 113.107 16.2031 112.635 16.1055L111.855 15.9473C111.109 15.7988 110.566 15.5586 110.227 15.2266C109.887 14.8945 109.717 14.4727 109.717 13.9609V13.9551C109.717 13.5449 109.832 13.1855 110.062 12.877C110.293 12.5684 110.611 12.3281 111.018 12.1562C111.424 11.9844 111.887 11.8984 112.406 11.8984C112.941 11.8984 113.404 11.9844 113.795 12.1562C114.186 12.3242 114.492 12.5547 114.715 12.8477C114.941 13.1406 115.07 13.4707 115.102 13.8379L115.107 13.8965H113.883L113.871 13.8379C113.824 13.5645 113.672 13.3398 113.414 13.1641C113.156 12.9883 112.816 12.9004 112.395 12.9004C112.125 12.9004 111.885 12.9414 111.674 13.0234C111.463 13.1016 111.297 13.2129 111.176 13.3574C111.059 13.502 111 13.6777 111 13.8848C111 14.1348 111.1 14.3418 111.299 14.5059C111.502 14.666 111.83 14.793 112.283 14.8867L113.068 15.0508C113.834 15.2031 114.387 15.4336 114.727 15.7422C115.07 16.0508 115.242 16.4648 115.242 16.9844V16.9902C115.242 17.4395 115.125 17.8281 114.891 18.1562C114.66 18.4805 114.334 18.7305 113.912 18.9062C113.49 19.082 112.988 19.1699 112.406 19.1699Z" fill="black"/>
<path d="M12.7695 32.7002H71.7695C73.5921 32.7002 75.0693 34.1775 75.0693 36V67C75.0693 68.8225 73.5921 70.2998 71.7695 70.2998H12.7695C10.947 70.2998 9.46973 68.8225 9.46973 67V36C9.46973 34.1775 10.947 32.7002 12.7695 32.7002Z" stroke="black" stroke-width="1.4"/>
<path d="M22.5137 44.0713V43.2607H24.1348C24.5254 43.2607 24.8298 43.1647 25.0479 42.9727C25.266 42.7773 25.375 42.5039 25.375 42.1523V42.1475C25.375 41.7926 25.266 41.5192 25.0479 41.3271C24.8298 41.1318 24.5254 41.0342 24.1348 41.0342H22.5137V40.2236H24.3984C24.8053 40.2236 25.1634 40.3034 25.4727 40.4629C25.7819 40.6224 26.0228 40.8454 26.1953 41.1318C26.3678 41.4183 26.4541 41.7536 26.4541 42.1377V42.1475C26.4541 42.5283 26.3678 42.8636 26.1953 43.1533C26.0228 43.4398 25.7819 43.6644 25.4727 43.8271C25.1634 43.9899 24.8053 44.0713 24.3984 44.0713H22.5137ZM21.9863 46V40.2236H23.0459V46H21.9863ZM27.6699 46V40.2236H28.7295V45.1602H31.5176V46H27.6699ZM32.2402 46L34.3984 40.2236H35.2773V41.2783H34.96L33.3584 46H32.2402ZM33.3242 44.4814L33.6074 43.71H36.3809L36.6641 44.4814H33.3242ZM36.6348 46L35.0332 41.2783V40.2236H35.5898L37.7529 46H36.6348ZM39.8672 46V43.6904L37.7383 40.2236H38.9053L40.3652 42.7139H40.4385L41.8936 40.2236H43.0605L40.9316 43.6904V46H39.8672ZM44.1152 46V40.2236H48.0264V41.0635H45.1748V42.665H47.8701V43.4658H45.1748V45.1602H48.0264V46H44.1152ZM49.3887 46V40.2236H51.8252C52.4762 40.2236 52.984 40.3848 53.3486 40.707C53.7165 41.026 53.9004 41.459 53.9004 42.0059V42.0156C53.9004 42.3997 53.7995 42.7399 53.5977 43.0361C53.3958 43.3291 53.1159 43.5358 52.7578 43.6562L54.0859 46H52.8701L51.6738 43.8076C51.6641 43.8076 51.6543 43.8076 51.6445 43.8076C51.6348 43.8076 51.6266 43.8076 51.6201 43.8076H50.4482V46H49.3887ZM50.4482 43.0361H51.7178C52.0628 43.0361 52.3314 42.9482 52.5234 42.7725C52.7155 42.5967 52.8115 42.3525 52.8115 42.04V42.0303C52.8115 41.721 52.7122 41.4769 52.5137 41.2979C52.3151 41.1188 52.0417 41.0293 51.6934 41.0293H50.4482V43.0361ZM57.5869 46L59.8135 42.7383L59.5693 43.5293V43.0801L57.6016 40.2236H58.8613L60.2822 42.416H60.7705L60.0771 42.7871L61.752 40.2236H62.9434L60.9072 43.1094V43.5537L60.6582 42.7676L62.9043 46H61.6787L60.2334 43.8467H59.7451L60.4482 43.4854L58.749 46H57.5869Z" fill="black"/>
<path d="M35.5508 63V54.625H35.3945L32.7227 56.3906V53.6172L35.5508 51.7266H38.8633V63H35.5508ZM46.332 63.3125C45.4102 63.3125 44.6003 63.1615 43.9023 62.8594C43.2044 62.5573 42.6523 62.1302 42.2461 61.5781C41.8398 61.026 41.6081 60.375 41.5508 59.625L41.543 59.5234H44.6992L44.7148 59.6172C44.7461 59.8255 44.8294 60.0156 44.9648 60.1875C45.1003 60.3594 45.2826 60.4948 45.5117 60.5938C45.7409 60.6927 46.0117 60.7422 46.3242 60.7422C46.6367 60.7422 46.9049 60.6901 47.1289 60.5859C47.3529 60.4766 47.5247 60.3307 47.6445 60.1484C47.7643 59.9609 47.8242 59.7474 47.8242 59.5078V59.4922C47.8242 59.1068 47.6732 58.8151 47.3711 58.6172C47.069 58.4141 46.6315 58.3125 46.0586 58.3125H44.8945V56.1328H46.0586C46.4023 56.1328 46.694 56.0885 46.9336 56C47.1732 55.9115 47.3555 55.7839 47.4805 55.6172C47.6107 55.4453 47.6758 55.2448 47.6758 55.0156V55C47.6758 54.7656 47.6211 54.5599 47.5117 54.3828C47.4023 54.2057 47.2435 54.0703 47.0352 53.9766C46.832 53.8776 46.5898 53.8281 46.3086 53.8281C46.0169 53.8281 45.7617 53.8802 45.543 53.9844C45.3294 54.0833 45.1602 54.2266 45.0352 54.4141C44.9102 54.5964 44.8346 54.8099 44.8086 55.0547L44.8008 55.125H41.8164L41.8242 55.0078C41.8711 54.2734 42.0846 53.638 42.4648 53.1016C42.8451 52.5651 43.3607 52.151 44.0117 51.8594C44.668 51.5625 45.4336 51.4141 46.3086 51.4141C47.2096 51.4141 47.9909 51.5443 48.6523 51.8047C49.3138 52.0651 49.8242 52.4297 50.1836 52.8984C50.543 53.362 50.7227 53.9089 50.7227 54.5391V54.5547C50.7227 55.0286 50.6159 55.4427 50.4023 55.7969C50.1888 56.1458 49.9049 56.4297 49.5508 56.6484C49.2018 56.8672 48.8216 57.0182 48.4102 57.1016V57.1641C49.2643 57.2526 49.9414 57.5182 50.4414 57.9609C50.9414 58.4036 51.1914 58.9896 51.1914 59.7188V59.7344C51.1914 60.4688 50.9935 61.1042 50.5977 61.6406C50.207 62.1771 49.6497 62.5911 48.9258 62.8828C48.2018 63.1693 47.3372 63.3125 46.332 63.3125Z" fill="black"/>
<path d="M91.7695 32.7002H150.77C152.592 32.7002 154.069 34.1775 154.069 36V67C154.069 68.8225 152.592 70.2998 150.77 70.2998H91.7695C89.947 70.2998 88.4697 68.8225 88.4697 67V36C88.4697 34.1775 89.947 32.7002 91.7695 32.7002Z" stroke="black" stroke-width="1.4"/>
<path d="M101.191 44.0713V43.2607H102.812C103.203 43.2607 103.507 43.1647 103.726 42.9727C103.944 42.7773 104.053 42.5039 104.053 42.1523V42.1475C104.053 41.7926 103.944 41.5192 103.726 41.3271C103.507 41.1318 103.203 41.0342 102.812 41.0342H101.191V40.2236H103.076C103.483 40.2236 103.841 40.3034 104.15 40.4629C104.46 40.6224 104.701 40.8454 104.873 41.1318C105.046 41.4183 105.132 41.7536 105.132 42.1377V42.1475C105.132 42.5283 105.046 42.8636 104.873 43.1533C104.701 43.4398 104.46 43.6644 104.15 43.8271C103.841 43.9899 103.483 44.0713 103.076 44.0713H101.191ZM100.664 46V40.2236H101.724V46H100.664ZM106.348 46V40.2236H107.407V45.1602H110.195V46H106.348ZM110.918 46L113.076 40.2236H113.955V41.2783H113.638L112.036 46H110.918ZM112.002 44.4814L112.285 43.71H115.059L115.342 44.4814H112.002ZM115.312 46L113.711 41.2783V40.2236H114.268L116.431 46H115.312ZM118.545 46V43.6904L116.416 40.2236H117.583L119.043 42.7139H119.116L120.571 40.2236H121.738L119.609 43.6904V46H118.545ZM122.793 46V40.2236H126.704V41.0635H123.853V42.665H126.548V43.4658H123.853V45.1602H126.704V46H122.793ZM128.066 46V40.2236H130.503C131.154 40.2236 131.662 40.3848 132.026 40.707C132.394 41.026 132.578 41.459 132.578 42.0059V42.0156C132.578 42.3997 132.477 42.7399 132.275 43.0361C132.074 43.3291 131.794 43.5358 131.436 43.6562L132.764 46H131.548L130.352 43.8076C130.342 43.8076 130.332 43.8076 130.322 43.8076C130.312 43.8076 130.304 43.8076 130.298 43.8076H129.126V46H128.066ZM129.126 43.0361H130.396C130.741 43.0361 131.009 42.9482 131.201 42.7725C131.393 42.5967 131.489 42.3525 131.489 42.04V42.0303C131.489 41.721 131.39 41.4769 131.191 41.2979C130.993 41.1188 130.719 41.0293 130.371 41.0293H129.126V43.0361ZM139.263 46.1416C138.67 46.1416 138.161 46.0195 137.734 45.7754C137.308 45.528 136.979 45.1781 136.748 44.7256C136.517 44.2699 136.401 43.7327 136.401 43.1143V43.1045C136.401 42.486 136.517 41.9505 136.748 41.498C136.982 41.0456 137.313 40.6973 137.739 40.4531C138.169 40.2057 138.677 40.082 139.263 40.082C139.852 40.082 140.36 40.2057 140.786 40.4531C141.213 40.6973 141.541 41.0456 141.772 41.498C142.007 41.9505 142.124 42.486 142.124 43.1045V43.1143C142.124 43.7327 142.008 44.2682 141.777 44.7207C141.546 45.1732 141.216 45.5231 140.786 45.7705C140.36 46.0179 139.852 46.1416 139.263 46.1416ZM139.268 45.2773C139.632 45.2773 139.946 45.1895 140.21 45.0137C140.477 44.8346 140.682 44.5824 140.825 44.2568C140.972 43.9313 141.045 43.5505 141.045 43.1143V43.1045C141.045 42.6618 140.972 42.2793 140.825 41.957C140.682 41.6348 140.477 41.3857 140.21 41.21C139.943 41.0309 139.629 40.9414 139.268 40.9414C138.906 40.9414 138.592 41.0309 138.325 41.21C138.058 41.3857 137.852 41.6348 137.705 41.957C137.559 42.2793 137.485 42.6618 137.485 43.1045V43.1143C137.485 43.5505 137.557 43.9313 137.7 44.2568C137.843 44.5824 138.049 44.8346 138.315 45.0137C138.582 45.1895 138.9 45.2773 139.268 45.2773Z" fill="black"/>
<path d="M115.051 63V54.625H114.895L112.223 56.3906V53.6172L115.051 51.7266H118.363V63H115.051ZM121.77 63L126.324 54.375V54.2188H120.973V51.7188H129.645V54.2188L125.238 63H121.77Z" fill="black"/>
</svg>
