<svg width="38" height="48" viewBox="0 0 38 48" fill="none" xmlns="http://www.w3.org/2000/svg">
<path d="M30.5079 33.5541C28.4669 32.0072 27.0138 29.8119 26.3907 27.3276C27.0567 26.2065 27.4571 24.9467 27.5626 23.6479C28.9532 23.3041 29.9337 22.058 29.9376 20.6244V15.1554C29.9337 13.1515 29.34 11.1925 28.2286 9.52442C27.1153 7.85647 25.5372 6.55372 23.6876 5.78027V4.99902C23.6876 2.41112 21.588 0.311523 19.0001 0.311523C16.4122 0.311523 14.3126 2.41112 14.3126 4.99902V5.78027C12.463 6.55372 10.8849 7.85642 9.77165 9.52442C8.6603 11.1924 8.06655 13.1514 8.06265 15.1554V20.6244C8.06655 22.058 9.04705 23.3041 10.4376 23.6479C10.5431 24.9467 10.9435 26.2065 11.6095 27.3276C10.9865 29.812 9.5334 32.0073 7.49235 33.5541C5.40249 34.1849 3.56849 35.4701 2.26584 37.222C0.961144 38.972 0.254144 41.097 0.250244 43.2805V46.4055C0.250244 46.6126 0.332274 46.8118 0.478759 46.9583C0.625244 47.1048 0.824464 47.1868 1.03151 47.1868H36.969C37.176 47.1868 37.3753 47.1048 37.5218 46.9583C37.6683 46.8118 37.7503 46.6126 37.7503 46.4055V43.2805C37.7464 41.0969 37.0393 38.9719 35.7347 37.222C34.4319 35.4701 32.5977 34.1849 30.5079 33.5541ZM7.28145 45.6246H1.81244V43.2808C1.81635 41.5523 2.33979 39.8648 3.31439 38.439C4.29095 37.0113 5.67179 35.9117 7.2812 35.2808L7.28145 45.6246ZM27.7579 33.1326C27.7033 33.1326 27.6486 33.1248 27.5939 33.1248H24.4689C24.0372 33.1248 23.6876 32.7752 23.6876 32.3435V30.1638C24.2521 29.7927 24.7697 29.3572 25.2345 28.8669C25.7951 30.4372 26.6505 31.8846 27.7579 33.1326ZM15.8749 32.3435V30.9685C17.8827 31.7595 20.1171 31.7595 22.1249 30.9685V32.3435C22.1249 33.5115 22.9902 34.4998 24.1484 34.656C23.3749 39.2498 21.2734 42.5 18.9999 42.5C16.7264 42.5 14.6249 39.25 13.8514 34.656C15.0096 34.4998 15.8749 33.5115 15.8749 32.3435ZM11.9687 22.9685V19.0623H13.2031C16.3457 19.0662 19.3126 17.6111 21.2341 15.1248L21.695 16.0388C22.5251 17.7205 24.1657 18.8513 26.031 19.031V22.9685C26.031 26.8513 22.8825 29.9995 19 29.9995C15.1174 29.9995 11.9687 26.8511 11.9687 22.9685ZM27.5937 21.9763V20.6248H28.3749C28.3769 21.1834 28.0781 21.699 27.5937 21.9763ZM15.8747 4.99982C15.8766 3.73617 16.6383 2.59942 17.8044 2.11507C18.9704 1.62874 20.3141 1.89242 21.2106 2.78107C21.7946 3.37092 22.1227 4.16972 22.1247 4.99982V5.28107C21.3571 5.09553 20.57 5.00178 19.7809 4.99982H18.2184C17.4294 5.00178 16.6423 5.09553 15.8747 5.28107V4.99982ZM10.4057 21.9763C9.92132 21.699 9.6225 21.1834 9.62445 20.6248H10.4057V21.9763ZM11.1869 17.4998C10.7553 17.4998 10.4057 17.8494 10.4057 18.281V19.0623H9.62445V15.156C9.6264 12.8767 10.5326 10.6931 12.144 9.08202C13.7553 7.47067 15.9389 6.56442 18.218 6.56247H19.7805C22.0598 6.56443 24.2434 7.47067 25.8545 9.08202C27.4658 10.6934 28.3721 12.8769 28.374 15.156V19.0623H27.5928V18.281C27.5928 18.074 27.5108 17.8748 27.3643 17.7283C27.2178 17.5818 27.0186 17.4998 26.8115 17.4998H26.585C25.1045 17.5056 23.751 16.6697 23.0928 15.3435L22.0381 13.242C21.915 12.992 21.667 12.8279 21.3896 12.8123C21.1103 12.7966 20.8467 12.9295 20.6943 13.1638L20.3506 13.6716C18.7607 16.0662 16.0752 17.5037 13.2021 17.4997L11.1869 17.4998ZM12.765 28.8668C13.2299 29.357 13.7474 29.7926 14.3119 30.1637V32.3434C14.3119 32.5504 14.2299 32.7496 14.0834 32.8961C13.9369 33.0426 13.7377 33.1246 13.5307 33.1246H10.4057C10.351 33.1246 10.2963 33.1325 10.2416 33.1325C11.349 31.8844 12.2045 30.4371 12.765 28.8668ZM29.1556 45.6248H8.84305V34.8358C9.35865 34.7381 9.8821 34.6893 10.4055 34.6873H12.2727C13.1633 40.3203 15.8196 44.0623 18.9992 44.0623C22.1788 44.0623 24.8352 40.3201 25.7257 34.6873H27.5929C28.1164 34.6893 28.6398 34.7381 29.1554 34.8358L29.1556 45.6248ZM36.1865 45.6248H30.7176V35.2808C32.327 35.9116 33.7078 37.0112 34.6843 38.439C35.6589 39.8648 36.1824 41.5523 36.1863 43.2808L36.1865 45.6248Z" fill="black"/>
<path d="M15.875 22.1875C16.082 22.1875 16.2812 22.1055 16.4277 21.959C16.5742 21.8125 16.6563 21.6133 16.6563 21.4063V20.625C16.6563 20.1934 16.3066 19.8438 15.875 19.8438C15.4434 19.8438 15.0938 20.1934 15.0938 20.625V21.4063C15.0938 21.6133 15.1758 21.8125 15.3223 21.959C15.4688 22.1055 15.6679 22.1875 15.875 22.1875Z" fill="black"/>
<path d="M22.125 22.1875C22.332 22.1875 22.5312 22.1055 22.6777 21.959C22.8242 21.8125 22.9063 21.6133 22.9063 21.4063V20.625C22.9063 20.1934 22.5566 19.8438 22.125 19.8438C21.6934 19.8438 21.3438 20.1934 21.3438 20.625V21.4063C21.3438 21.6133 21.4258 21.8125 21.5723 21.959C21.7188 22.1055 21.9179 22.1875 22.125 22.1875Z" fill="black"/>
<path d="M16.1035 25.541C15.7988 25.8457 15.7988 26.3418 16.1035 26.6465L16.2363 26.7793H16.2383C16.9707 27.5117 17.9629 27.9238 19 27.9238C20.0371 27.9238 21.0293 27.5117 21.7617 26.7793L21.8945 26.6465H21.8964C22.1914 26.3398 22.1875 25.8516 21.8867 25.5508C21.5859 25.25 21.0976 25.2461 20.791 25.541L20.6582 25.6738V25.6758C20.2187 26.1152 19.6211 26.3613 19 26.3613C18.3789 26.3613 17.7812 26.1152 17.3418 25.6758L17.209 25.543V25.541C16.9043 25.2363 16.4082 25.2363 16.1035 25.541Z" fill="black"/>
</svg>
